<?xml version="1.0" standalone="no"?>
<!DOCTYPE svg PUBLIC "-//W3C//DTD SVG 20010904//EN"
 "http://www.w3.org/TR/2001/REC-SVG-20010904/DTD/svg10.dtd">
<svg version="1.0" xmlns="http://www.w3.org/2000/svg"
 width="912.000000pt" height="912.000000pt" viewBox="0 0 912.000000 912.000000"
 preserveAspectRatio="xMidYMid meet">
<metadata>
Created by potrace 1.14, written by Peter Selinger 2001-2017
</metadata>
<g transform="translate(0.000000,912.000000) scale(0.100000,-0.100000)"
fill="#000000" stroke="none">
<path d="M4340 8880 c-12 -8 -8 -10 15 -11 17 -1 38 -1 49 0 14 1 16 -2 8 -11
-8 -10 -3 -13 19 -14 18 -1 28 3 26 10 -2 6 3 16 12 23 13 10 4 12 -49 13 -36
0 -72 -5 -80 -10z"/>
<path d="M4505 8880 c-11 -5 -14 -9 -7 -9 6 -1 12 -8 12 -16 0 -8 5 -15 10
-15 6 0 10 6 10 13 0 8 3 9 8 1 11 -17 72 -14 72 4 0 9 6 12 16 8 9 -3 18 -6
20 -6 3 0 2 -4 -1 -10 -3 -5 -2 -10 3 -10 5 0 12 9 15 19 3 14 -2 21 -17 25
-31 8 -118 6 -141 -4z"/>
<path d="M4220 8870 c23 -7 21 -8 -17 -15 -44 -8 -59 -25 -23 -25 11 0 20 -4
20 -10 0 -20 35 -9 58 18 13 15 21 22 18 16 -7 -14 21 -27 36 -18 6 4 5 10 -3
15 -12 8 -11 11 1 19 11 7 -4 9 -50 9 -46 -1 -58 -3 -40 -9z m17 -46 c-3 -3
-12 -4 -19 -1 -8 3 -5 6 6 6 11 1 17 -2 13 -5z"/>
<path d="M4732 8871 c26 -4 51 -11 55 -15 4 -5 -4 -6 -19 -2 -14 3 -40 3 -58
-1 -28 -5 -30 -7 -14 -16 13 -7 19 -7 22 2 3 9 9 8 22 -4 13 -12 23 -14 37 -7
10 5 36 8 58 7 22 -1 48 2 58 7 9 5 17 5 17 1 0 -4 35 -6 77 -4 68 3 74 5 43
12 -19 5 -49 7 -67 4 -17 -3 -34 -1 -38 5 -8 13 -92 13 -100 0 -4 -6 -11 -8
-16 -4 -5 3 -7 10 -4 15 4 5 -20 8 -57 8 -63 -2 -63 -2 -16 -8z"/>
<path d="M4070 8860 c0 -7 20 -9 57 -6 77 8 80 16 5 16 -37 0 -62 -4 -62 -10z"/>
<path d="M4018 8853 c6 -2 18 -2 25 0 6 3 1 5 -13 5 -14 0 -19 -2 -12 -5z"/>
<path d="M4470 8850 c0 -5 5 -10 10 -10 6 0 10 5 10 10 0 6 -4 10 -10 10 -5 0
-10 -4 -10 -10z"/>
<path d="M3910 8840 c-16 -5 1 -7 50 -7 48 0 66 3 50 8 -32 9 -68 9 -100 -1z"/>
<path d="M5098 8833 c7 -3 16 -2 19 1 4 3 -2 6 -13 5 -11 0 -14 -3 -6 -6z"/>
<path d="M3778 8825 c-3 -3 -43 -12 -88 -20 -46 -8 -89 -20 -94 -26 -8 -9 -8
-10 1 -5 6 3 14 2 18 -4 8 -14 21 -13 37 3 18 18 48 28 48 17 0 -6 7 -10 15
-10 8 0 12 -6 9 -14 -4 -11 -12 -12 -27 -7 -24 9 -47 4 -47 -10 0 -5 7 -9 15
-9 8 0 15 -5 15 -11 0 -5 5 -7 10 -4 6 3 10 -1 10 -10 0 -12 5 -15 18 -10 9 4
43 9 74 12 32 3 56 9 53 12 -2 4 12 5 32 3 25 -3 34 -1 29 7 -4 6 -15 11 -24
12 -14 0 -13 2 3 9 11 5 15 9 9 9 -6 1 -27 -5 -46 -13 -22 -10 -39 -11 -49 -5
-9 6 -10 9 -1 9 6 0 12 7 12 15 0 8 7 15 15 15 8 0 15 6 15 13 0 21 -12 28
-27 16 -9 -9 -13 -8 -13 0 0 11 -13 15 -22 6z m12 -42 c0 -12 -2 -12 -15 1 -8
8 -15 17 -15 20 0 3 7 3 15 0 8 -4 15 -13 15 -21z m-20 -44 c0 -4 -9 -9 -20
-12 -11 -3 -20 -1 -20 4 0 5 5 9 10 9 6 0 10 8 10 18 0 14 2 15 10 2 5 -8 10
-18 10 -21z"/>
<path d="M3988 8813 c7 -3 16 -2 19 1 4 3 -2 6 -13 5 -11 0 -14 -3 -6 -6z"/>
<path d="M4558 8813 c12 -2 32 -2 45 0 12 2 2 4 -23 4 -25 0 -35 -2 -22 -4z"/>
<path d="M4797 8809 c8 -8 16 -8 30 0 16 9 14 10 -11 11 -22 0 -27 -3 -19 -11z"/>
<path d="M4950 8810 c-24 -8 -23 -8 8 -9 17 -1 32 4 32 9 0 11 -5 11 -40 0z"/>
<path d="M5254 8808 c-12 -20 31 -39 78 -35 31 3 45 0 42 -7 -6 -15 103 -19
112 -5 4 7 -1 9 -15 4 -11 -3 -21 -2 -21 3 0 11 -108 34 -121 26 -5 -3 -9 -1
-9 4 0 13 -59 21 -66 10z"/>
<path d="M3903 8793 c9 -2 23 -2 30 0 6 3 -1 5 -18 5 -16 0 -22 -2 -12 -5z"/>
<path d="M4280 8790 c0 -6 7 -10 15 -10 8 0 15 2 15 4 0 2 -7 6 -15 10 -8 3
-15 1 -15 -4z"/>
<path d="M4343 8793 c9 -2 23 -2 30 0 6 3 -1 5 -18 5 -16 0 -22 -2 -12 -5z"/>
<path d="M4895 8790 c3 -5 10 -10 16 -10 5 0 9 5 9 10 0 6 -7 10 -16 10 -8 0
-12 -4 -9 -10z"/>
<path d="M5197 8794 c-12 -12 -86 -26 -160 -28 -43 -2 -81 -7 -85 -11 -4 -4
12 -5 36 -2 28 3 40 2 35 -6 -4 -7 9 -8 43 -4 33 5 44 4 34 -3 -12 -8 -9 -10
12 -10 29 0 46 15 26 23 -7 3 -4 6 8 6 11 1 25 6 32 13 9 9 12 9 12 0 0 -6 -8
-16 -17 -21 -24 -14 -7 -14 18 -1 25 14 44 3 29 -15 -8 -10 -4 -14 15 -18 21
-4 25 -1 19 12 -4 9 -7 26 -7 39 1 20 -3 23 -24 17 -16 -4 -22 -2 -18 5 7 11
2 14 -8 4z"/>
<path d="M4678 8783 c7 -3 16 -2 19 1 4 3 -2 6 -13 5 -11 0 -14 -3 -6 -6z"/>
<path d="M3473 8757 c-46 -11 -83 -25 -83 -29 0 -5 5 -6 12 -2 7 4 8 3 4 -5
-5 -8 -12 -9 -20 -2 -13 11 -56 4 -56 -10 0 -13 14 -11 29 4 12 10 13 8 7 -8
-6 -16 -5 -17 5 -8 8 8 18 9 31 2 10 -5 22 -7 27 -4 5 3 11 -1 14 -7 3 -10 8
-10 21 1 15 13 19 13 26 1 11 -18 1 -34 -14 -21 -8 6 -19 3 -36 -9 -14 -11
-31 -20 -39 -20 -8 0 -12 -2 -9 -5 8 -9 158 27 158 38 0 5 6 7 14 4 7 -3 36 0
62 7 47 13 48 14 21 21 -18 5 -37 3 -53 -6 -20 -10 -32 -10 -57 -1 -29 10 -30
10 -13 -3 11 -8 15 -15 9 -15 -7 0 -19 7 -27 16 -9 8 -24 13 -34 10 -13 -4
-18 -1 -18 13 0 11 5 17 13 14 7 -3 24 2 38 11 13 9 31 16 39 16 8 0 18 5 21
10 7 12 11 12 -92 -13z"/>
<path d="M4228 8773 c6 -2 18 -2 25 0 6 3 1 5 -13 5 -14 0 -19 -2 -12 -5z"/>
<path d="M4753 8773 c9 -2 23 -2 30 0 6 3 -1 5 -18 5 -16 0 -22 -2 -12 -5z"/>
<path d="M3960 8759 c0 -5 -8 -9 -17 -10 -10 0 -13 -2 -8 -5 6 -2 55 2 110 10
l100 14 -92 0 c-51 0 -93 -5 -93 -9z"/>
<path d="M4868 8763 c7 -3 16 -2 19 1 4 3 -2 6 -13 5 -11 0 -14 -3 -6 -6z"/>
<path d="M5250 8760 c0 -5 4 -10 9 -10 6 0 13 5 16 10 3 6 -1 10 -9 10 -9 0
-16 -4 -16 -10z"/>
<path d="M5318 8743 c-21 -5 -24 -19 -6 -25 12 -4 38 14 38 26 0 6 -5 6 -32
-1z"/>
<path d="M5555 8742 c-17 -12 -13 -48 6 -48 10 0 16 4 13 7 -2 4 1 11 7 15 6
4 16 -1 21 -10 10 -17 38 -22 38 -6 0 6 8 10 18 11 13 0 12 2 -6 9 -12 5 -29
7 -37 4 -8 -4 -15 -1 -15 6 0 7 -8 9 -21 5 -15 -5 -19 -4 -15 4 8 13 5 14 -9
3z"/>
<path d="M3536 8721 c-3 -5 7 -11 23 -13 21 -3 28 -1 24 9 -6 15 -39 18 -47 4z"/>
<path d="M3288 8703 c-10 -2 -18 -9 -18 -14 0 -6 4 -7 10 -4 18 11 -2 -30 -24
-47 -21 -17 -21 -18 -1 -19 11 -1 0 -5 -25 -9 -38 -6 -41 -8 -22 -15 12 -4 22
-11 22 -15 0 -5 16 -3 35 2 19 6 32 15 28 21 -3 5 4 6 18 2 18 -4 20 -4 10 4
-22 14 3 39 33 34 13 -3 27 0 30 6 11 17 -45 13 -64 -4 -16 -14 -18 -14 -23 0
-4 9 -1 15 8 15 18 0 20 16 3 23 -10 4 -9 8 2 16 15 11 8 12 -22 4z"/>
<path d="M5334 8699 c-3 -6 93 -30 145 -35 13 -2 30 -5 38 -8 7 -3 13 0 13 6
0 7 7 3 15 -8 11 -14 15 -16 15 -4 0 12 3 11 11 -2 19 -34 52 -16 42 22 -3 12
-14 15 -40 12 -23 -3 -38 0 -44 9 -6 10 -33 14 -100 14 -50 0 -93 -3 -95 -6z
m141 -9 c3 -5 1 -10 -4 -10 -6 0 -11 5 -11 10 0 6 2 10 4 10 3 0 8 -4 11 -10z"/>
<path d="M5710 8696 c0 -11 72 -47 84 -43 8 3 13 -1 12 -10 0 -8 9 -19 22 -24
17 -6 22 -5 22 7 0 12 7 14 33 9 54 -12 25 3 -66 35 -84 29 -107 35 -107 26z"/>
<path d="M3158 8661 c-37 -13 -45 -19 -38 -31 7 -12 12 -12 29 4 15 13 29 17
50 13 35 -7 48 4 23 19 -12 8 -30 6 -64 -5z"/>
<path d="M5640 8671 c0 -5 5 -13 10 -16 6 -3 10 -2 10 4 0 5 -4 13 -10 16 -5
3 -10 2 -10 -4z"/>
<path d="M5708 8625 c-6 -27 24 -55 37 -35 10 16 28 12 22 -4 -4 -10 -1 -13 9
-9 7 3 14 0 14 -6 0 -6 6 -8 14 -5 25 9 6 40 -37 60 -23 10 -45 20 -48 22 -4
2 -9 -9 -11 -23z"/>
<path d="M3169 8623 c-13 -16 -12 -17 4 -4 9 7 17 15 17 17 0 8 -8 3 -21 -13z"/>
<path d="M3095 8620 c-4 -6 -15 -8 -25 -5 -10 3 -21 1 -25 -5 -4 -6 -13 -9
-21 -6 -20 7 -45 -4 -37 -17 3 -5 2 -7 -4 -4 -13 8 -114 -33 -129 -52 -9 -12
-7 -19 10 -33 18 -15 18 -17 4 -18 -25 0 -68 22 -62 31 7 12 0 11 -31 -3 -26
-12 -36 -34 -11 -25 8 3 17 -1 20 -9 4 -11 13 -13 27 -9 18 6 21 4 15 -10 -5
-15 -4 -16 8 -6 10 8 16 9 21 1 9 -15 35 -12 29 3 -3 8 12 28 32 45 21 18 35
35 32 38 -3 3 -15 -4 -26 -16 -22 -23 -45 -19 -40 7 3 16 10 18 71 27 16 3 34
9 41 15 7 6 22 9 34 6 12 -2 22 0 22 6 0 5 6 9 13 9 8 0 22 9 32 20 10 11 15
20 12 20 -3 0 -9 -5 -12 -10z"/>
<path d="M5646 8621 c-6 -10 33 -23 46 -15 4 3 8 9 8 15 0 12 -47 12 -54 0z"/>
<path d="M5860 8600 c0 -5 7 -10 15 -10 8 0 15 5 15 10 0 6 -7 10 -15 10 -8 0
-15 -4 -15 -10z"/>
<path d="M5956 8603 c-4 -5 -16 -8 -27 -8 -10 0 -18 -4 -16 -10 2 -11 20 -12
60 -2 21 6 27 4 27 -8 0 -13 4 -14 22 -4 l21 12 -24 13 c-27 15 -52 18 -63 7z"/>
<path d="M3160 8570 c0 -5 -7 -7 -15 -4 -8 4 -15 2 -15 -3 0 -6 -15 -10 -33
-11 -33 -1 -104 -31 -79 -33 36 -3 51 -1 99 16 47 17 79 45 53 45 -6 0 -10 -4
-10 -10z"/>
<path d="M6055 8570 c3 -5 14 -10 23 -10 15 0 15 2 2 10 -20 13 -33 13 -25 0z"/>
<path d="M5846 8563 c-15 -4 -5 -12 38 -30 48 -20 60 -22 74 -11 13 11 15 10
9 -5 -6 -15 -4 -16 13 -7 16 8 20 8 18 -2 -3 -13 22 -13 52 -1 21 9 27 10 53
13 21 2 21 2 -3 9 -14 4 -36 3 -48 -3 -19 -8 -26 -7 -34 7 -5 10 -14 15 -19
11 -5 -3 -8 0 -7 8 4 17 -37 22 -53 6 -13 -15 -73 -12 -63 3 5 9 1 10 -30 2z"/>
<path d="M2825 8530 c-3 -6 1 -7 9 -4 18 7 21 14 7 14 -6 0 -13 -4 -16 -10z"/>
<path d="M6130 8525 c0 -14 12 -20 33 -16 5 1 7 -4 5 -11 -3 -7 -16 -12 -30
-10 -15 2 -29 -2 -34 -9 -4 -7 -3 -10 4 -5 6 3 22 2 35 -3 18 -7 27 -6 30 2 3
7 22 12 43 12 33 0 39 -3 36 -20 -2 -12 0 -16 5 -9 12 15 54 -8 44 -25 -4 -6
-12 -11 -17 -10 -5 1 -17 1 -26 0 -22 -1 -24 -21 -3 -21 8 0 15 -5 15 -12 0
-6 3 -8 7 -5 3 4 13 1 21 -6 13 -10 14 -8 9 15 -4 15 -3 30 3 33 13 8 52 -4
45 -15 -9 -14 20 -18 38 -5 14 10 -1 20 -111 73 -136 66 -152 71 -152 47z"/>
<path d="M2933 8475 c0 -7 6 -11 14 -8 7 3 13 6 13 8 0 2 -6 5 -13 8 -8 3 -14
-1 -14 -8z"/>
<path d="M6060 8470 c0 -6 14 -13 30 -17 17 -3 33 -10 36 -14 7 -11 24 -12 24
-1 0 8 -68 42 -83 42 -4 0 -7 -5 -7 -10z"/>
<path d="M2680 8460 c-10 -6 -8 -13 9 -31 14 -16 24 -20 29 -13 4 7 15 8 27 3
16 -6 16 -8 3 -8 -11 -1 -15 -7 -11 -22 6 -20 7 -20 18 -5 7 9 23 16 36 17 16
0 19 3 9 6 -8 4 -19 12 -25 19 -15 19 -81 43 -95 34z"/>
<path d="M2580 8410 c-41 -22 -74 -44 -72 -51 2 -7 -4 -9 -12 -6 -9 4 -22 -1
-30 -9 -9 -8 -19 -14 -23 -14 -4 1 -9 -4 -12 -11 -2 -7 1 -9 9 -4 8 5 11 3 8
-6 -3 -9 -17 -13 -39 -12 -19 1 -28 0 -21 -3 20 -9 14 -26 -8 -19 -11 3 -20 3
-20 -2 0 -5 12 -10 27 -11 15 -1 29 -6 32 -11 17 -25 47 -27 82 -7 20 12 34
27 32 34 -7 19 -33 14 -41 -9 -8 -20 -8 -20 -26 0 -17 18 -17 20 5 45 12 14
26 23 31 20 4 -3 8 -1 8 5 0 5 9 9 20 8 20 -1 29 -17 10 -17 -18 0 -11 -19 11
-31 17 -9 20 -8 13 3 -6 11 -5 11 9 -1 15 -11 17 -11 17 2 0 8 -7 20 -15 27
-19 16 -9 33 16 27 22 -6 23 -3 9 23 -8 15 -4 20 20 30 15 6 31 18 34 26 3 8
4 14 3 13 -1 0 -36 -18 -77 -39z m-26 -39 c7 -11 -14 -20 -32 -13 -11 4 -11 6
0 13 17 11 26 11 32 0z"/>
<path d="M6185 8440 c3 -5 12 -10 20 -10 8 0 17 5 20 10 4 6 -5 10 -20 10 -15
0 -24 -4 -20 -10z"/>
<path d="M2833 8433 c-21 -8 -15 -22 7 -16 11 3 20 9 20 14 0 10 -8 10 -27 2z"/>
<path d="M2662 8420 c2 -9 -3 -14 -11 -12 -12 3 -12 0 -2 -12 7 -9 18 -13 23
-10 5 4 8 -1 6 -11 -4 -22 -72 -47 -87 -32 -6 6 -13 8 -16 5 -3 -3 5 -12 19
-21 23 -15 27 -15 81 13 l57 29 -30 18 c-16 10 -29 22 -30 26 0 5 -3 12 -7 15
-4 4 -5 0 -3 -8z"/>
<path d="M6423 8380 c1 -14 9 -20 27 -21 20 -1 21 -2 5 -6 -11 -3 -25 -12 -32
-20 -6 -8 -16 -12 -22 -9 -5 4 -12 2 -16 -3 -3 -6 3 -15 14 -20 26 -14 31 -14
31 3 0 19 22 35 60 43 24 4 31 3 26 -5 -8 -13 6 -17 17 -5 10 9 -52 45 -65 37
-6 -4 -8 -3 -5 3 4 6 0 14 -9 17 -26 10 -33 7 -31 -14z"/>
<path d="M6376 8355 c-11 -14 -24 -22 -34 -19 -13 4 -12 3 2 -6 15 -10 22 -8
43 13 14 13 21 27 16 30 -5 3 -17 -5 -27 -18z"/>
<path d="M6547 8316 c-25 -19 -21 -29 9 -22 15 4 23 3 20 -3 -3 -5 6 -14 21
-19 18 -7 22 -11 11 -11 -24 -1 -23 -21 1 -21 11 0 23 -9 26 -20 4 -11 15 -20
27 -20 14 0 18 5 14 16 -5 12 -2 15 9 10 10 -3 13 -2 10 5 -4 5 -15 7 -26 4
-17 -6 -19 -3 -14 17 5 19 -2 27 -42 50 -41 22 -51 24 -66 14z m63 -26 c0 -5
-4 -10 -10 -10 -5 0 -10 5 -10 10 0 6 5 10 10 10 6 0 10 -4 10 -10z m40 -30
c0 -5 -2 -10 -4 -10 -3 0 -8 5 -11 10 -3 6 -1 10 4 10 6 0 11 -4 11 -10z"/>
<path d="M6500 8284 c0 -13 31 -35 41 -29 6 5 4 12 -8 21 -19 14 -33 18 -33 8z"/>
<path d="M2314 8253 c10 -11 36 -12 36 -2 0 5 -10 9 -22 9 -12 0 -18 -3 -14
-7z"/>
<path d="M2273 8233 c-21 -8 -15 -23 10 -22 12 0 16 3 9 6 -6 2 -10 9 -6 14 6
10 5 10 -13 2z"/>
<path d="M2370 8232 c0 -5 9 -17 20 -27 15 -13 24 -15 31 -8 8 8 3 16 -20 27
-17 9 -31 13 -31 8z"/>
<path d="M6540 8232 c0 -10 167 -116 175 -111 3 2 11 -4 16 -13 12 -21 31 -24
23 -4 -3 7 -16 18 -30 24 -13 7 -24 18 -24 27 0 8 -5 15 -11 15 -8 0 -7 6 2
18 13 15 12 16 -3 3 -10 -7 -15 -17 -12 -22 10 -17 -15 -9 -33 10 -10 10 -30
21 -45 25 -19 4 -26 11 -22 21 4 10 0 15 -15 15 -12 0 -21 -3 -21 -8z"/>
<path d="M2316 8209 c3 -5 0 -9 -7 -9 -8 0 -8 -4 1 -15 7 -8 17 -12 22 -9 6 4
13 1 17 -5 5 -8 13 -6 27 5 10 8 13 13 7 9 -7 -3 -13 -2 -13 2 0 5 -14 14 -30
20 -17 6 -28 7 -24 2z"/>
<path d="M6716 8195 c-15 -23 -14 -29 7 -26 4 0 7 -3 7 -8 0 -6 9 -9 20 -8 19
1 19 2 -2 24 -23 25 -18 44 7 23 8 -7 15 -8 15 -2 0 8 -22 22 -35 22 -1 0 -10
-11 -19 -25z"/>
<path d="M2199 8173 c-13 -14 -18 -23 -11 -19 7 4 19 2 27 -4 8 -7 20 -8 27
-4 7 5 21 7 31 6 9 -2 17 2 17 7 0 6 -6 11 -14 11 -8 0 -16 7 -20 15 -8 23
-30 18 -57 -12z m41 -3 c0 -5 -2 -10 -4 -10 -3 0 -8 5 -11 10 -3 6 -1 10 4 10
6 0 11 -4 11 -10z"/>
<path d="M6790 8156 c0 -8 -6 -17 -12 -20 -7 -3 2 -3 20 0 29 4 32 2 32 -21 0
-26 14 -33 26 -14 3 6 17 8 33 4 22 -6 19 -1 -19 29 -47 37 -80 46 -80 22z
m70 -36 c0 -5 -4 -10 -10 -10 -5 0 -10 5 -10 10 0 6 5 10 10 10 6 0 10 -4 10
-10z"/>
<path d="M2137 8136 c-18 -14 -13 -24 11 -20 6 1 16 2 22 3 10 1 2 31 -9 31
-3 0 -14 -7 -24 -14z"/>
<path d="M2240 8131 c0 -5 -9 -7 -20 -4 -11 3 -20 1 -20 -5 0 -13 44 -24 48
-12 2 6 7 8 12 5 5 -3 21 0 37 6 16 7 23 13 15 16 -7 3 -19 0 -26 -7 -10 -7
-16 -8 -21 0 -8 12 -25 13 -25 1z"/>
<path d="M2066 8085 c-22 -19 -36 -38 -31 -42 4 -5 10 -3 12 4 2 7 11 9 19 6
8 -3 14 0 14 6 0 6 5 10 11 9 17 -4 36 29 24 41 -7 7 -23 -1 -49 -24z"/>
<path d="M2170 8087 c0 -6 5 -19 10 -27 8 -13 11 -13 25 1 14 14 13 16 -10 27
-19 9 -25 9 -25 -1z"/>
<path d="M6875 8081 c-11 -5 -23 -7 -27 -5 -14 9 -17 -14 -3 -26 8 -7 15 -19
15 -28 0 -10 9 -6 28 14 16 16 27 35 24 42 -5 14 -9 14 -37 3z"/>
<path d="M6793 8063 c9 -9 19 -14 23 -11 10 10 -6 28 -24 28 -15 0 -15 -1 1
-17z"/>
<path d="M2125 8043 c3 -31 15 -43 15 -14 0 12 4 19 10 16 6 -3 10 -2 10 3 0
5 -9 12 -19 15 -15 4 -18 0 -16 -20z"/>
<path d="M6948 8053 c-10 -2 -18 -11 -18 -19 0 -12 4 -12 21 -2 18 11 23 10
39 -10 11 -13 24 -21 30 -17 5 3 7 0 4 -8 -3 -10 4 -17 22 -21 22 -6 25 -9 13
-17 -13 -8 -6 -13 14 -10 5 1 7 -4 5 -11 -3 -7 -14 -14 -26 -16 -12 -2 -22 -9
-23 -15 -1 -7 -4 -1 -8 13 -4 14 -3 31 2 38 12 16 -14 17 -31 0 -9 -9 -13 -7
-19 8 -11 29 -32 47 -48 40 -22 -8 -18 -26 6 -26 14 0 19 -5 16 -14 -3 -8 1
-13 11 -12 9 0 22 -10 29 -24 7 -14 13 -21 13 -16 0 5 9 -3 21 -18 22 -29 39
-34 39 -12 0 11 20 26 33 26 1 0 3 -11 3 -25 1 -14 -2 -22 -7 -19 -5 3 -9 1
-9 -4 0 -16 13 -22 25 -12 9 8 14 5 18 -11 4 -16 2 -19 -11 -14 -14 5 -15 4
-4 -7 10 -10 17 -10 31 -1 16 10 21 8 32 -15 14 -25 45 -62 53 -62 6 0 2 23
-7 37 -4 6 -3 14 2 17 5 3 12 -1 15 -10 3 -8 10 -12 16 -9 19 12 10 24 -25 31
-21 4 -35 12 -35 21 0 8 -4 12 -8 9 -5 -3 -16 6 -26 20 -11 13 -27 24 -37 24
-21 0 -25 15 -8 25 5 4 18 0 28 -9 17 -16 41 -22 41 -10 0 6 -61 59 -69 59 -3
1 -26 20 -50 42 -25 23 -48 40 -52 37 -5 -2 -13 5 -19 16 -11 20 -12 21 -42
13z"/>
<path d="M2011 8025 c-4 -5 -11 -18 -14 -28 -4 -9 -15 -20 -24 -24 -10 -4 -22
-12 -28 -18 -16 -20 -45 -26 -38 -10 3 8 10 12 16 8 6 -4 7 -1 3 6 -6 9 -13 9
-29 -2 -34 -22 -34 -41 -1 -34 16 3 36 1 45 -4 14 -7 16 -5 11 13 -3 14 -1 19
6 14 7 -4 12 -2 12 3 0 6 15 11 33 11 24 0 28 3 17 10 -13 8 -12 10 3 10 9 0
17 -4 17 -9 0 -5 7 -11 14 -14 10 -4 13 -1 9 9 -3 8 -2 14 3 13 29 -5 33 2 14
23 -11 12 -20 24 -20 28 0 10 -41 6 -49 -5z"/>
<path d="M1948 7999 c-10 -5 -18 -15 -18 -21 0 -6 8 -4 18 5 10 10 22 14 27
10 4 -5 5 -2 1 5 -8 14 -6 14 -28 1z"/>
<path d="M2001 7931 c-35 -34 -40 -47 -13 -32 39 23 64 48 54 55 -6 3 -25 -7
-41 -23z"/>
<path d="M1797 7874 c-29 -28 -36 -41 -33 -62 5 -25 4 -26 -9 -8 -14 19 -15
19 -35 1 -11 -10 -16 -21 -12 -24 5 -3 12 -17 16 -31 5 -18 5 -21 -3 -10 -5 8
-13 11 -17 7 -4 -3 -1 -13 5 -21 8 -10 9 -16 1 -21 -6 -3 -7 -11 -4 -17 5 -7
1 -9 -9 -5 -11 4 -23 -4 -38 -24 -16 -23 -26 -28 -42 -23 -20 6 -20 5 -8 -10
12 -14 12 -19 1 -29 -10 -10 -11 -9 -5 2 6 11 4 13 -8 8 -22 -8 -41 25 -25 41
7 7 17 12 24 12 6 0 17 6 23 14 9 10 8 15 -2 19 -8 3 -30 -11 -51 -32 -39 -40
-44 -51 -21 -51 25 0 17 -14 -15 -28 -16 -8 -30 -20 -30 -28 0 -16 -16 -19
-25 -3 -4 6 -22 -7 -43 -32 -38 -44 -46 -85 -22 -114 11 -13 10 -15 -4 -9 -12
5 -15 2 -10 -10 9 -23 49 -14 48 11 -1 11 8 26 19 32 18 12 19 11 13 -6 -3
-10 4 -6 19 12 26 31 32 55 15 55 -5 0 -10 -6 -10 -12 0 -10 -3 -9 -9 1 -6 9
-11 10 -15 2 -4 -6 -11 -9 -15 -7 -4 3 -7 -4 -7 -16 1 -12 -5 -23 -13 -26 -10
-3 -12 0 -8 12 4 10 2 26 -3 37 -8 15 -8 19 2 17 7 -2 12 3 10 11 -3 13 -1 13
56 -4 9 -3 25 0 36 8 17 12 17 15 2 30 -10 9 -12 18 -6 22 5 3 10 1 10 -5 0
-6 10 -14 23 -19 28 -11 42 8 19 26 -9 7 -12 13 -6 13 5 0 15 -5 22 -12 10
-10 19 -5 45 21 29 30 30 32 8 26 -16 -5 -21 -4 -17 4 4 6 14 11 22 11 8 0 14
4 14 10 0 6 3 9 8 9 20 -3 32 2 32 16 0 8 5 15 11 15 5 0 8 4 5 8 -3 5 5 8 17
8 16 -1 23 6 25 23 2 13 12 26 23 28 10 3 19 10 19 15 0 5 5 6 11 2 7 -4 10
-1 7 7 -3 8 -13 14 -23 14 -10 0 -20 6 -23 14 -3 8 0 11 7 7 6 -4 11 -1 11 8
0 8 -6 16 -12 19 -10 3 -10 7 1 20 17 22 29 22 27 1 0 -9 5 -19 13 -22 10 -3
12 0 8 12 -4 9 -1 16 6 16 9 0 9 2 0 8 -7 4 -9 13 -4 21 7 10 9 9 14 -3 9 -22
47 -21 47 2 0 14 4 12 20 -8 13 -18 22 -22 30 -14 7 7 5 16 -10 29 -18 16 -24
17 -42 6 -15 -9 -23 -10 -31 -2 -17 17 -30 13 -70 -25z m-27 -118 c0 -3 -7 -6
-15 -6 -16 0 -36 39 -28 53 4 7 43 -35 43 -47z"/>
<path d="M7196 7865 c4 -8 11 -15 16 -15 6 0 5 6 -2 15 -7 8 -14 15 -16 15 -2
0 -1 -7 2 -15z"/>
<path d="M1875 7836 c-28 -30 -25 -36 9 -19 20 9 33 19 31 22 -10 10 -30 8
-40 -3z"/>
<path d="M1820 7806 c0 -2 8 -10 18 -17 15 -13 16 -12 3 4 -13 16 -21 21 -21
13z"/>
<path d="M1661 7751 c-9 -16 -8 -18 9 -14 11 3 20 12 20 19 0 20 -18 17 -29
-5z"/>
<path d="M7265 7760 c3 -5 13 -10 21 -10 8 0 14 5 14 10 0 6 -9 10 -21 10 -11
0 -17 -4 -14 -10z"/>
<path d="M7312 7748 c-19 -19 -14 -31 13 -26 23 5 30 -2 26 -24 0 -5 6 -8 14
-8 14 0 20 -12 16 -34 -1 -5 5 -6 13 -3 16 6 44 -16 63 -50 20 -35 -12 -37
-49 -3 -33 31 -55 40 -42 18 4 -7 -2 -4 -14 6 -14 12 -22 15 -22 7 0 -20 43
-51 63 -45 11 4 17 0 17 -11 0 -9 -4 -13 -10 -10 -18 11 -11 -3 16 -32 l26
-28 -6 30 c-3 17 -3 24 0 17 4 -9 12 -5 29 13 20 24 23 25 29 9 4 -11 2 -20
-3 -22 -6 -2 -11 -8 -11 -14 0 -6 9 -3 19 6 12 11 21 14 26 7 3 -6 11 -11 18
-11 6 0 -26 38 -72 84 -47 47 -88 83 -93 80 -5 -3 -7 0 -6 7 2 7 -7 18 -19 24
-13 7 -20 15 -16 18 3 4 2 7 -3 7 -6 0 -15 -5 -22 -12z"/>
<path d="M1670 7722 c0 -5 7 -9 15 -9 8 0 15 4 15 9 0 4 -7 8 -15 8 -8 0 -15
-4 -15 -8z"/>
<path d="M7240 7700 c32 -27 36 -28 49 -12 12 15 12 15 6 -5 -3 -13 -2 -23 4
-23 5 0 16 -3 24 -6 8 -3 17 2 21 11 4 11 -2 19 -18 25 -13 5 -27 14 -31 19
-4 8 -12 8 -25 1 -13 -7 -19 -6 -24 5 -3 8 -13 15 -23 15 -13 0 -9 -8 17 -30z"/>
<path d="M1630 7711 c0 -6 5 -13 10 -16 6 -4 1 -14 -12 -25 -19 -16 -20 -19
-6 -20 20 0 42 35 34 56 -6 16 -26 19 -26 5z"/>
<path d="M7510 7511 c0 -16 -4 -21 -14 -18 -8 3 -17 -1 -20 -9 -3 -7 0 -13 7
-11 7 1 11 -3 10 -9 -1 -6 5 -11 13 -11 9 0 13 6 9 15 -3 8 -1 20 4 26 6 7 6
17 1 26 -8 12 -10 10 -10 -9z"/>
<path d="M1549 7503 c-13 -16 -12 -17 4 -4 9 7 17 15 17 17 0 8 -8 3 -21 -13z"/>
<path d="M7450 7499 c0 -5 5 -7 10 -4 6 3 10 8 10 11 0 2 -4 4 -10 4 -5 0 -10
-5 -10 -11z"/>
<path d="M7574 7479 c-3 -6 -2 -14 3 -18 6 -3 15 -16 22 -28 16 -30 31 -29 31
2 0 14 -3 24 -7 24 -23 -4 -35 3 -29 16 6 17 -9 20 -20 4z"/>
<path d="M7532 7440 c-14 -37 4 -52 18 -15 12 33 13 45 1 45 -5 0 -14 -13 -19
-30z"/>
<path d="M1335 7413 c-16 -21 -30 -45 -30 -53 0 -8 -5 -15 -12 -15 -20 0 -26
-13 -19 -47 4 -23 15 -37 33 -46 20 -9 24 -9 15 0 -14 14 -16 32 -3 24 5 -3
11 0 14 7 3 8 -7 18 -24 26 -16 7 -29 17 -29 23 0 6 10 3 21 -8 21 -19 22 -19
15 4 -6 17 -3 22 11 23 10 0 13 3 6 6 -7 2 -13 11 -13 19 0 12 4 12 20 2 25
-16 34 -39 19 -48 -6 -5 -3 -9 10 -13 15 -4 25 1 33 16 10 20 10 21 -7 7 -16
-14 -17 -13 -11 5 3 12 0 40 -7 63 l-12 42 -30 -37z"/>
<path d="M3593 7405 c-57 -17 -128 -64 -180 -117 -96 -99 -113 -220 -54 -383
45 -124 51 -151 37 -171 -11 -14 -18 -14 -52 -4 -36 11 -45 10 -85 -10 -77
-39 -98 -59 -110 -103 -21 -79 -31 -96 -63 -111 -38 -18 -110 -35 -149 -36
-38 0 -277 -202 -277 -234 0 -11 -12 -48 -25 -81 -37 -90 -34 -153 16 -299 56
-166 112 -280 166 -337 44 -47 45 -49 33 -84 -7 -21 -9 -53 -5 -78 9 -57 181
-383 275 -521 82 -121 107 -140 210 -161 48 -9 56 -14 60 -38 8 -43 201 -197
327 -261 39 -19 67 -26 111 -26 32 0 65 -6 74 -12 8 -7 29 -38 47 -69 41 -74
41 -132 1 -362 -56 -320 -69 -382 -113 -522 -25 -77 -48 -167 -51 -200 -4 -39
-22 -94 -52 -160 -28 -61 -57 -149 -75 -224 -36 -153 -52 -188 -129 -275 -34
-38 -66 -80 -71 -93 -32 -84 -143 -497 -159 -590 -11 -62 -26 -129 -35 -149
-17 -42 -19 -64 -5 -64 6 0 10 7 10 15 0 8 5 15 11 15 7 0 10 -27 8 -80 -2
-53 1 -84 9 -92 7 -7 12 -19 12 -28 0 -13 -1 -13 -10 0 -7 11 -8 6 -4 -17 3
-17 2 -39 -4 -49 -6 -11 -6 -27 -1 -43 6 -15 6 -46 1 -73 -8 -40 -7 -47 8 -51
18 -5 24 20 9 38 -4 6 -4 29 1 50 5 22 7 48 4 58 -3 9 -1 17 4 17 12 0 23 -94
11 -98 -16 -6 -10 -30 12 -51 12 -11 19 -28 17 -42 -2 -18 2 -24 14 -23 15 1
15 -2 -2 -47 -12 -29 -16 -51 -10 -54 10 -6 12 -5 14 18 1 14 36 21 52 10 28
-20 83 -107 75 -117 -5 -6 -11 -20 -13 -31 -2 -16 3 -19 32 -20 33 -1 93 -26
104 -43 2 -4 -11 -6 -30 -4 -19 2 -34 0 -34 -6 0 -6 -8 -13 -17 -15 -11 -3 -7
-6 12 -7 17 -2 35 -4 40 -5 6 -2 15 -4 20 -5 6 -1 20 -1 33 0 28 2 28 -8 0
-20 -16 -6 14 -9 95 -9 65 -1 116 2 114 7 -3 4 23 6 56 5 59 -2 60 -2 33 11
-29 13 -29 13 -5 17 32 6 61 0 54 -12 -4 -5 -1 -9 4 -9 6 0 11 6 11 13 0 8 4
7 11 -3 7 -11 12 -12 15 -3 3 7 12 9 20 6 8 -3 14 0 14 6 0 6 14 10 31 9 20
-2 34 2 37 11 3 11 -3 12 -29 7 -92 -17 -129 -18 -129 -3 0 8 -7 20 -15 27
-12 10 -16 9 -21 -4 -3 -9 -12 -16 -20 -16 -23 0 -15 14 23 38 33 21 38 22 49
8 23 -32 64 -8 43 25 -6 10 -9 10 -9 2 0 -7 -7 -13 -15 -13 -25 0 -17 14 21
38 26 17 45 22 65 18 22 -4 29 -2 29 9 0 8 5 15 10 15 6 0 10 -8 10 -17 0 -16
1 -16 16 -1 15 15 15 19 0 48 -13 27 -13 30 0 19 13 -10 14 -7 8 29 -6 36 -4
42 11 42 9 0 19 9 22 20 7 28 23 25 23 -5 0 -14 -5 -25 -12 -25 -6 0 -8 -3 -5
-6 4 -4 13 -1 22 6 16 13 21 60 6 60 -5 0 -11 14 -15 31 -3 17 -10 28 -15 24
-14 -8 -25 15 -13 27 6 6 12 6 16 -1 15 -23 31 -10 32 25 0 29 -3 35 -17 31
-25 -7 -56 23 -54 51 1 18 -2 22 -16 19 -12 -3 -16 0 -12 9 3 9 -2 14 -17 14
-15 0 -20 -4 -17 -15 9 -22 -8 -26 -29 -7 -10 10 -27 21 -37 25 -10 4 -17 12
-16 19 4 32 -1 39 -23 33 -18 -5 -20 -4 -8 4 13 10 8 15 -12 12 -5 0 -8 16 -8
37 0 27 -6 45 -22 58 -12 10 -18 13 -13 5 11 -19 15 -91 5 -91 -5 0 -12 10
-16 23 -4 12 -11 25 -16 28 -11 7 -13 33 -4 84 5 31 4 35 -3 17 -13 -27 -27
-28 -34 -2 -3 13 0 20 10 20 8 0 17 9 20 20 3 11 12 20 19 20 8 0 14 7 14 15
0 8 -7 15 -15 15 -12 0 -15 16 -17 78 -3 115 -4 127 -10 138 -9 13 27 54 47
54 15 0 15 -1 1 -16 -9 -8 -16 -29 -16 -45 0 -36 15 -31 25 8 3 15 12 31 18
36 9 5 7 11 -6 21 -10 8 -15 20 -11 30 7 19 9 19 34 6 12 -6 21 -7 25 0 3 5
12 7 20 3 12 -4 15 4 15 34 0 22 -3 42 -6 45 -11 12 -14 147 -2 154 7 5 8 2 3
-7 -5 -8 -4 -11 0 -6 14 12 17 57 5 57 -7 0 -9 24 -4 72 6 78 16 100 36 80 20
-20 31 -15 91 39 31 28 54 43 51 35 -3 -9 -2 -16 4 -16 15 0 21 22 15 55 -6
27 -5 28 26 22 30 -6 45 6 19 16 -7 2 -9 8 -5 13 5 5 13 1 18 -9 11 -19 39
-24 39 -6 0 5 -4 7 -10 4 -6 -3 -10 1 -10 9 0 9 -7 16 -15 16 -19 0 -19 14 -1
29 9 8 21 8 40 1 18 -6 26 -6 26 1 0 6 4 8 8 5 5 -3 8 4 7 14 -1 23 -15 40
-15 20 0 -11 -5 -10 -17 4 -17 17 -17 18 10 40 20 16 26 27 21 41 -5 13 -4 16
4 11 7 -4 12 -1 12 8 0 8 9 20 20 26 11 6 20 21 20 34 0 31 27 96 40 96 6 0
10 9 10 21 0 12 5 19 13 16 6 -2 20 10 29 27 15 27 17 28 18 9 0 -25 11 -35
27 -25 13 8 18 41 10 62 -22 59 -13 83 32 83 17 0 31 4 31 9 0 4 -5 8 -11 8
-17 0 -39 27 -39 47 1 17 2 17 15 -1 13 -17 15 -18 15 -3 0 9 4 17 9 17 5 0 7
9 4 21 -3 11 0 32 8 45 11 20 11 27 0 33 -10 7 -10 18 2 57 8 27 17 48 21 47
16 -7 17 -2 5 14 -12 14 -12 16 1 11 11 -4 16 0 16 13 0 13 -4 15 -12 8 -19
-16 -25 5 -15 53 6 24 13 79 17 123 9 114 62 457 71 465 11 10 711 96 718 88
13 -12 -26 -232 -43 -250 -9 -9 -70 -44 -134 -79 -65 -34 -118 -67 -118 -73 0
-6 5 -5 12 2 17 17 29 15 22 -3 -11 -28 15 -15 42 20 14 19 33 35 40 35 8 0
14 5 14 10 0 6 12 2 27 -7 15 -10 29 -16 32 -13 2 3 5 -4 6 -15 1 -11 5 -37 9
-57 4 -25 3 -38 -4 -38 -6 0 -9 -10 -7 -22 2 -13 -1 -8 -6 10 -11 34 -24 41
-33 17 -4 -8 -13 -15 -22 -15 -8 0 -12 -3 -8 -7 7 -8 12 -9 39 -12 7 0 14 -13
15 -28 1 -23 0 -25 -9 -13 -8 12 -9 10 -4 -10 11 -44 16 -107 7 -86 -5 11 -11
15 -14 10 -7 -12 -2 -189 6 -202 3 -5 2 -41 -2 -78 -11 -103 -9 -157 7 -162
14 -5 12 34 -4 87 -6 18 -5 23 6 19 16 -5 47 -89 48 -131 1 -15 8 -30 16 -33
17 -7 15 -35 -5 -59 -12 -14 -12 -18 1 -26 12 -7 12 -10 0 -18 -10 -6 -11 -19
-5 -52 11 -63 11 -63 1 -77 -14 -17 11 -62 30 -55 20 8 52 -25 46 -47 -3 -11
-8 -18 -12 -16 -3 2 -6 -13 -6 -35 0 -44 11 -49 60 -23 18 9 25 10 18 3 -18
-18 -16 -46 3 -53 10 -4 13 -13 9 -28 -6 -22 -5 -22 17 3 13 14 29 24 35 22 5
-2 40 10 76 27 36 16 72 30 80 30 9 0 18 6 20 13 4 9 6 9 6 0 1 -6 -3 -15 -9
-18 -5 -3 -10 -11 -10 -16 0 -6 4 -8 9 -4 5 3 12 1 16 -5 10 -15 85 -13 79 3
-2 7 -16 14 -30 15 -16 1 -23 -2 -18 -9 4 -7 1 -10 -7 -7 -12 4 -15 14 -10 48
0 5 19 14 42 20 23 7 39 16 36 23 -4 13 49 57 70 57 7 0 13 5 13 11 0 8 5 8
15 -1 8 -7 13 -16 10 -20 -8 -13 24 -20 47 -10 21 8 22 9 3 10 -17 2 -16 3 5
9 21 6 25 13 26 44 1 36 33 76 62 77 6 0 12 5 12 10 0 6 11 10 25 10 19 0 23
-4 18 -17 -6 -16 -5 -16 11 -4 9 8 14 21 11 29 -10 28 7 33 32 8 13 -13 23
-26 21 -28 -2 -2 5 -17 16 -33 10 -15 22 -40 26 -54 l8 -26 1 25 c1 15 -4 31
-10 37 -7 7 -12 32 -12 57 0 26 -6 51 -13 57 -15 12 -9 33 7 24 5 -4 12 1 15
9 12 30 23 16 30 -36 5 -38 9 -47 14 -33 4 11 6 23 3 27 -2 4 8 25 23 47 14
22 23 44 20 50 -4 5 8 24 25 43 36 39 49 68 49 111 0 22 3 28 9 18 7 -10 15
-7 41 15 45 41 53 59 33 75 -14 13 -16 11 -11 -14 4 -23 2 -27 -12 -22 -12 4
-24 -2 -34 -17 -14 -20 -18 -21 -26 -8 -12 19 -13 37 -1 45 5 3 11 -3 14 -12
3 -14 6 -12 15 10 7 15 18 30 27 33 11 5 12 11 4 25 -5 11 -15 16 -21 13 -7
-5 -9 -2 -5 9 3 9 2 19 -2 22 -13 8 -21 -21 -9 -33 7 -7 7 -16 0 -27 -6 -12
-11 -14 -16 -6 -10 16 -26 14 -26 -4 0 -19 -17 -19 -35 -2 -11 12 -10 17 7 31
29 26 10 42 -33 27 -44 -15 -57 -14 -33 3 18 14 18 15 -8 21 -20 5 -33 1 -49
-14 -26 -24 -79 -31 -60 -8 16 20 3 27 -47 27 -38 0 -43 -2 -32 -15 7 -8 21
-15 31 -15 11 0 19 -5 19 -11 0 -7 -12 -9 -31 -7 -22 4 -33 0 -40 -14 -10 -19
-54 -25 -64 -8 -3 6 3 10 14 10 11 0 23 5 26 10 3 5 -3 10 -14 10 -12 0 -21 7
-21 15 0 17 -11 20 -26 5 -22 -22 -36 8 -36 75 -1 68 -1 68 -18 44 l-18 -23
-20 24 c-11 14 -17 29 -14 35 4 5 8 2 10 -7 7 -37 27 -17 29 30 2 33 -1 43 -7
32 -8 -12 -10 -10 -10 8 0 13 4 21 8 18 13 -8 35 11 39 33 3 25 -16 39 -28 20
-5 -8 -9 -9 -9 -3 0 6 9 19 20 29 19 17 29 62 11 51 -4 -3 -16 1 -27 8 -15 12
-16 16 -5 29 7 9 19 13 27 10 8 -3 14 1 14 11 0 9 -4 16 -10 16 -5 0 -10 6
-10 13 0 8 15 12 43 12 l42 0 3 55 c2 30 5 83 8 117 4 37 1 70 -6 82 -9 18 -8
21 10 21 11 0 20 5 20 10 0 6 12 4 29 -4 26 -14 41 -12 41 4 0 14 -61 20 -82
9 -14 -8 -23 -8 -31 0 -6 6 -19 11 -29 11 -23 0 -24 48 -2 202 22 161 17 249
-21 323 -26 51 -38 63 -85 87 -49 24 -78 29 -275 47 -121 11 -321 27 -445 36
-124 9 -259 19 -300 23 l-74 7 -27 70 c-39 100 -39 102 26 107 61 5 121 40
159 91 18 25 21 42 20 125 -1 108 -22 178 -74 251 -41 56 -72 74 -148 83 l-67
8 -85 92 c-47 51 -145 156 -219 233 -73 77 -145 157 -159 178 -13 20 -41 92
-61 159 -34 115 -38 123 -66 131 -18 5 -40 23 -53 44 -21 32 -22 36 -8 52 9
10 16 22 16 28 0 19 41 63 96 104 77 56 76 63 -30 252 -36 63 -37 69 -22 86
24 26 21 34 -29 80 -25 23 -45 45 -45 49 0 4 28 23 62 42 43 25 65 45 75 67
35 85 4 114 -104 94 -36 -7 -83 -21 -105 -32 l-39 -20 -47 31 c-25 17 -68 37
-96 45 -61 18 -166 18 -223 0z m2464 -3217 c-3 -8 -6 -5 -6 6 -1 11 2 17 5 13
3 -3 4 -12 1 -19z m9 -126 c-13 -13 -16 9 -9 59 l8 54 3 -54 c2 -29 1 -56 -2
-59z m-6 -22 c0 -5 -4 -10 -10 -10 -5 0 -10 5 -10 10 0 6 5 10 10 10 6 0 10
-4 10 -10z m10 -46 c0 -16 -16 -19 -25 -4 -8 13 4 32 16 25 5 -4 9 -13 9 -21z
m-661 -90 c-9 -65 -19 -83 -17 -30 1 20 -4 42 -9 47 -8 8 -6 16 5 30 24 28 30
15 21 -47z m561 -99 c0 -12 -20 6 -31 28 l-11 22 21 -22 c11 -12 21 -25 21
-28z m32 -277 c-2 -10 -8 -15 -13 -12 -14 8 -11 31 5 31 8 0 11 -8 8 -19z
m-17 -37 c3 -5 1 -12 -5 -16 -5 -3 -10 1 -10 9 0 18 6 21 15 7z m24 -50 c-15
-5 -22 6 -14 19 6 9 10 9 16 -1 5 -8 4 -15 -2 -18z m-1382 -153 c-3 -8 -6 -5
-6 6 -1 11 2 17 5 13 3 -3 4 -12 1 -19z m-56 -201 c-11 -11 -25 28 -15 45 5 7
10 3 16 -12 5 -14 5 -27 -1 -33z m1813 25 c10 -17 -12 -34 -35 -27 -22 7 -22
8 -4 21 21 16 32 17 39 6z m-924 -97 c0 -5 -5 -3 -10 5 -5 8 -10 20 -10 25 0
6 5 3 10 -5 5 -8 10 -19 10 -25z m-10 -45 c0 -5 -4 -10 -10 -10 -5 0 -10 5
-10 10 0 6 5 10 10 10 6 0 10 -4 10 -10z m600 -74 c0 -2 -7 -7 -16 -10 -8 -3
-12 -2 -9 4 6 10 25 14 25 6z m-540 -120 c0 -8 -7 -16 -15 -20 -17 -6 -18 -4
-9 18 8 20 24 21 24 2z m-1350 -236 c0 -5 -5 -10 -11 -10 -5 0 -7 5 -4 10 3 6
8 10 11 10 2 0 4 -4 4 -10z m-131 -442 c1 -10 -3 -18 -8 -18 -11 0 -21 51 -13
64 6 11 20 -20 21 -46z m1 -632 c0 -2 -7 -7 -16 -10 -8 -3 -12 -2 -9 4 6 10
25 14 25 6z m110 -406 c0 -5 -5 -10 -11 -10 -5 0 -7 5 -4 10 3 6 8 10 11 10 2
0 4 -4 4 -10z m-414 -205 c16 -8 22 -15 13 -15 -8 0 -24 7 -35 15 -25 19 -14
19 22 0z"/>
<path d="M7648 7409 c-3 -8 8 -27 23 -42 36 -35 40 -11 6 29 -18 20 -25 24
-29 13z"/>
<path d="M7550 7396 c0 -7 6 -19 14 -25 11 -9 15 -8 20 5 4 10 1 21 -6 26 -19
12 -28 10 -28 -6z"/>
<path d="M7606 7359 c-19 -19 -19 -19 10 -51 16 -18 34 -38 41 -45 6 -7 19
-13 28 -13 11 0 15 -5 11 -15 -8 -23 12 -18 24 6 9 16 9 20 -4 17 -14 -3 -16
0 -16 21 0 4 11 7 25 6 14 -2 28 2 32 7 4 7 1 8 -7 3 -10 -6 -12 -3 -7 11 7
18 6 18 -9 -1 -12 -14 -18 -16 -21 -7 -4 10 -8 10 -19 1 -8 -6 -11 -15 -8 -20
3 -5 -2 -9 -10 -9 -18 0 -21 21 -5 37 8 8 4 17 -15 34 -14 12 -23 26 -20 31
10 15 -11 7 -30 -13z m44 -49 c0 -5 -5 -10 -11 -10 -5 0 -7 5 -4 10 3 6 8 10
11 10 2 0 4 -4 4 -10z"/>
<path d="M1243 7305 c-3 -9 -3 -18 -1 -21 3 -3 8 4 11 16 6 23 -1 27 -10 5z"/>
<path d="M1204 7253 c-12 -20 -2 -63 15 -63 6 0 15 9 21 20 6 11 7 20 2 20 -5
0 -13 9 -18 20 -8 19 -10 19 -20 3z"/>
<path d="M7787 7262 c1 -2 -2 -15 -7 -28 -5 -13 -6 -24 -1 -24 5 0 11 -8 15
-17 3 -10 9 -25 12 -33 5 -13 4 -13 -6 0 -10 13 -11 12 -6 -3 3 -10 6 -23 6
-28 0 -17 18 -9 23 11 3 11 11 20 19 20 10 0 9 -3 -2 -10 -11 -7 -11 -10 -2
-10 7 0 18 -14 24 -31 7 -20 15 -28 25 -25 8 3 17 6 19 6 2 0 4 5 4 10 0 6
-12 15 -27 21 -18 7 -23 13 -15 18 14 8 -31 62 -63 75 -14 5 -16 9 -7 15 9 6
9 10 -1 22 -6 8 -11 13 -10 11z"/>
<path d="M1250 7189 c-16 -28 -8 -33 18 -11 12 11 19 22 15 26 -11 11 -22 6
-33 -15z"/>
<path d="M7749 7195 c-1 -6 -1 -13 0 -17 0 -5 -4 -8 -10 -8 -8 0 -7 -5 2 -16
12 -14 14 -13 21 7 5 13 5 26 -2 33 -6 6 -10 6 -11 1z"/>
<path d="M1140 7175 c-19 -22 4 -73 25 -55 15 12 14 62 -2 67 -6 2 -16 -3 -23
-12z m20 -15 c0 -5 -4 -10 -10 -10 -5 0 -10 5 -10 10 0 6 5 10 10 10 6 0 10
-4 10 -10z"/>
<path d="M1205 7140 c3 -18 0 -28 -6 -25 -5 4 -12 -7 -15 -23 -7 -32 -34 -39
-42 -10 -2 10 -9 18 -14 18 -6 0 -8 -6 -5 -12 16 -44 18 -60 8 -54 -6 4 -11
13 -11 21 0 7 -6 15 -14 18 -11 5 -13 -3 -11 -36 2 -23 4 -45 4 -48 2 -15 30
-17 35 -3 4 10 1 13 -7 8 -6 -3 2 7 19 22 34 32 104 118 104 127 0 4 -7 4 -15
1 -9 -4 -15 0 -15 10 0 9 -4 16 -9 16 -5 0 -8 -14 -6 -30z"/>
<path d="M1100 7115 c-7 -9 -11 -18 -8 -20 3 -3 11 1 18 10 7 9 11 18 8 20 -3
3 -11 -1 -18 -10z"/>
<path d="M7845 7090 c-4 -6 -2 -17 3 -22 8 -8 8 -17 1 -30 -8 -16 -6 -25 9
-41 10 -12 29 -39 41 -59 13 -21 27 -38 32 -38 5 0 8 -3 7 -7 -1 -5 4 -19 11
-32 l13 -24 20 32 c22 34 39 39 58 16 7 -8 9 -15 5 -15 -4 0 -1 -8 6 -17 8 -9
9 -14 3 -10 -14 8 -54 -29 -54 -50 0 -11 6 -8 21 11 19 24 58 38 44 16 -3 -5
-2 -10 4 -10 23 0 12 51 -19 80 -3 3 -11 17 -19 33 -10 19 -17 24 -22 15 -6
-9 -10 -8 -15 5 -8 21 -24 22 -24 1 0 -8 5 -12 10 -9 6 3 10 1 10 -5 0 -6 -6
-13 -14 -16 -8 -3 -12 -13 -10 -22 3 -9 -2 -6 -10 8 -8 14 -15 32 -16 41 0 16
-26 34 -42 31 -4 -1 -14 11 -23 27 -11 22 -12 30 -3 33 9 3 8 13 -4 37 -10 22
-18 29 -23 21z"/>
<path d="M7921 7056 c-9 -10 -9 -16 -1 -21 6 -4 9 -14 6 -22 -3 -8 -1 -11 4
-8 6 3 10 13 10 21 0 10 5 12 13 8 7 -5 7 -1 -3 12 -8 10 -15 20 -16 22 -1 1
-7 -4 -13 -12z"/>
<path d="M1036 7025 c-19 -29 -20 -39 -4 -29 8 5 9 2 5 -10 -4 -10 -7 -21 -7
-26 0 -4 -7 -11 -16 -14 -12 -5 -15 -2 -10 10 5 14 4 15 -8 5 -12 -10 -13 -16
-3 -26 8 -8 14 -9 18 -3 4 6 12 7 18 4 8 -5 6 -18 -5 -44 -10 -24 -11 -38 -4
-40 5 -2 8 -8 4 -13 -3 -5 -1 -9 5 -9 5 0 11 12 13 28 2 15 8 26 14 25 15 -3
9 48 -8 59 -10 7 -9 11 5 22 21 16 22 35 2 42 -11 5 -12 11 -4 25 14 27 4 23
-15 -6z"/>
<path d="M1076 7037 c3 -10 9 -15 12 -12 3 3 0 11 -7 18 -10 9 -11 8 -5 -6z"/>
<path d="M7947 6997 c-3 -9 -2 -19 4 -23 15 -9 18 -2 9 20 -6 17 -7 18 -13 3z"/>
<path d="M956 6901 c-13 -15 -14 -20 -4 -24 10 -4 10 -6 1 -6 -7 -1 -13 -8
-13 -17 0 -8 -4 -13 -9 -10 -8 5 -61 -65 -61 -80 0 -4 10 -15 22 -25 11 -11
19 -22 15 -25 -3 -3 -2 -16 3 -29 6 -16 4 -29 -5 -41 -9 -12 -14 -14 -15 -6 0
7 -4 11 -9 7 -5 -3 -12 4 -16 15 -4 11 -11 18 -16 14 -6 -4 -2 -15 11 -29 19
-20 19 -23 5 -35 -9 -7 -14 -19 -11 -26 3 -7 1 -16 -5 -19 -5 -4 -7 -11 -4
-16 3 -5 -1 -6 -11 -2 -13 5 -15 2 -10 -15 8 -24 -9 -38 -28 -23 -8 7 -16 7
-22 1 -6 -6 -10 -3 -11 10 -1 11 3 20 9 20 6 0 9 3 5 6 -3 3 -1 18 4 33 l9 26
-19 -24 c-24 -31 -17 -121 9 -121 4 0 8 -11 8 -25 0 -13 -4 -23 -8 -20 -4 3
-10 -4 -13 -15 -3 -11 -2 -22 2 -25 9 -5 31 38 31 60 0 8 5 15 10 15 6 0 10 9
10 20 0 11 3 20 8 20 4 0 14 15 21 33 8 17 21 38 28 45 7 8 11 17 8 22 -3 5
-2 10 2 12 5 1 23 27 41 56 32 54 43 81 19 47 -10 -12 -16 -14 -21 -7 -4 7 -4
17 -1 22 4 6 -1 22 -9 36 -16 23 -16 25 8 35 16 8 22 17 19 28 -4 9 -3 13 1
10 4 -4 8 -16 11 -28 5 -28 14 -41 27 -41 5 0 8 7 4 15 -3 8 0 14 7 12 14 -2
17 51 4 69 -4 7 -10 22 -12 34 -6 32 -9 33 -29 11z m23 -63 c1 6 6 12 12 12 8
0 8 -5 -1 -15 -15 -18 -30 -11 -29 13 0 14 2 13 9 -3 5 -11 9 -14 9 -7z m-59
-32 c0 -3 -4 -8 -10 -11 -5 -3 -10 -1 -10 4 0 6 5 11 10 11 6 0 10 -2 10 -4z"/>
<path d="M8020 6754 c0 -9 5 -14 12 -12 18 6 21 28 4 28 -9 0 -16 -7 -16 -16z"/>
<path d="M8095 6750 c-3 -5 -1 -10 4 -10 6 0 11 5 11 10 0 6 -2 10 -4 10 -3 0
-8 -4 -11 -10z"/>
<path d="M856 6727 c3 -10 9 -15 12 -12 3 3 0 11 -7 18 -10 9 -11 8 -5 -6z"/>
<path d="M815 6669 c-19 -38 -23 -55 -14 -65 13 -16 40 -7 32 12 -3 8 1 14 8
14 10 1 9 4 -3 10 -15 10 -15 50 1 50 4 0 8 7 8 15 0 23 -4 19 -32 -36z"/>
<path d="M8096 6713 c-22 -22 25 -93 48 -74 7 6 16 8 19 4 4 -3 7 1 7 11 0 9
5 14 10 11 6 -4 5 4 -1 19 l-12 25 -18 -22 c-11 -13 -18 -17 -19 -9 0 17 -26
43 -34 35z"/>
<path d="M8060 6681 c0 -6 4 -13 10 -16 6 -3 7 1 4 9 -7 18 -14 21 -14 7z"/>
<path d="M8184 6636 c-8 -8 -8 -18 -2 -30 6 -11 6 -22 -2 -32 -14 -16 -35 -20
-25 -4 3 5 0 7 -8 4 -11 -4 -13 1 -10 20 4 17 1 26 -7 26 -7 0 -10 -7 -6 -16
4 -9 2 -13 -5 -8 -14 8 -14 8 34 -83 36 -72 55 -93 44 -53 -3 13 -1 18 6 13 6
-4 8 0 4 10 -4 10 -1 17 5 17 6 0 8 3 5 6 -4 4 -13 2 -20 -5 -12 -9 -14 -7
-13 11 0 14 -4 22 -11 21 -16 -4 -17 13 -2 22 6 4 17 -1 24 -11 8 -11 15 -14
15 -8 0 5 -5 15 -10 20 -12 12 -3 44 12 44 5 0 6 -5 3 -10 -10 -16 17 -69 32
-63 9 4 4 21 -18 64 -17 32 -32 59 -33 59 0 -1 -6 -7 -12 -14z"/>
<path d="M8250 6506 c0 -20 17 -29 26 -15 5 8 3 9 -6 4 -10 -6 -12 -4 -7 8 3
10 2 17 -3 17 -6 0 -10 -6 -10 -14z"/>
<path d="M720 6475 c0 -8 -4 -15 -10 -15 -5 0 -10 -4 -10 -10 0 -5 6 -9 13 -7
7 1 11 -7 9 -20 -2 -13 2 -23 7 -23 10 0 13 7 10 26 0 4 5 10 11 14 16 10 3
50 -16 50 -8 0 -14 -7 -14 -15z"/>
<path d="M8271 6471 c-7 -5 -11 -15 -9 -22 3 -10 8 -7 17 9 13 24 12 26 -8 13z"/>
<path d="M8222 6420 c1 -33 9 -38 28 -15 15 18 6 45 -14 45 -10 0 -14 -10 -14
-30z"/>
<path d="M687 6424 c-4 -4 -1 -16 5 -28 10 -18 9 -19 -3 -9 -12 10 -17 7 -26
-17 -8 -22 -8 -30 0 -30 6 0 -2 -13 -17 -29 -15 -16 -29 -40 -30 -54 0 -14 -4
-23 -7 -21 -12 7 -19 -27 -9 -45 5 -10 6 -22 2 -26 -4 -3 -1 -5 7 -3 18 4 28
-32 12 -42 -7 -3 -9 -14 -6 -22 5 -13 10 -12 30 8 19 18 23 32 21 65 -2 25 0
36 5 27 12 -19 42 13 42 46 0 14 3 23 8 20 9 -5 13 8 10 37 -1 9 5 19 14 22 8
4 15 15 15 26 0 14 -5 19 -15 15 -8 -4 -12 -10 -9 -15 3 -5 -2 -17 -12 -26
-16 -17 -17 -16 -10 18 6 35 -14 96 -27 83z m9 -124 c-3 -37 -11 -56 -28 -70
-21 -17 -24 -17 -30 -2 -11 27 -9 35 7 28 12 -4 14 0 9 18 -4 18 0 27 15 35
11 7 20 15 20 19 -2 12 1 22 6 22 3 0 3 -23 1 -50z"/>
<path d="M8257 6400 c-32 -36 -32 -32 -10 -73 l18 -32 3 31 c2 18 13 40 24 50
12 11 18 13 14 7 -4 -7 -2 -13 4 -13 6 0 8 -10 4 -24 -4 -18 -1 -25 11 -28 15
-3 14 -6 -6 -23 -12 -11 -19 -14 -15 -7 4 7 1 12 -8 12 -18 0 -30 -17 -17 -25
6 -3 8 -11 6 -18 -3 -7 0 -19 5 -27 8 -13 15 -12 51 7 22 12 36 16 29 8 -8
-10 -8 -18 2 -34 16 -26 28 -27 28 -2 0 34 -19 73 -32 65 -8 -5 -9 -2 -5 9 9
23 -52 147 -72 147 -4 0 -20 -13 -34 -30z m77 -135 c-6 -16 -24 -21 -24 -7 0
11 11 22 21 22 5 0 6 -7 3 -15z"/>
<path d="M8310 6193 c0 -25 12 -42 27 -36 13 5 15 1 9 -20 -3 -14 -1 -38 5
-54 l11 -28 15 30 16 29 9 -24 c5 -13 13 -27 19 -31 6 -3 6 -15 1 -30 -9 -22
4 -49 23 -49 10 0 5 69 -6 76 -7 4 -9 24 -6 52 3 29 2 40 -5 31 -7 -11 -9 -9
-7 6 2 34 -1 46 -10 41 -5 -3 -7 -15 -4 -27 6 -22 -10 -39 -36 -39 -12 0 -12
3 -3 12 16 16 15 28 -3 28 -8 0 -15 5 -15 12 0 6 -3 8 -7 5 -3 -4 -12 1 -19
11 -7 9 -14 12 -14 5z"/>
<path d="M538 6082 c-13 -31 -23 -64 -24 -72 -1 -9 -6 -25 -11 -35 -6 -11 -8
-26 -5 -34 3 -9 0 -11 -8 -6 -8 5 -11 4 -6 -3 3 -6 1 -14 -4 -17 -8 -5 -7 -12
4 -23 13 -15 13 -20 0 -42 l-14 -25 4 28 c3 15 0 27 -6 27 -5 0 -8 -7 -4 -15
3 -8 0 -15 -5 -15 -7 0 -9 -9 -4 -22 3 -13 7 -28 7 -35 2 -17 18 -5 18 13 0 8
9 23 20 34 19 19 19 22 5 43 -20 28 -19 30 11 60 18 18 26 37 26 62 0 19 4 32
9 29 5 -3 6 1 3 9 -2 7 6 24 19 38 22 23 22 25 6 41 -16 15 -19 13 -41 -40z"/>
<path d="M8446 6097 c3 -10 9 -15 12 -12 3 3 0 11 -7 18 -10 9 -11 8 -5 -6z"/>
<path d="M7670 6093 c0 -7 5 -15 10 -18 6 -3 10 -18 10 -33 -1 -25 -2 -26 -14
-9 -13 17 -15 16 -35 -12 -15 -21 -20 -38 -15 -55 6 -26 -10 -37 -19 -13 -3 6
-3 -5 0 -26 5 -35 3 -39 -25 -49 -26 -10 -37 -22 -60 -70 -2 -5 1 -8 7 -8 6 0
13 11 17 25 3 14 12 25 20 25 8 0 11 -6 7 -17 -4 -13 1 -11 15 6 12 13 22 30
22 38 0 7 5 13 10 13 6 0 10 11 10 25 0 18 5 25 20 25 24 0 26 13 5 34 -15 14
-11 46 5 46 12 0 24 -22 25 -44 0 -11 6 -21 12 -23 18 -6 5 117 -13 137 -9 9
-14 10 -14 3z"/>
<path d="M8370 6040 c0 -8 5 -22 10 -30 9 -13 10 -13 10 0 0 8 -5 22 -10 30
-9 13 -10 13 -10 0z"/>
<path d="M595 6030 c-3 -5 -3 -10 1 -10 4 0 0 -8 -8 -17 -20 -24 -21 -63 -2
-63 8 0 12 5 9 10 -3 6 -1 10 4 10 6 0 11 5 11 11 0 5 -4 7 -10 4 -6 -3 -7 1
-4 9 3 9 10 14 14 11 4 -2 8 7 8 20 0 26 -12 33 -23 15z"/>
<path d="M8485 5989 c4 -12 3 -19 -2 -16 -5 3 -15 -8 -22 -25 -8 -16 -16 -26
-20 -22 -9 13 -31 16 -31 4 0 -5 4 -10 10 -10 5 0 6 -7 3 -17 -5 -12 -3 -14 7
-8 10 6 12 4 7 -8 -3 -9 0 -35 8 -59 13 -42 13 -42 14 -11 1 17 4 40 7 50 5
15 4 15 -5 3 -9 -13 -11 -13 -11 0 0 30 15 41 30 21 7 -11 19 -17 27 -14 17 7
17 23 -1 23 -8 0 -17 4 -20 8 -8 13 5 53 15 47 4 -3 3 8 -2 25 -12 34 -24 42
-14 9z"/>
<path d="M566 5912 c-3 -9 -9 -23 -12 -31 -4 -8 -2 -12 6 -9 16 5 32 46 21 53
-5 2 -11 -3 -15 -13z"/>
<path d="M7685 5920 c-3 -5 -1 -10 4 -10 6 0 11 5 11 10 0 6 -2 10 -4 10 -3 0
-8 -4 -11 -10z"/>
<path d="M7635 5839 c-4 -12 -2 -26 4 -32 8 -8 11 -2 11 21 0 37 -6 41 -15 11z"/>
<path d="M8490 5821 c0 -22 4 -29 14 -25 8 3 12 13 9 25 -9 32 -23 32 -23 0z"/>
<path d="M7673 5820 c-1 -11 2 -20 8 -20 5 0 9 9 9 20 0 11 -4 20 -8 20 -4 0
-8 -9 -9 -20z"/>
<path d="M8533 5805 c2 -19 2 -37 -1 -40 -11 -10 -10 -35 0 -29 6 4 8 -1 4
-13 -9 -27 3 -55 20 -49 8 3 14 1 14 -4 0 -6 6 -10 14 -10 11 0 12 8 4 43 -6
23 -15 47 -21 52 -7 7 -8 4 -3 -9 5 -16 4 -17 -8 -7 -11 9 -13 19 -5 37 6 17
5 32 -1 45 -16 28 -21 23 -17 -16z"/>
<path d="M513 5800 c-8 -21 -8 -30 1 -34 6 -2 2 -5 -9 -5 -15 -1 -17 -3 -6
-10 9 -6 10 -11 2 -15 -8 -5 -8 -13 1 -29 10 -20 12 -18 29 32 14 39 16 58 8
72 -13 24 -13 24 -26 -11z"/>
<path d="M7553 5791 c-1 -13 3 -18 12 -15 7 3 21 -6 30 -20 10 -14 21 -26 26
-26 15 0 10 30 -5 36 -8 3 -16 14 -19 25 -7 25 -42 25 -44 0z"/>
<path d="M7475 5718 c-25 -55 -38 -98 -29 -98 21 0 32 15 28 38 -3 17 1 35 11
47 15 19 15 19 13 1 -2 -10 2 -21 9 -23 12 -4 13 80 2 92 -4 3 -19 -23 -34
-57z"/>
<path d="M7708 5745 c4 -35 15 -45 27 -24 10 15 -3 59 -18 59 -9 0 -12 -11 -9
-35z"/>
<path d="M8460 5762 c0 -11 -7 -25 -15 -32 -9 -7 -13 -15 -11 -18 3 -2 -6 -13
-19 -24 -14 -11 -23 -24 -19 -29 3 -5 -6 -13 -20 -19 -14 -5 -26 -16 -26 -25
0 -9 -11 -20 -25 -25 -39 -15 -30 -18 22 -9 44 9 69 19 46 19 -19 0 -1 41 23
52 12 6 25 19 27 30 3 11 10 17 16 13 15 -9 14 -36 -1 -32 -7 1 -14 -9 -16
-23 -2 -13 -11 -29 -19 -36 -10 -7 -12 -13 -6 -17 6 -4 18 4 27 18 9 14 26 25
39 26 12 0 16 3 10 6 -7 2 -13 9 -13 14 0 6 5 7 12 3 13 -8 3 12 -20 38 -13
15 -12 19 2 34 19 18 18 45 -1 52 -8 2 -13 -5 -13 -16z"/>
<path d="M7648 5740 c-5 -34 -2 -41 17 -33 10 3 11 11 5 28 -5 13 -6 26 -3 29
4 3 2 6 -4 6 -6 0 -13 -14 -15 -30z"/>
<path d="M430 5752 c0 -7 4 -12 9 -12 5 0 11 -10 13 -22 3 -19 4 -20 10 -6 4
10 -1 23 -13 34 -11 10 -19 12 -19 6z"/>
<path d="M410 5701 c0 -6 4 -13 10 -16 6 -3 7 1 4 9 -7 18 -14 21 -14 7z"/>
<path d="M7962 5667 c-2 -37 2 -47 22 -61 15 -9 27 -12 31 -6 6 10 -15 65 -37
94 -13 17 -15 15 -16 -27z"/>
<path d="M7704 5682 c-16 -13 -19 -23 -14 -42 8 -25 8 -25 15 7 4 18 15 33 24
35 9 2 12 6 6 10 -6 4 -20 -1 -31 -10z"/>
<path d="M445 5660 c-3 -5 -1 -10 4 -10 6 0 11 5 11 10 0 6 -2 10 -4 10 -3 0
-8 -4 -11 -10z"/>
<path d="M414 5632 c5 -13 3 -22 -3 -22 -6 0 -11 5 -11 12 0 6 -3 9 -6 6 -3
-4 0 -16 6 -28 10 -20 9 -26 -14 -47 -14 -13 -26 -34 -26 -46 0 -16 3 -18 9
-8 7 11 10 11 16 0 6 -9 10 -8 15 7 4 10 2 22 -4 26 -15 10 -2 20 17 13 15 -6
32 -49 28 -72 -1 -7 3 -13 9 -13 5 0 10 10 11 23 0 12 2 29 5 37 14 55 15 70
5 70 -7 0 -9 -5 -6 -10 8 -13 -3 -50 -15 -50 -11 0 -7 80 4 99 6 10 5 12 -3 7
-6 -4 -19 -2 -28 6 -14 11 -15 10 -9 -10z"/>
<path d="M7648 5638 c-3 -7 -2 -24 2 -38 6 -25 6 -25 12 5 7 30 -5 58 -14 33z"/>
<path d="M7735 5640 c3 -5 8 -10 11 -10 2 0 4 5 4 10 0 6 -5 10 -11 10 -5 0
-7 -4 -4 -10z"/>
<path d="M7417 5613 c-6 -16 -14 -30 -17 -33 -3 -3 -20 -34 -39 -70 -18 -36
-30 -62 -26 -58 5 4 14 3 22 -4 7 -6 16 -8 20 -4 3 3 1 6 -5 6 -7 0 -12 7 -12
16 0 8 4 13 9 9 5 -3 11 7 13 22 2 23 8 28 31 27 22 0 26 3 21 19 -4 14 -3 17
6 12 9 -5 11 -4 6 3 -11 18 -24 14 -31 -9 -4 -11 -9 -18 -11 -16 -10 9 20 58
32 53 10 -4 11 1 4 18 -5 13 -6 27 -3 30 4 3 3 6 -1 6 -3 0 -12 -12 -19 -27z"/>
<path d="M7720 5613 c0 -11 5 -24 12 -31 9 -9 9 -12 -3 -12 -8 0 -20 5 -26 11
-8 8 -13 8 -17 0 -4 -6 0 -11 9 -11 13 0 15 -5 10 -17 -4 -10 -10 -30 -13 -45
-2 -16 -9 -28 -14 -28 -6 0 -8 6 -5 13 2 6 -1 18 -9 24 -17 16 -22 -8 -13 -59
3 -21 3 -38 -1 -38 -4 0 -12 -12 -19 -27 l-12 -28 25 30 c14 17 25 34 26 38 0
5 10 23 23 40 12 18 29 45 38 62 19 35 43 39 47 8 2 -13 8 -23 13 -23 20 0 7
28 -31 69 -31 33 -40 38 -40 24z m-40 -147 c0 -3 -4 -8 -10 -11 -5 -3 -10 -1
-10 4 0 6 5 11 10 11 6 0 10 -2 10 -4z"/>
<path d="M8036 5576 c21 -15 30 -14 19 3 -3 6 -14 11 -23 11 -13 0 -13 -2 4
-14z"/>
<path d="M8600 5579 c0 -5 5 -7 10 -4 6 3 10 8 10 11 0 2 -4 4 -10 4 -5 0 -10
-5 -10 -11z"/>
<path d="M8610 5551 c-13 -25 -13 -51 0 -51 5 0 7 6 4 14 -3 8 -1 24 6 35 6
12 8 21 6 21 -3 0 -10 -9 -16 -19z"/>
<path d="M8291 5538 c5 -10 14 -16 20 -13 5 4 9 -4 9 -17 1 -20 2 -21 10 -6
14 23 -1 53 -27 54 -19 1 -21 -2 -12 -18z"/>
<path d="M8029 5530 c-8 -8 -29 -25 -45 -38 l-29 -23 27 6 c21 5 29 3 34 -9 7
-19 35 -21 52 -4 10 10 15 10 22 -2 10 -17 17 -13 22 15 4 25 -27 32 -51 11
-10 -9 -21 -13 -24 -9 -13 13 -6 28 18 40 14 6 25 7 25 2 0 -5 5 -9 10 -9 6 0
5 8 -2 19 -14 23 -36 23 -59 1z"/>
<path d="M8260 5512 c-14 -6 -14 -11 1 -41 14 -31 16 -32 22 -12 3 11 1 21 -5
21 -6 0 -8 9 -5 20 3 11 4 20 4 19 -1 0 -9 -3 -17 -7z"/>
<path d="M7780 5481 c0 -35 20 -58 46 -53 26 5 33 22 10 22 -9 0 -12 7 -9 20
3 11 1 20 -5 20 -6 0 -17 3 -26 6 -12 4 -16 0 -16 -15z"/>
<path d="M8601 5430 c-1 -33 3 -60 8 -60 5 0 8 18 7 39 0 22 3 37 7 34 5 -3 7
5 5 18 -1 12 -8 24 -14 26 -7 2 -12 -18 -13 -57z"/>
<path d="M350 5465 c0 -8 2 -15 4 -15 2 0 6 7 10 15 3 8 1 15 -4 15 -6 0 -10
-7 -10 -15z"/>
<path d="M400 5466 c0 -9 5 -16 10 -16 6 0 10 4 10 9 0 6 -4 13 -10 16 -5 3
-10 -1 -10 -9z"/>
<path d="M7973 5463 c-18 -6 -16 -23 1 -23 17 0 30 16 19 23 -5 2 -14 2 -20 0z"/>
<path d="M8210 5462 c0 -5 7 -9 15 -9 8 0 12 4 9 9 -3 4 -9 8 -15 8 -5 0 -9
-4 -9 -8z"/>
<path d="M8321 5454 c0 -11 3 -14 6 -6 3 7 2 16 -1 19 -3 4 -6 -2 -5 -13z"/>
<path d="M440 5449 c0 -2 -4 -19 -9 -37 -5 -17 -6 -32 -2 -32 10 0 24 61 16
68 -3 3 -5 3 -5 1z"/>
<path d="M7582 5343 c2 -74 7 -108 16 -111 7 -2 12 5 12 18 0 12 4 18 10 15 6
-4 8 -11 5 -16 -4 -5 -1 -9 6 -9 8 0 9 10 5 31 -3 17 -6 46 -6 63 l-1 31 -14
-30 c-14 -30 -14 -30 -14 25 1 82 0 90 -11 90 -7 0 -9 -39 -8 -107z"/>
<path d="M7911 5437 c-6 -8 -8 -17 -4 -20 3 -4 1 -7 -5 -7 -7 0 -12 -8 -12
-18 0 -10 -5 -23 -12 -30 -17 -17 3 -14 27 4 13 10 20 27 20 49 1 40 1 40 -14
22z"/>
<path d="M8124 5428 c-4 -13 -2 -24 4 -26 6 -2 8 -10 5 -18 -3 -8 1 -14 10
-14 9 0 24 -3 34 -6 15 -5 15 -4 3 5 -13 9 -12 11 5 12 11 0 15 3 8 6 -10 3
-10 9 0 23 9 15 9 22 -1 32 -9 9 -12 7 -12 -9 0 -27 -19 -40 -30 -22 -5 7 -7
16 -4 20 2 4 0 10 -5 13 -5 4 -13 -4 -17 -16z"/>
<path d="M380 5420 c0 -11 2 -20 4 -20 2 0 6 9 9 20 3 11 1 20 -4 20 -5 0 -9
-9 -9 -20z"/>
<path d="M7314 5423 c-3 -10 -10 -26 -15 -35 -5 -10 -6 -24 -3 -33 4 -10 2
-13 -7 -10 -14 5 -45 -32 -35 -43 3 -3 6 0 6 6 0 7 9 12 19 12 21 0 33 22 25
43 -3 8 6 25 20 38 29 28 32 39 11 39 -9 0 -18 -8 -21 -17z"/>
<path d="M8646 5424 c-4 -9 -1 -23 5 -30 6 -7 8 -18 5 -23 -4 -5 -3 -12 2 -15
4 -2 9 6 10 19 1 13 -3 27 -8 30 -5 3 -7 12 -3 20 3 8 3 15 0 15 -3 0 -8 -7
-11 -16z"/>
<path d="M8155 5420 c3 -5 8 -10 11 -10 2 0 4 5 4 10 0 6 -5 10 -11 10 -5 0
-7 -4 -4 -10z"/>
<path d="M336 5400 c-6 -20 -34 -150 -33 -151 25 -12 50 2 27 16 -5 3 -10 15
-10 26 0 13 4 18 12 13 7 -4 8 -3 4 4 -4 7 -2 20 3 29 9 16 10 16 11 1 0 -9 3
-23 6 -32 4 -11 1 -16 -10 -16 -21 0 -20 -12 3 -36 25 -27 35 -62 22 -78 -6
-7 -7 -23 -2 -42 11 -37 17 -22 30 71 6 39 13 81 16 95 l6 25 -15 -25 -15 -25
-7 43 c-4 27 -12 42 -21 42 -9 0 -13 6 -10 13 3 8 1 20 -3 28 -8 11 -10 11
-14 -1z m41 -132 c-3 -8 -6 -5 -6 6 -1 11 2 17 5 13 3 -3 4 -12 1 -19z"/>
<path d="M7351 5373 c0 -21 3 -32 6 -25 2 6 9 10 14 6 5 -3 9 0 9 5 0 6 -5 11
-12 11 -9 0 -9 3 0 12 16 16 15 28 -3 28 -11 0 -15 -10 -14 -37z"/>
<path d="M7817 5404 c-9 -10 25 -74 36 -67 6 4 8 0 4 -10 -4 -10 -2 -17 4 -17
7 0 9 9 4 23 -3 12 -8 29 -9 37 -4 32 -24 49 -39 34z"/>
<path d="M7545 5320 c-3 -5 -1 -10 4 -10 6 0 11 5 11 10 0 6 -2 10 -4 10 -3 0
-8 -4 -11 -10z"/>
<path d="M8672 5258 c3 -48 17 -69 26 -36 2 9 0 8 -7 -2 -8 -11 -10 -1 -7 38
2 28 -1 52 -6 52 -5 0 -8 -24 -6 -52z"/>
<path d="M7234 5271 c3 -5 -1 -14 -10 -22 -19 -16 -41 -54 -25 -45 6 4 11 1
11 -6 1 -8 6 -6 15 6 20 26 20 1 1 -35 -12 -24 -12 -26 3 -22 20 5 29 83 9 83
-9 0 -9 3 0 12 15 15 16 38 1 38 -5 0 -8 -4 -5 -9z"/>
<path d="M7850 5263 c0 -4 9 -14 21 -21 18 -12 20 -11 17 5 -3 17 -38 32 -38
16z"/>
<path d="M8643 5234 c-3 -8 -1 -20 6 -27 8 -8 11 -4 11 16 0 30 -7 35 -17 11z"/>
<path d="M7792 5213 c-13 -3 -19 -9 -16 -15 5 -8 1 -9 -10 -5 -20 8 -96 -9
-96 -22 0 -10 59 -1 66 10 3 5 10 9 15 9 6 0 7 -4 4 -10 -6 -9 -1 -11 37 -14
7 -1 13 6 14 14 2 30 4 31 28 3 17 -20 28 -25 35 -17 8 7 7 15 -3 29 -14 19
-36 25 -74 18z"/>
<path d="M7910 5210 c0 -5 5 -10 10 -10 6 0 10 5 10 10 0 6 -4 10 -10 10 -5 0
-10 -4 -10 -10z"/>
<path d="M317 5204 c-10 -11 -9 -82 2 -88 5 -4 7 3 4 14 -3 11 -1 26 5 33 11
13 1 52 -11 41z"/>
<path d="M7166 5153 c-9 -19 -14 -38 -11 -41 3 -3 5 1 5 9 1 9 8 5 21 -10 17
-21 22 -22 30 -10 13 20 11 29 -5 29 -18 0 -30 31 -15 40 6 5 7 10 2 13 -5 4
-17 -10 -27 -30z"/>
<path d="M8668 5139 c-2 -22 4 -57 14 -82 9 -23 17 -36 17 -28 1 11 4 11 16 1
13 -11 15 -8 15 14 0 14 -4 26 -9 26 -4 0 -6 11 -3 25 3 16 0 25 -8 25 -8 0
-10 8 -6 24 4 18 1 25 -13 29 -16 4 -20 -2 -23 -34z"/>
<path d="M267 5003 c-23 -158 -31 -274 -23 -307 7 -28 36 -36 36 -10 0 8 5 12
11 8 6 -3 9 -15 6 -25 -3 -10 0 -22 5 -25 7 -5 9 10 6 45 -3 29 -2 47 2 41 4
-7 8 11 8 39 1 42 -2 52 -20 62 -16 8 -18 13 -7 19 9 6 10 12 2 22 -13 16 -22
98 -9 91 5 -4 6 5 2 20 -3 14 -2 29 4 32 11 7 12 61 1 89 -5 12 -13 -23 -24
-101z m17 -222 c-13 -54 -23 -56 -21 -4 2 39 5 49 14 41 8 -6 10 -21 7 -37z"/>
<path d="M7124 5075 c-15 -31 6 -68 27 -48 6 6 9 19 5 28 -5 15 -9 15 -24 4
-15 -13 -16 -12 -4 3 8 10 12 22 10 27 -1 6 -8 -1 -14 -14z"/>
<path d="M7154 5089 c-3 -6 -1 -16 5 -22 8 -8 11 -5 11 11 0 24 -5 28 -16 11z"/>
<path d="M7221 5086 c-8 -9 -11 -19 -7 -23 9 -9 29 13 24 27 -2 8 -8 7 -17 -4z"/>
<path d="M360 5028 c0 -19 2 -20 10 -8 13 19 13 30 0 30 -5 0 -10 -10 -10 -22z"/>
<path d="M7180 5041 c0 -6 5 -13 10 -16 6 -3 10 1 10 9 0 9 -4 16 -10 16 -5 0
-10 -4 -10 -9z"/>
<path d="M7089 5010 c0 -8 -1 -22 0 -30 1 -8 -14 -33 -33 -55 -19 -22 -45 -58
-56 -80 -12 -22 -14 -31 -6 -21 9 11 16 23 16 28 0 4 5 8 10 8 6 0 10 -13 10
-29 0 -17 5 -33 10 -36 6 -3 10 3 10 14 0 27 16 27 23 1 3 -11 10 -20 16 -20
25 0 -10 51 -44 64 -19 7 -17 10 17 42 42 38 54 68 39 104 -6 15 -10 19 -12
10z"/>
<path d="M361 4974 c0 -11 3 -14 6 -6 3 7 2 16 -1 19 -3 4 -6 -2 -5 -13z"/>
<path d="M6650 4910 c0 -5 7 -10 16 -10 8 0 12 5 9 10 -3 6 -10 10 -16 10 -5
0 -9 -4 -9 -10z"/>
<path d="M6700 4889 c0 -5 -6 -8 -12 -6 -7 1 -12 -4 -10 -10 1 -7 -6 -13 -15
-13 -15 0 -16 -2 -3 -10 9 -5 17 -5 21 1 3 5 13 7 21 4 9 -4 19 -2 22 4 4 6
13 8 21 4 27 -10 16 5 -15 21 -16 8 -30 10 -30 5z"/>
<path d="M8735 4880 c3 -5 8 -10 11 -10 2 0 4 5 4 10 0 6 -5 10 -11 10 -5 0
-7 -4 -4 -10z"/>
<path d="M6769 4853 c-1 -5 -1 -11 0 -15 0 -5 -10 -8 -24 -8 -33 0 -32 -18 2
-26 17 -5 28 -3 31 5 3 9 7 9 18 0 16 -13 19 -33 4 -24 -5 3 -10 4 -10 1 0 -3
15 -13 33 -22 20 -10 27 -11 20 -3 -15 16 -17 49 -3 49 6 0 10 5 10 11 0 6 -7
9 -15 5 -8 -3 -15 -1 -15 5 0 6 -4 8 -9 5 -5 -3 -11 1 -15 9 -6 15 -25 21 -27
8z"/>
<path d="M8742 4830 c0 -14 2 -19 5 -12 2 6 2 18 0 25 -3 6 -5 1 -5 -13z"/>
<path d="M6876 4803 c-12 -12 -6 -33 9 -33 9 0 19 -9 23 -21 5 -11 11 -20 15
-20 21 3 27 0 27 -14 0 -15 38 -41 47 -32 2 3 -5 8 -16 12 -12 3 -19 11 -15
16 3 6 -2 17 -12 24 -23 17 -14 19 19 4 18 -8 30 -8 47 1 21 11 21 13 6 28
-16 16 -18 16 -32 -3 -12 -16 -17 -18 -32 -7 -9 7 -25 15 -34 18 -10 4 -18 10
-18 14 0 10 -26 20 -34 13z"/>
<path d="M6586 4783 c-3 -10 -17 -36 -31 -58 -28 -45 -32 -80 -10 -88 11 -5
12 -1 5 17 -6 17 -4 30 6 45 8 11 12 21 8 21 -3 0 -1 7 6 15 7 8 16 13 20 10
7 -4 19 26 20 48 0 14 -18 7 -24 -10z"/>
<path d="M8733 4736 c4 -10 7 -24 7 -32 0 -8 5 -14 11 -14 15 0 6 53 -10 58
-10 3 -12 0 -8 -12z"/>
<path d="M332 4705 c0 -16 2 -22 5 -12 2 9 2 23 0 30 -3 6 -5 -1 -5 -18z"/>
<path d="M7040 4714 l-25 -15 25 7 c28 7 35 12 29 18 -2 2 -15 -2 -29 -10z"/>
<path d="M6626 4689 c-6 -28 -4 -43 9 -63 20 -31 36 -33 52 -7 10 16 8 22 -13
42 -13 12 -25 18 -25 13 -1 -5 -5 5 -9 21 l-7 30 -7 -36z m53 -43 c10 -12 8
-13 -8 -9 -12 3 -18 9 -15 14 7 12 10 11 23 -5z"/>
<path d="M7095 4700 c-3 -5 -1 -10 4 -10 6 0 11 5 11 10 0 6 -2 10 -4 10 -3 0
-8 -4 -11 -10z"/>
<path d="M7045 4666 c-18 -13 -17 -14 14 -21 38 -8 49 -1 31 20 -15 19 -21 19
-45 1z"/>
<path d="M8730 4660 c0 -5 4 -10 8 -10 11 0 12 -62 2 -75 -14 -17 0 -64 17
-58 24 9 7 153 -18 153 -5 0 -9 -4 -9 -10z"/>
<path d="M6582 4640 c-5 -14 -7 -29 -4 -34 7 -12 24 33 18 48 -2 6 -8 0 -14
-14z"/>
<path d="M6502 4630 c-15 -24 -15 -33 -2 -25 6 3 10 0 10 -8 0 -8 6 -20 14
-27 8 -6 12 -18 9 -26 -3 -8 0 -14 7 -14 8 0 10 8 5 23 -4 12 -6 34 -6 48 1
37 -21 54 -37 29z"/>
<path d="M327 4610 c-5 -25 -10 -31 -16 -21 -7 11 -10 9 -16 -9 -8 -27 2 -107
16 -115 5 -4 9 -16 10 -28 0 -21 1 -21 10 2 5 14 8 65 7 115 -2 72 -5 83 -11
56z m-10 -87 c-4 -17 -4 -17 -12 0 -4 9 -4 25 0 35 8 16 8 16 12 0 3 -10 3
-26 0 -35z"/>
<path d="M7141 4607 c2 -1 13 -9 24 -17 19 -14 19 -14 6 3 -7 9 -18 17 -24 17
-6 0 -8 -1 -6 -3z"/>
<path d="M251 4535 c1 -36 5 -65 10 -65 5 0 9 29 9 65 0 37 -4 65 -10 65 -6 0
-10 -27 -9 -65z"/>
<path d="M6456 4578 c-20 -28 -20 -44 -1 -52 8 -3 15 -4 15 -3 0 1 4 17 9 34
12 40 -2 52 -23 21z"/>
<path d="M6700 4571 c-15 -29 -13 -34 16 -27 17 5 23 3 19 -4 -3 -5 1 -10 10
-10 12 0 15 -6 10 -21 -6 -19 -4 -21 14 -16 14 3 19 1 14 -6 -4 -6 0 -8 9 -5
8 4 21 -2 28 -12 7 -10 20 -15 31 -13 30 8 24 26 -7 22 -4 0 -10 3 -13 8 -3 4
-22 21 -41 37 -19 16 -35 33 -35 38 0 9 -25 28 -37 28 -4 0 -12 -9 -18 -19z"/>
<path d="M7223 4573 c-18 -7 -16 -23 2 -23 8 0 15 7 15 15 0 8 -1 15 -2 14 -2
0 -9 -3 -15 -6z"/>
<path d="M7040 4550 c0 -9 -13 -11 -42 -7 -36 5 -45 2 -65 -19 -12 -13 -26
-24 -32 -24 -11 0 -9 -24 2 -27 4 -2 15 -3 25 -3 14 0 15 2 2 10 -13 8 -12 10
3 10 9 0 17 -4 17 -10 0 -5 8 -10 18 -10 10 0 13 3 6 8 -17 11 -13 41 6 47 10
3 34 6 54 7 20 1 35 6 33 12 -5 15 -27 20 -27 6z"/>
<path d="M7115 4540 c-4 -6 -11 -7 -17 -4 -7 4 -8 2 -4 -4 10 -17 58 -15 82 3
18 13 17 14 -18 15 -20 0 -40 -5 -43 -10z"/>
<path d="M6416 4511 c4 -14 2 -21 -4 -17 -5 3 -19 -3 -31 -13 -21 -18 -21 -20
-3 -25 10 -4 26 -21 35 -39 l16 -32 0 27 c1 14 -4 28 -11 30 -6 2 -12 12 -14
21 -2 13 2 15 16 7 24 -13 30 -13 30 0 0 6 -7 10 -16 10 -8 0 -12 4 -9 10 3 5
1 18 -5 27 -9 15 -10 14 -4 -6z"/>
<path d="M8763 4475 c0 -22 2 -30 4 -17 2 12 2 30 0 40 -3 9 -5 -1 -4 -23z"/>
<path d="M7097 4467 c-3 -8 6 -12 24 -12 16 0 28 4 26 9 -5 14 -45 17 -50 3z"/>
<path d="M233 4390 c0 -36 2 -50 4 -32 2 17 2 47 0 65 -2 17 -4 3 -4 -33z"/>
<path d="M252 4325 c-1 -72 3 -137 8 -145 11 -17 11 83 0 200 -6 68 -7 64 -8
-55z"/>
<path d="M6339 4445 c-1 -3 -2 -9 -3 -15 0 -5 -9 -15 -18 -22 -19 -14 -9 -46
11 -34 6 4 9 11 6 15 -2 5 2 17 10 27 8 10 15 22 15 27 0 8 -19 10 -21 2z"/>
<path d="M8751 4398 c-1 -21 4 -38 9 -38 11 0 11 14 0 50 -7 22 -8 21 -9 -12z"/>
<path d="M6271 4366 c-12 -14 -5 -26 16 -26 15 0 18 26 4 34 -5 3 -14 0 -20
-8z"/>
<path d="M325 4332 c2 -18 -2 -52 -10 -75 -20 -57 -20 -73 0 -57 9 7 15 8 15
2 0 -5 -7 -12 -15 -16 -9 -3 -12 -12 -8 -22 3 -9 1 -19 -5 -23 -8 -5 -8 -18 0
-49 6 -24 8 -45 5 -48 -12 -12 -27 8 -27 37 0 31 -23 41 -34 13 -13 -34 4
-243 33 -399 l8 -40 8 49 c4 28 4 56 -1 65 -11 19 -11 132 0 150 5 7 5 15 2
18 -3 3 2 19 10 35 9 16 13 37 10 45 -8 21 4 39 15 22 12 -19 10 281 -2 306
-7 16 -8 13 -4 -13z m5 -238 c0 -8 -4 -12 -10 -9 -5 3 -10 10 -10 16 0 5 5 9
10 9 6 0 10 -7 10 -16z m-53 -96 c-3 -7 -5 -2 -5 12 0 14 2 19 5 13 2 -7 2
-19 0 -25z"/>
<path d="M8762 4320 c0 -19 2 -27 5 -17 2 9 2 25 0 35 -3 9 -5 1 -5 -18z"/>
<path d="M6330 4325 c0 -8 7 -15 15 -15 8 0 15 7 15 15 0 8 -7 15 -15 15 -8 0
-15 -7 -15 -15z"/>
<path d="M6411 4324 c0 -11 3 -14 6 -6 3 7 2 16 -1 19 -3 4 -6 -2 -5 -13z"/>
<path d="M301 4288 c0 -28 2 -30 9 -13 12 28 12 45 0 45 -5 0 -10 -15 -9 -32z"/>
<path d="M6220 4300 c0 -5 9 -14 20 -20 11 -6 20 -7 20 -3 0 5 -9 14 -20 21
-11 7 -20 8 -20 2z"/>
<path d="M6176 4261 c-3 -4 3 -16 14 -26 11 -10 20 -16 21 -14 0 2 2 14 5 27
3 17 -1 22 -15 22 -11 0 -22 -4 -25 -9z"/>
<path d="M8737 4250 c-3 -11 -1 -20 5 -20 6 0 7 -19 3 -50 -4 -31 -3 -50 3
-50 12 0 18 22 21 88 2 40 -1 52 -12 52 -8 0 -17 -9 -20 -20z"/>
<path d="M6233 4188 c2 -7 10 -13 17 -13 7 0 15 6 18 13 2 7 -5 12 -18 12 -13
0 -20 -5 -17 -12z"/>
<path d="M6523 4112 c-30 -3 -33 -6 -33 -38 0 -31 2 -34 19 -24 11 5 27 7 36
4 10 -4 15 -2 13 7 -2 7 10 16 27 20 17 4 26 7 20 8 -5 1 -3 6 5 12 12 8 10
10 -9 5 -14 -3 -30 -2 -35 2 -6 4 -26 6 -43 4z m-8 -22 c3 -5 1 -10 -4 -10 -6
0 -11 5 -11 10 0 6 2 10 4 10 3 0 8 -4 11 -10z"/>
<path d="M8749 4105 c-14 -23 -17 -63 -9 -120 l8 -60 -1 58 c-1 31 2 58 6 60
5 1 7 18 5 37 -2 19 -6 31 -9 25z"/>
<path d="M6570 4060 c0 -5 15 -10 33 -9 27 0 29 2 12 9 -28 12 -45 12 -45 0z"/>
<path d="M6388 4038 c9 -11 10 -18 2 -23 -6 -3 -7 -11 -4 -17 5 -8 1 -9 -10
-5 -11 5 -15 3 -10 -5 5 -8 0 -9 -15 -5 -13 3 -24 0 -27 -6 -2 -7 -24 -12 -49
-12 -44 0 -49 9 -10 18 l20 5 -20 1 c-11 0 -29 -7 -40 -15 -19 -14 -19 -16 -2
-25 9 -6 17 -15 17 -20 0 -6 -6 -7 -12 -3 -7 4 -10 4 -6 0 4 -5 3 -19 -2 -32
-13 -32 4 -31 18 2 7 15 17 22 24 18 7 -4 8 -3 4 4 -5 8 0 12 13 12 12 0 21 4
21 10 0 5 7 7 15 4 8 -4 15 -1 15 5 0 6 6 11 13 11 6 0 29 10 50 23 l38 23
-28 24 c-15 14 -22 18 -15 8z"/>
<path d="M6448 4042 c-30 -4 -37 -16 -14 -25 14 -5 56 18 46 25 -3 2 -17 2
-32 0z"/>
<path d="M6903 4036 c-10 -11 -9 -16 5 -21 9 -3 18 -1 20 5 3 8 8 8 17 0 18
-15 225 -69 225 -58 0 4 -9 8 -19 8 -11 0 -23 5 -26 10 -4 6 -10 8 -14 6 -14
-9 -81 15 -81 29 0 8 -5 17 -12 21 -6 4 -8 3 -4 -4 3 -6 2 -13 -4 -17 -6 -3
-13 0 -16 9 -3 8 -12 12 -19 10 -7 -3 -16 -1 -20 5 -9 15 -38 13 -52 -3z"/>
<path d="M7090 4041 c0 -4 -12 -6 -27 -4 -24 4 -25 3 -10 -7 19 -12 57 -5 57
11 0 5 -4 9 -10 9 -5 0 -10 -4 -10 -9z"/>
<path d="M7217 4043 c-12 -11 -8 -23 8 -23 8 0 15 7 15 15 0 16 -12 20 -23 8z"/>
<path d="M8055 4040 c-4 -6 3 -10 14 -10 25 0 27 6 6 13 -8 4 -17 2 -20 -3z"/>
<path d="M8312 4039 c2 -7 10 -15 17 -17 8 -3 12 1 9 9 -2 7 -10 15 -17 17 -8
3 -12 -1 -9 -9z"/>
<path d="M6344 4025 c-10 -8 -14 -14 -9 -15 15 0 40 18 34 24 -3 3 -14 -1 -25
-9z"/>
<path d="M6805 4030 c41 -10 65 -12 65 -2 0 4 -21 8 -48 9 -40 1 -42 0 -17 -7z"/>
<path d="M8257 4032 c-12 -19 0 -59 20 -66 25 -10 39 10 15 23 -11 6 -22 21
-24 33 -2 17 -5 19 -11 10z"/>
<path d="M8160 4021 l-25 -7 23 -13 c18 -10 26 -10 38 0 30 25 14 34 -36 20z"/>
<path d="M7100 4010 c0 -12 40 -13 58 -1 8 5 0 8 -23 9 -19 1 -35 -3 -35 -8z"/>
<path d="M7270 4002 c0 -26 14 -42 36 -42 17 0 24 6 24 18 0 10 -6 19 -12 19
-7 0 -21 4 -30 8 -11 4 -18 3 -18 -3z"/>
<path d="M7930 3990 c-12 -8 -10 -10 8 -10 13 0 20 4 17 10 -7 12 -6 12 -25 0z"/>
<path d="M8008 3972 c-20 -5 -25 -11 -19 -21 6 -8 17 -11 32 -6 19 5 21 4 9
-4 -12 -9 -9 -11 13 -11 16 0 26 4 23 8 -3 5 13 7 35 5 47 -4 52 12 7 20 -18
4 -42 8 -53 11 -11 2 -32 1 -47 -2z"/>
<path d="M7192 3956 c7 -7 19 -11 25 -9 7 3 13 0 13 -6 0 -6 6 -11 13 -11 7 0
32 -14 55 -31 23 -17 42 -28 42 -25 0 15 -65 76 -81 76 -10 0 -19 5 -19 10 0
6 -14 10 -30 10 -26 0 -29 -2 -18 -14z"/>
<path d="M7357 3964 c-3 -3 -2 -16 3 -29 5 -13 6 -25 4 -28 -3 -3 -7 -17 -8
-32 -2 -18 0 -23 7 -16 12 12 20 111 9 111 -5 0 -11 -3 -15 -6z"/>
<path d="M8185 3960 c-16 -7 -12 -9 17 -8 20 1 34 6 32 10 -6 10 -23 9 -49 -2z"/>
<path d="M8250 3947 c0 -8 8 -23 18 -34 9 -10 16 -17 15 -14 -2 2 2 10 8 18 8
9 8 13 1 13 -6 0 -18 7 -26 16 -14 13 -16 13 -16 1z"/>
<path d="M7925 3940 c3 -5 15 -10 25 -10 10 0 22 5 25 10 4 6 -7 10 -25 10
-18 0 -29 -4 -25 -10z"/>
<path d="M7928 3913 c7 -3 16 -2 19 1 4 3 -2 6 -13 5 -11 0 -14 -3 -6 -6z"/>
<path d="M7603 3903 c-15 -5 -17 -23 -4 -23 5 0 11 7 15 15 3 8 4 15 3 14 -1
0 -8 -3 -14 -6z"/>
<path d="M7835 3900 c-19 -8 -19 -9 2 -9 12 -1 25 4 28 9 7 12 -2 12 -30 0z"/>
<path d="M7632 3882 c-14 -14 -23 -16 -40 -9 -15 7 -26 6 -37 -3 -14 -12 -14
-15 1 -31 16 -18 18 -17 58 3 22 11 46 28 53 37 8 10 12 12 13 4 0 -15 40 -18
40 -4 0 25 -64 27 -88 3z"/>
<path d="M7745 3890 c3 -5 15 -10 26 -10 10 0 19 5 19 10 0 6 -12 10 -26 10
-14 0 -23 -4 -19 -10z"/>
<path d="M8424 3884 c3 -9 6 -18 6 -20 0 -3 5 -2 10 1 16 10 12 35 -6 35 -11
0 -14 -5 -10 -16z"/>
<path d="M7505 3879 c-10 -15 3 -25 16 -12 7 7 7 13 1 17 -6 3 -14 1 -17 -5z"/>
<path d="M8317 3873 c-10 -9 -9 -23 1 -23 5 0 9 7 9 15 0 17 -1 18 -10 8z"/>
<path d="M8355 3850 c0 -33 15 -39 36 -14 11 14 10 18 -6 30 -27 20 -30 18
-30 -16z"/>
<path d="M6165 3862 c-16 -12 -16 -32 0 -32 8 0 15 9 15 20 0 22 -1 23 -15 12z"/>
<path d="M5317 3846 c-23 -18 -22 -23 8 -28 25 -5 32 6 17 29 -5 8 -11 8 -25
-1z"/>
<path d="M6210 3840 c0 -11 2 -20 4 -20 2 0 6 9 9 20 3 11 1 20 -4 20 -5 0 -9
-9 -9 -20z"/>
<path d="M7420 3840 c-6 -11 -7 -20 -3 -21 41 -4 79 -29 65 -44 -4 -5 12 2 35
15 48 26 49 43 1 30 -36 -11 -48 -6 -48 21 0 26 -36 25 -50 -1z"/>
<path d="M5150 3830 c0 -5 5 -10 10 -10 6 0 10 5 10 10 0 6 -4 10 -10 10 -5 0
-10 -4 -10 -10z"/>
<path d="M5243 3833 c4 -3 2 -13 -5 -20 -14 -18 5 -33 32 -26 19 5 20 40 1 36
-6 -2 -11 2 -11 7 0 6 -5 10 -12 10 -6 0 -8 -3 -5 -7z"/>
<path d="M362 3810 c0 -14 2 -19 5 -12 2 6 2 18 0 25 -3 6 -5 1 -5 -13z"/>
<path d="M5117 3802 c2 -9 -3 -11 -16 -7 -11 3 -22 1 -26 -5 -3 -5 1 -10 10
-10 9 0 13 -4 10 -10 -3 -6 5 -10 19 -10 18 0 24 4 20 15 -4 8 -1 15 5 15 6 0
11 5 11 11 0 6 -6 9 -14 6 -8 -3 -17 -3 -19 1 -2 4 -2 1 0 -6z"/>
<path d="M7391 3788 c22 -41 36 -50 59 -38 11 6 20 16 20 22 0 7 -4 7 -13 0
-15 -13 -31 -4 -40 21 -3 9 -13 17 -22 17 -13 0 -14 -4 -4 -22z"/>
<path d="M8350 3805 c0 -32 73 -76 93 -56 5 5 -3 12 -21 15 -16 4 -39 16 -51
27 -11 11 -21 17 -21 14z"/>
<path d="M8450 3799 c0 -5 5 -7 10 -4 6 3 10 8 10 11 0 2 -4 4 -10 4 -5 0 -10
-5 -10 -11z"/>
<path d="M4997 3741 c-33 -21 -54 -42 -48 -45 6 -4 22 0 35 9 24 16 26 16 51
-9 22 -22 25 -23 25 -6 0 10 -10 26 -22 34 -12 9 -19 19 -15 22 4 4 13 1 22
-6 13 -11 15 -9 15 14 0 14 -1 26 -2 26 -2 0 -29 -18 -61 -39z"/>
<path d="M6201 3764 c0 -11 3 -14 6 -6 3 7 2 16 -1 19 -3 4 -6 -2 -5 -13z"/>
<path d="M6150 3755 c-10 -13 -10 -19 4 -33 18 -20 22 -37 6 -27 -23 14 -8 -3
21 -24 18 -13 29 -19 25 -12 -4 6 0 14 8 17 24 9 19 23 -9 30 -30 7 -50 29
-35 39 12 8 13 25 1 25 -5 0 -14 -7 -21 -15z m60 -64 c0 -6 -4 -12 -8 -15 -5
-3 -9 1 -9 9 0 8 4 15 9 15 4 0 8 -4 8 -9z"/>
<path d="M8688 3737 c-8 -18 -15 -52 -17 -76 -1 -24 -8 -56 -16 -72 -13 -24
-13 -32 0 -62 8 -19 11 -38 7 -42 -4 -5 -2 -5 5 -1 14 8 37 75 29 83 -3 4 -6
1 -6 -5 0 -7 -5 -12 -10 -12 -7 0 -7 6 0 19 12 24 13 41 0 21 -5 -8 -11 -12
-14 -9 -3 3 2 16 11 28 11 17 18 20 23 10 5 -7 11 12 15 47 4 32 9 66 11 75 9
32 -23 28 -38 -4z"/>
<path d="M372 3740 c0 -14 2 -19 5 -12 2 6 2 18 0 25 -3 6 -5 1 -5 -13z"/>
<path d="M8510 3750 c-13 -9 -13 -11 0 -20 12 -8 12 -10 -5 -10 -15 -1 -12 -5
15 -20 39 -22 50 -24 50 -11 0 5 -10 11 -21 14 -17 5 -20 11 -15 31 7 28 0 32
-24 16z"/>
<path d="M8570 3730 c0 -5 7 -10 15 -10 8 0 15 5 15 10 0 6 -7 10 -15 10 -8 0
-15 -4 -15 -10z"/>
<path d="M367 3661 c-2 -21 -1 -57 3 -80 6 -33 5 -41 -5 -37 -7 2 -15 -3 -18
-13 -7 -27 6 -94 19 -98 16 -5 41 105 33 142 -4 17 -7 23 -9 15 -2 -18 -18 16
-19 40 -1 13 0 13 9 0 7 -11 10 -6 10 22 0 50 -16 57 -23 9z m13 -147 c0 -8
-5 -12 -10 -9 -6 4 -8 11 -5 16 9 14 15 11 15 -7z"/>
<path d="M4897 3676 c-18 -14 -18 -14 0 -18 10 -2 26 -2 36 0 14 4 15 7 6 18
-14 17 -19 17 -42 0z"/>
<path d="M317 3673 c-4 -3 -7 -17 -7 -30 0 -14 -4 -21 -10 -18 -18 11 -11 -11
10 -30 18 -16 20 -16 26 -1 3 9 1 23 -6 31 -7 8 -10 24 -7 35 5 21 4 24 -6 13z"/>
<path d="M4980 3657 c-33 -15 -33 -14 -26 -26 7 -11 86 17 86 31 0 11 -30 9
-60 -5z"/>
<path d="M6250 3660 c0 -5 7 -10 15 -10 8 0 15 5 15 10 0 6 -7 10 -15 10 -8 0
-15 -4 -15 -10z"/>
<path d="M8570 3625 c0 -27 -3 -71 -6 -96 -5 -38 -3 -47 12 -53 9 -3 19 -4 22
-2 2 3 0 39 -5 79 -7 57 -6 74 3 70 7 -2 15 0 19 6 5 10 0 13 -22 10 -4 0 -11
8 -15 18 -5 12 -7 0 -8 -32z"/>
<path d="M4846 3635 c-28 -21 -12 -30 18 -10 23 16 26 16 32 1 3 -9 10 -13 16
-10 10 6 -20 33 -37 33 -5 0 -19 -6 -29 -14z"/>
<path d="M6357 3632 c1 -8 3 -20 3 -28 0 -8 10 -19 23 -24 12 -5 16 -9 10 -9
-7 -1 -13 -5 -13 -9 0 -5 10 -8 22 -8 17 1 22 -5 23 -24 0 -14 5 -24 12 -23 7
2 10 -4 7 -12 -7 -16 4 -19 24 -7 9 6 7 13 -8 30 -11 11 -20 23 -20 26 0 14
-63 95 -70 91 -5 -3 -10 -2 -13 2 -2 5 -2 2 0 -5z"/>
<path d="M6190 3625 c0 -9 5 -15 11 -13 6 2 11 8 11 13 0 5 -5 11 -11 13 -6 2
-11 -4 -11 -13z"/>
<path d="M6250 3620 c0 -5 7 -10 16 -10 8 0 12 5 9 10 -3 6 -10 10 -16 10 -5
0 -9 -4 -9 -10z"/>
<path d="M4762 3578 c-19 -19 -14 -38 11 -38 17 0 19 2 8 9 -12 8 -12 12 -2
25 16 19 1 22 -17 4z"/>
<path d="M308 3510 c2 -16 7 -28 11 -26 4 3 7 -10 7 -27 0 -42 12 -87 23 -87
8 0 5 41 -6 70 -3 8 -5 25 -4 38 1 12 -2 22 -8 22 -6 0 -11 9 -11 20 0 11 -4
20 -8 20 -5 0 -7 -13 -4 -30z"/>
<path d="M4718 3514 c-4 -6 -1 -20 7 -30 11 -15 16 -17 26 -6 11 10 10 12 -3
12 -9 0 -18 8 -20 18 -2 11 -6 13 -10 6z"/>
<path d="M4776 3512 c-2 -4 -1 -14 4 -22 7 -11 9 -9 7 8 -1 24 -3 26 -11 14z"/>
<path d="M410 3458 c0 -9 5 -20 10 -23 13 -8 13 5 0 25 -8 13 -10 13 -10 -2z"/>
<path d="M8536 3422 c-4 -18 -5 -36 -2 -39 11 -12 17 5 14 39 l-3 33 -9 -33z"/>
<path d="M425 3397 c2 -12 7 -39 13 -61 10 -35 4 -64 -18 -86 -3 -3 -6 -9 -6
-15 -1 -5 -5 -20 -8 -31 -5 -15 -2 -24 10 -28 23 -9 34 11 27 48 -6 26 -4 28
9 16 8 -8 13 -24 10 -35 -4 -16 -2 -18 8 -8 10 9 9 28 -9 97 -11 47 -21 94
-21 106 0 11 -4 20 -9 20 -4 0 -7 -10 -6 -23z"/>
<path d="M8606 3408 c-13 -40 -15 -68 -6 -73 5 -3 7 -19 3 -35 -3 -20 -1 -30
6 -30 8 0 10 8 6 22 -6 17 -4 20 9 15 24 -10 34 23 12 39 -10 7 -15 17 -12 23
4 5 1 13 -5 16 -5 4 -8 13 -5 21 3 8 3 14 0 14 -2 0 -6 -6 -8 -12z"/>
<path d="M8652 3400 c-8 -13 -8 -20 -2 -20 6 0 13 7 17 15 9 24 -1 27 -15 5z"/>
<path d="M345 3339 c10 -35 23 -45 18 -15 -3 15 -10 29 -15 32 -6 4 -7 -2 -3
-17z"/>
<path d="M8570 3324 c0 -14 4 -23 9 -20 5 3 7 15 4 26 -7 28 -13 25 -13 -6z"/>
<path d="M8506 3304 c-7 -37 0 -74 14 -74 15 0 22 38 10 60 -6 11 -8 25 -5 30
3 5 1 11 -4 14 -5 3 -12 -10 -15 -30z"/>
<path d="M370 3259 c0 -14 12 -39 19 -39 3 0 7 11 7 23 1 14 -4 24 -12 24 -8
0 -14 -4 -14 -8z"/>
<path d="M8613 3237 c4 -12 2 -28 -2 -36 -11 -17 -32 -5 -24 14 3 9 -1 15 -10
15 -8 0 -18 -7 -21 -16 -9 -22 -8 -24 9 -24 8 0 15 -4 15 -10 0 -21 28 -9 38
18 12 33 12 62 -1 62 -5 0 -7 -10 -4 -23z"/>
<path d="M8485 3211 c-4 -12 -4 -25 -1 -28 3 -4 6 0 6 8 1 10 3 9 11 -3 11
-20 39 -25 39 -7 0 5 -4 8 -10 4 -5 -3 -15 7 -23 22 -14 27 -14 27 -22 4z"/>
<path d="M4611 3163 c0 -6 -4 -20 -7 -30 -5 -14 -4 -15 5 -7 7 7 11 20 8 30
-3 11 -5 14 -6 7z"/>
<path d="M8457 3104 c-11 -38 -25 -87 -33 -109 -13 -36 -13 -38 1 -21 8 11 15
14 15 7 0 -19 18 -3 36 30 12 24 13 34 3 45 -6 8 -8 14 -3 14 5 0 3 4 -5 9
-10 7 -11 13 -1 30 6 12 10 31 8 43 -2 11 -11 -10 -21 -48z m13 -68 c0 -14 -4
-27 -8 -30 -5 -3 -9 8 -9 24 0 17 4 30 9 30 4 0 8 -11 8 -24z"/>
<path d="M416 3148 c3 -4 12 -8 20 -8 12 0 15 -10 14 -37 -3 -56 -1 -65 10
-58 6 3 10 1 10 -4 0 -6 3 -10 8 -10 31 5 42 -2 36 -25 -3 -14 -1 -27 6 -31
22 -14 28 17 12 66 -16 48 -27 53 -34 15 -3 -19 -4 -19 -20 -2 -12 11 -18 33
-18 62 0 40 -2 44 -24 42 -14 -1 -22 -6 -20 -10z"/>
<path d="M8567 3123 c-11 -3 -16 -11 -13 -19 3 -7 -1 -19 -8 -27 -10 -10 -11
-18 -3 -33 9 -17 9 -18 -6 -5 -15 12 -17 11 -17 -3 0 -9 4 -16 9 -16 5 0 7 -8
5 -18 -3 -9 -1 -28 5 -42 l10 -25 2 25 c0 14 1 32 0 41 -1 9 5 22 14 29 8 7
12 17 9 22 -4 6 -2 13 4 17 13 8 27 61 16 60 -5 -1 -17 -3 -27 -6z"/>
<path d="M418 3114 c-5 -4 -8 -16 -8 -28 0 -14 3 -17 11 -9 6 6 9 19 7 28 -1
9 -6 13 -10 9z"/>
<path d="M5382 3090 c-14 -23 -16 -40 -3 -40 7 0 23 51 17 57 -1 1 -7 -7 -14
-17z"/>
<path d="M461 2981 c-14 -26 -14 -44 1 -39 15 5 29 46 18 53 -5 3 -14 -3 -19
-14z"/>
<path d="M8490 2970 c0 -11 0 -23 -1 -27 0 -4 4 -9 10 -11 6 -2 11 10 11 27 0
17 -4 31 -10 31 -5 0 -10 -9 -10 -20z"/>
<path d="M6356 2964 c-9 -22 -7 -54 2 -54 4 0 8 16 8 35 0 39 -1 42 -10 19z"/>
<path d="M477 2942 c-19 -21 -22 -32 -7 -32 6 0 10 7 10 15 0 8 4 15 10 15 6
0 6 -9 0 -26 -13 -32 -13 -41 0 -28 13 13 22 74 11 74 -4 0 -15 -8 -24 -18z"/>
<path d="M8407 2944 c-4 -4 -7 -14 -7 -22 0 -9 3 -13 6 -9 4 3 15 -4 25 -16
10 -12 18 -17 19 -10 0 6 -5 15 -11 18 -6 4 -14 16 -18 26 -4 11 -10 17 -14
13z"/>
<path d="M4465 2931 c-3 -5 -1 -12 5 -16 5 -3 10 1 10 9 0 18 -6 21 -15 7z"/>
<path d="M6125 2931 c-3 -5 4 -13 16 -16 23 -8 34 -1 24 14 -8 13 -32 14 -40
2z"/>
<path d="M550 2906 c0 -22 25 -54 35 -44 8 7 -16 68 -26 68 -5 0 -9 -11 -9
-24z"/>
<path d="M6230 2920 c0 -5 5 -10 10 -10 6 0 10 5 10 10 0 6 -4 10 -10 10 -5 0
-10 -4 -10 -10z"/>
<path d="M8450 2921 c0 -6 5 -13 10 -16 6 -3 10 1 10 9 0 9 -4 16 -10 16 -5 0
-10 -4 -10 -9z"/>
<path d="M6097 2913 c-4 -3 -7 -16 -6 -27 0 -19 1 -19 10 3 10 24 8 36 -4 24z"/>
<path d="M8475 2883 c-3 -21 -8 -49 -11 -62 -4 -18 -1 -22 10 -18 11 4 13 1
10 -11 -5 -15 -4 -15 6 1 6 9 8 23 4 29 -10 16 -16 76 -6 61 11 -17 34 0 26
20 -11 30 -33 19 -39 -20z"/>
<path d="M8388 2855 c-3 -14 -1 -25 3 -25 5 0 9 11 9 25 0 14 -2 25 -4 25 -2
0 -6 -11 -8 -25z"/>
<path d="M4450 2848 c-10 -21 -10 -21 3 -6 8 10 18 14 22 10 5 -4 5 -1 1 6
-10 17 -14 15 -26 -10z"/>
<path d="M8430 2850 c-6 -11 -9 -29 -7 -38 4 -13 5 -13 6 4 0 11 6 25 13 32 6
6 9 14 6 18 -4 3 -12 -4 -18 -16z"/>
<path d="M497 2843 c-10 -10 -8 -25 2 -19 5 4 7 -4 3 -16 -4 -16 -2 -19 8 -13
10 6 12 3 7 -14 -4 -17 -2 -21 11 -19 9 2 18 14 20 26 5 30 21 24 43 -17 25
-46 27 -47 26 -7 0 19 -3 34 -6 34 -19 -2 -31 3 -31 13 0 6 7 9 15 5 17 -6 19
2 6 22 -9 15 -20 15 -38 0 -8 -6 -19 -6 -32 1 -23 13 -26 13 -34 4z"/>
<path d="M6343 2802 c-10 -45 -2 -79 17 -67 8 5 6 102 -2 110 -2 2 -9 -17 -15
-43z"/>
<path d="M5967 2833 c-11 -10 -8 -33 4 -33 6 0 9 6 6 14 -3 8 -1 17 6 20 7 3
8 5 1 5 -6 1 -14 -2 -17 -6z"/>
<path d="M8360 2811 c0 -5 -2 -15 -5 -23 -2 -7 4 -24 15 -38 l20 -25 0 41 c0
28 -5 44 -15 48 -8 3 -15 1 -15 -3z"/>
<path d="M4436 2794 c-4 -9 -4 -19 -1 -22 2 -3 7 3 11 12 4 9 4 19 1 22 -2 3
-7 -3 -11 -12z"/>
<path d="M4507 2803 c-11 -10 -8 -43 3 -43 6 0 10 11 10 25 0 26 -2 29 -13 18z"/>
<path d="M5917 2804 c-9 -9 5 -45 17 -41 17 6 19 34 2 40 -8 3 -16 3 -19 1z"/>
<path d="M8432 2765 c-1 -14 2 -25 7 -25 5 0 11 11 13 25 3 15 1 25 -6 25 -6
0 -13 -11 -14 -25z"/>
<path d="M542 2695 c11 -27 21 -51 22 -53 2 -1 3 16 4 38 1 31 -2 40 -14 40
-13 0 -14 3 -4 14 9 12 8 15 -8 13 -20 -1 -20 -1 0 -52z"/>
<path d="M6310 2710 c0 -16 5 -30 10 -30 6 0 10 6 10 14 0 8 3 21 6 30 4 11 1
16 -10 16 -11 0 -16 -9 -16 -30z"/>
<path d="M6376 2730 c-12 -30 -13 -101 0 -96 6 2 17 -1 23 -7 15 -15 13 25 -3
78 -9 27 -15 35 -20 25z"/>
<path d="M8325 2709 c-4 -13 -1 -27 11 -40 17 -19 17 -20 -3 -39 -12 -10 -23
-25 -26 -32 -2 -7 -8 -10 -12 -6 -4 4 0 17 9 30 18 25 20 38 8 38 -8 0 -47
-96 -47 -115 0 -5 -8 -18 -18 -28 -14 -14 -15 -22 -7 -37 6 -11 8 -25 5 -30
-3 -6 -2 -10 3 -10 17 0 20 12 12 41 -6 20 -5 31 4 36 7 5 16 16 19 26 4 10
11 15 17 12 5 -3 10 1 10 10 0 8 7 18 15 21 8 4 15 14 15 24 0 10 6 20 13 23
9 3 9 9 0 25 -6 11 -9 29 -6 40 7 27 -14 38 -22 11z"/>
<path d="M8388 2675 c-2 -22 1 -40 9 -47 7 -6 13 -7 13 -2 0 5 5 2 11 -6 8
-11 8 -9 3 10 -4 14 -8 36 -8 49 -1 39 -23 36 -28 -4z"/>
<path d="M617 2694 c-4 -4 1 -13 10 -19 16 -12 16 -14 -1 -40 -10 -15 -15 -29
-12 -32 2 -3 0 -16 -5 -30 -7 -18 -5 -32 6 -51 8 -15 24 -48 35 -74 10 -27 24
-48 29 -48 6 0 8 -6 5 -13 -2 -7 2 -21 10 -32 15 -19 15 -19 9 3 -3 13 -1 22
6 22 6 0 11 6 11 14 0 8 5 18 12 22 14 9 61 -43 52 -58 -4 -6 -1 -13 5 -17 7
-5 9 -15 5 -26 -7 -18 -8 -18 -15 1 -6 17 -8 16 -20 -11 -6 -16 -11 -37 -10
-45 4 -27 62 -140 72 -140 6 0 8 -4 5 -8 -2 -4 0 -14 6 -22 8 -13 9 -12 5 2
-4 10 1 18 15 21 11 3 17 10 13 16 -9 15 -28 14 -20 -1 4 -7 -1 -4 -9 6 -10
12 -14 28 -10 40 6 21 6 21 -10 1 -16 -19 -16 -19 -10 7 4 20 1 29 -15 38 -25
13 -28 55 -5 64 28 11 34 7 34 -24 0 -16 4 -30 9 -30 11 0 41 -57 41 -78 0
-11 3 -12 13 -3 8 6 16 8 20 5 3 -3 3 4 0 15 -3 12 -10 24 -16 28 -6 4 -7 1
-2 -7 6 -9 4 -11 -4 -6 -7 5 -10 14 -7 22 3 7 -1 20 -9 28 -8 8 -15 21 -15 29
0 8 -7 20 -15 27 -8 7 -13 16 -10 20 3 5 -2 15 -10 23 -8 9 -15 21 -15 27 0
10 -39 89 -50 100 -3 3 -7 14 -8 25 -2 11 -8 22 -13 23 -5 2 -9 10 -9 18 0 8
-7 28 -15 45 -16 31 -35 31 -35 0 0 -10 -10 -26 -21 -37 l-21 -19 7 34 c5 26
4 32 -5 26 -9 -5 -11 -4 -6 4 6 9 11 9 21 1 9 -8 14 -5 19 12 3 13 1 25 -5 26
-6 3 -6 9 1 17 7 8 9 24 5 36 -5 15 -9 18 -15 9 -6 -9 -10 -8 -17 4 -5 9 -12
14 -16 10z m76 -151 c-3 -7 0 -20 7 -28 7 -8 9 -23 5 -36 -7 -22 -8 -22 -21
-4 -10 13 -14 14 -14 5 0 -10 -3 -11 -11 -3 -13 13 -1 63 17 70 7 2 10 12 7
21 -4 14 -3 14 5 3 6 -8 8 -20 5 -28z m41 -105 c6 -4 -4 -8 -21 -8 -18 0 -33
5 -33 11 0 5 5 7 10 4 6 -3 13 2 17 11 5 14 8 15 11 3 3 -7 10 -17 16 -21z
m63 -250 c-3 -8 -6 -5 -6 6 -1 11 2 17 5 13 3 -3 4 -12 1 -19z"/>
<path d="M8426 2684 c-3 -9 -1 -23 5 -32 10 -16 10 -15 5 1 -3 9 -1 17 3 17 5
0 11 7 15 15 3 9 0 15 -8 15 -8 0 -17 -7 -20 -16z"/>
<path d="M5720 2664 c0 -8 9 -14 20 -14 11 0 20 6 20 13 0 7 -9 13 -20 14 -11
1 -20 -4 -20 -13z"/>
<path d="M5646 2655 c-8 -8 -22 -15 -30 -15 -9 0 -16 -4 -16 -9 0 -5 17 -5 39
1 27 7 38 14 34 24 -6 17 -8 17 -27 -1z"/>
<path d="M5460 2646 c0 -17 27 -29 35 -16 4 6 3 15 0 20 -9 15 -35 12 -35 -4z"/>
<path d="M5964 2621 c3 -5 15 -7 26 -4 28 7 25 13 -6 13 -14 0 -23 -4 -20 -9z"/>
<path d="M8390 2590 c0 -11 -6 -20 -14 -20 -8 0 -16 -7 -20 -15 -7 -18 5 -20
23 -2 10 10 11 8 5 -8 -10 -28 0 -16 19 22 14 27 15 32 2 37 -10 4 -15 -1 -15
-14z"/>
<path d="M6416 2577 c3 -10 9 -15 12 -12 3 3 0 11 -7 18 -10 9 -11 8 -5 -6z"/>
<path d="M5806 2569 c2 -4 -2 -9 -8 -12 -7 -2 1 -7 18 -11 20 -5 44 -2 65 8
l34 14 -30 2 c-74 6 -83 5 -79 -1z"/>
<path d="M5955 2560 c6 -9 -8 -14 -27 -11 -5 0 -8 -1 -8 -3 0 -9 29 -70 30
-62 0 5 6 3 13 -3 11 -9 14 -3 13 34 -1 27 -6 47 -14 50 -7 3 -10 0 -7 -5z"/>
<path d="M6000 2555 c0 -8 5 -15 10 -15 6 0 10 7 10 15 0 8 -4 15 -10 15 -5 0
-10 -7 -10 -15z"/>
<path d="M5720 2549 c0 -5 -5 -7 -10 -4 -12 7 -40 -12 -40 -26 0 -5 8 -6 18
-2 14 5 13 3 -3 -10 -25 -21 -16 -21 51 -1 59 17 67 29 28 44 -33 13 -44 13
-44 -1z"/>
<path d="M4205 2530 c3 -5 1 -10 -5 -10 -17 0 -42 -28 -31 -34 5 -3 11 1 15 9
7 19 21 19 40 0 10 -10 17 -12 21 -4 4 6 -2 13 -13 16 -13 3 -18 11 -15 19 3
8 0 14 -7 14 -6 0 -8 -4 -5 -10z"/>
<path d="M6428 2525 c-11 -41 -9 -127 2 -120 6 3 10 12 9 18 -1 7 1 24 5 39 5
15 4 40 -1 55 -9 25 -10 26 -15 8z"/>
<path d="M8332 2514 c-15 -17 -16 -37 -1 -28 8 5 10 0 6 -17 -3 -13 -9 -37
-12 -54 l-6 -30 16 28 c9 15 13 32 10 37 -3 5 1 12 9 17 13 8 20 25 17 49 -1
15 -24 13 -39 -2z"/>
<path d="M5616 2491 c-4 -7 -5 -15 -2 -18 9 -9 19 4 14 18 -4 11 -6 11 -12 0z"/>
<path d="M4560 2480 c0 -5 6 -7 13 -4 10 4 12 -3 9 -26 -3 -25 -7 -28 -18 -19
-9 7 -14 8 -14 1 0 -5 7 -13 16 -16 22 -9 24 -8 24 9 0 8 6 14 13 13 6 -2 11
4 11 13 -1 14 4 15 27 9 17 -5 31 -5 34 1 4 5 -5 9 -19 9 -14 0 -26 3 -26 8 0
4 -16 8 -35 9 -19 2 -35 -1 -35 -7z"/>
<path d="M4702 2481 c-4 -4 -8 -12 -7 -20 0 -18 98 -48 103 -32 2 6 10 11 17
11 8 0 19 8 24 18 8 16 6 17 -25 14 -19 -2 -34 0 -34 5 0 10 -65 13 -78 4z
m33 -21 c-3 -5 -11 -10 -16 -10 -6 0 -7 5 -4 10 3 6 11 10 16 10 6 0 7 -4 4
-10z m55 -10 c0 -13 -11 -13 -30 0 -12 8 -11 10 8 10 12 0 22 -4 22 -10z"/>
<path d="M4943 2483 c9 -2 25 -2 35 0 9 3 1 5 -18 5 -19 0 -27 -2 -17 -5z"/>
<path d="M5260 2476 c0 -9 5 -16 10 -16 6 0 10 4 10 9 0 6 -4 13 -10 16 -5 3
-10 -1 -10 -9z"/>
<path d="M5304 2474 c3 -9 6 -18 6 -20 0 -2 7 -4 16 -4 8 0 12 -4 9 -10 -4 -6
5 -8 22 -5 34 6 201 27 225 28 9 1 14 5 11 9 -2 5 -30 8 -61 6 -31 -1 -66 2
-76 7 -16 7 -18 5 -13 -8 5 -14 2 -14 -28 -1 -40 16 -59 18 -50 4 3 -6 -4 -10
-17 -10 -18 0 -20 2 -8 10 12 8 9 10 -14 10 -22 0 -27 -4 -22 -16z"/>
<path d="M4510 2456 c0 -9 7 -16 16 -16 17 0 14 22 -4 28 -7 2 -12 -3 -12 -12z"/>
<path d="M5070 2461 c0 -5 14 -9 30 -9 17 1 30 5 30 10 0 4 -13 8 -30 8 -16 0
-30 -4 -30 -9z"/>
<path d="M8291 2454 c-11 -13 -11 -18 0 -30 12 -11 14 -9 15 16 1 17 1 30 0
30 0 -1 -7 -8 -15 -16z"/>
<path d="M5213 2423 c9 -2 25 -2 35 0 9 3 1 5 -18 5 -19 0 -27 -2 -17 -5z"/>
<path d="M6465 2420 c3 -5 8 -10 11 -10 2 0 4 5 4 10 0 6 -5 10 -11 10 -5 0
-7 -4 -4 -10z"/>
<path d="M8205 2420 c3 -5 11 -10 16 -10 6 0 7 5 4 10 -3 6 -11 10 -16 10 -6
0 -7 -4 -4 -10z"/>
<path d="M4855 2406 c23 -18 61 -21 70 -6 4 6 11 7 18 3 6 -3 24 -7 39 -8 21
-1 26 1 18 9 -6 6 -45 12 -88 14 -71 4 -76 3 -57 -12z"/>
<path d="M5128 2413 c12 -2 30 -2 40 0 9 3 -1 5 -23 4 -22 0 -30 -2 -17 -4z"/>
<path d="M6011 2404 c0 -11 3 -14 6 -6 3 7 2 16 -1 19 -3 4 -6 -2 -5 -13z"/>
<path d="M8263 2406 c-9 -10 -9 -24 -3 -47 11 -38 3 -79 -15 -79 -8 0 -17 -4
-20 -10 -4 -6 1 -7 12 -3 14 5 12 0 -7 -21 -14 -15 -25 -33 -26 -39 -4 -42 -4
-42 -13 -28 -10 16 -31 6 -31 -14 0 -7 10 -12 24 -11 21 1 49 36 61 76 1 3 7
18 13 33 7 16 12 33 12 38 0 6 4 8 8 5 5 -3 9 10 10 29 1 19 -3 37 -9 40 -5 4
-7 15 -4 26 7 22 5 23 -12 5z"/>
<path d="M5058 2403 c7 -3 16 -2 19 1 4 3 -2 6 -13 5 -11 0 -14 -3 -6 -6z"/>
<path d="M5970 2395 c0 -8 7 -15 15 -15 8 0 15 7 15 15 0 8 -7 15 -15 15 -8 0
-15 -7 -15 -15z"/>
<path d="M4522 2384 c-7 -8 -11 -18 -8 -23 7 -11 -22 -23 -36 -14 -7 4 -8 1
-3 -7 8 -14 -11 -30 -37 -30 -12 0 -15 6 -11 23 5 21 5 21 -12 5 -18 -17 -13
-38 10 -38 18 0 15 -38 -3 -45 -7 -3 -10 -10 -7 -15 4 -6 -1 -22 -10 -36 -9
-14 -14 -28 -12 -31 7 -6 52 55 52 70 1 7 6 11 12 10 6 -1 14 4 17 12 3 8 1
15 -5 15 -6 0 -7 5 -4 11 4 6 13 8 21 5 8 -3 14 1 14 9 0 8 9 19 21 25 11 7
18 14 15 17 -3 4 3 12 14 20 11 8 20 17 20 21 0 14 -35 10 -48 -4z"/>
<path d="M8177 2373 c-9 -21 -9 -27 1 -31 7 -2 10 -8 7 -12 -3 -5 -12 -7 -20
-3 -17 6 -20 -12 -4 -23 15 -9 36 15 44 49 5 18 3 27 -5 27 -6 0 -8 5 -5 10 3
6 4 10 0 10 -3 0 -11 -12 -18 -27z"/>
<path d="M8305 2369 c-4 -6 -5 -12 -2 -15 2 -3 7 2 10 11 7 17 1 20 -8 4z"/>
<path d="M6460 2359 c0 -5 5 -7 10 -4 6 3 10 8 10 11 0 2 -4 4 -10 4 -5 0 -10
-5 -10 -11z"/>
<path d="M6040 2340 c0 -5 5 -10 11 -10 5 0 7 5 4 10 -3 6 -8 10 -11 10 -2 0
-4 -4 -4 -10z"/>
<path d="M717 2326 c-3 -7 -1 -19 4 -27 8 -12 12 -11 24 5 8 11 15 23 15 26 0
12 -39 8 -43 -4z"/>
<path d="M4101 2324 c0 -11 3 -14 6 -6 3 7 2 16 -1 19 -3 4 -6 -2 -5 -13z"/>
<path d="M5988 2318 c5 -22 4 -22 24 1 15 18 14 19 -6 17 -17 -1 -22 -6 -18
-18z"/>
<path d="M6492 2320 c0 -14 2 -19 5 -12 2 6 2 18 0 25 -3 6 -5 1 -5 -13z"/>
<path d="M6124 2309 c-3 -6 -2 -15 4 -21 6 -6 11 -2 15 11 5 22 -7 29 -19 10z"/>
<path d="M8203 2313 c-7 -2 -13 -15 -13 -27 0 -12 -6 -28 -12 -36 -7 -8 -3 -6
8 3 12 10 24 29 27 43 2 13 4 24 3 23 0 0 -7 -3 -13 -6z"/>
<path d="M6017 2281 c-4 -16 1 -19 29 -19 19 0 34 4 34 9 0 4 -7 5 -17 2 -10
-4 -14 -2 -10 4 4 6 0 14 -9 17 -21 8 -21 8 -27 -13z"/>
<path d="M4375 2270 c-3 -5 -1 -10 4 -10 6 0 11 5 11 10 0 6 -2 10 -4 10 -3 0
-8 -4 -11 -10z"/>
<path d="M6447 2259 c-10 -36 -8 -69 3 -69 6 0 10 3 11 8 0 4 2 15 4 26 2 10
0 27 -4 39 -7 20 -8 20 -14 -4z"/>
<path d="M8115 2251 c-3 -6 -3 -21 0 -34 6 -22 -18 -57 -34 -49 -3 2 -7 -4 -9
-12 -5 -22 24 -20 38 2 9 14 10 13 4 -8 -4 -17 -3 -22 4 -15 13 12 23 113 12
120 -5 3 -11 1 -15 -4z"/>
<path d="M4370 2241 c0 -17 12 -41 21 -41 5 0 9 11 9 25 0 16 -6 25 -15 25 -8
0 -15 -4 -15 -9z"/>
<path d="M6076 2241 c-17 -7 -17 -8 6 -23 14 -9 33 -18 44 -20 10 -2 27 -12
36 -23 17 -20 17 -20 11 3 -3 13 -1 22 6 22 6 0 11 -5 11 -11 0 -6 7 -8 17 -5
10 4 14 4 10 0 -4 -4 2 -14 14 -22 28 -20 33 -10 9 18 -16 19 -33 25 -80 28
-46 3 -60 8 -62 22 -2 12 -8 15 -22 11z"/>
<path d="M8151 2221 c-8 -6 -9 -11 -3 -15 6 -3 14 -1 17 5 9 14 2 20 -14 10z"/>
<path d="M4280 2196 c0 -8 5 -18 12 -22 7 -4 8 -3 4 4 -4 7 -2 12 3 12 6 0 11
5 11 10 0 6 -7 10 -15 10 -8 0 -15 -6 -15 -14z"/>
<path d="M6487 2179 c-3 -11 -2 -30 1 -40 7 -17 9 -16 19 11 8 22 8 32 -2 40
-9 8 -14 5 -18 -11z"/>
<path d="M835 2160 c-3 -5 -1 -10 4 -10 6 0 11 5 11 10 0 6 -2 10 -4 10 -3 0
-8 -4 -11 -10z"/>
<path d="M4310 2149 c-16 -30 -8 -31 13 -3 10 13 13 24 8 24 -6 0 -15 -9 -21
-21z"/>
<path d="M6433 2143 c-4 -15 -6 -33 -5 -39 1 -6 -15 -20 -35 -29 -21 -10 -32
-20 -26 -22 7 -3 29 5 48 17 29 18 33 25 24 36 -9 11 -8 14 4 14 8 0 17 -6 20
-12 2 -7 4 2 3 21 -2 43 -23 52 -33 14z"/>
<path d="M4355 2134 c-24 -37 -13 -40 14 -4 12 17 17 30 12 30 -5 0 -16 -12
-26 -26z"/>
<path d="M6265 2143 c-3 -10 -1 -19 4 -21 6 -2 9 -8 5 -13 -3 -5 1 -9 9 -9 8
0 20 -7 27 -15 14 -17 35 -21 25 -5 -3 6 1 7 9 4 12 -5 16 1 16 26 l0 31 -45
-7 c-39 -5 -44 -4 -39 10 3 9 4 16 1 16 -3 0 -8 -8 -12 -17z"/>
<path d="M908 2115 c-2 -21 -8 -30 -20 -29 -16 2 -16 -1 3 -27 23 -33 44 -29
35 6 -4 17 -1 24 10 27 14 3 14 6 -4 28 l-20 25 -4 -30z"/>
<path d="M4266 2132 c-3 -5 1 -9 9 -9 8 0 12 4 9 9 -3 4 -7 8 -9 8 -2 0 -6 -4
-9 -8z"/>
<path d="M8130 2115 c-6 -16 -8 -36 -4 -44 6 -14 8 -14 11 2 3 10 11 16 18 13
22 -8 25 21 5 39 -19 17 -20 16 -30 -10z m35 -5 c3 -5 1 -10 -4 -10 -6 0 -11
5 -11 10 0 6 2 10 4 10 3 0 8 -4 11 -10z"/>
<path d="M8027 2084 c-15 -25 -24 -50 -21 -56 4 -6 10 -5 15 3 14 21 31 -9 18
-32 -16 -30 -9 -35 12 -10 18 21 18 26 4 41 -8 9 -15 27 -15 39 0 19 4 23 25
19 27 -6 33 10 13 30 -18 18 -21 16 -51 -34z"/>
<path d="M4320 2081 c0 -7 -4 -10 -8 -7 -5 3 -9 -2 -9 -10 0 -13 2 -13 16 0 8
9 12 19 8 22 -4 4 -7 2 -7 -5z"/>
<path d="M850 2060 c0 -5 5 -10 10 -10 6 0 10 5 10 10 0 6 -4 10 -10 10 -5 0
-10 -4 -10 -10z"/>
<path d="M4170 2050 c0 -11 2 -20 5 -20 2 0 9 9 15 20 9 16 8 20 -5 20 -8 0
-15 -9 -15 -20z"/>
<path d="M4105 2051 c-3 -5 -1 -12 5 -16 5 -3 10 1 10 9 0 18 -6 21 -15 7z"/>
<path d="M4244 2052 c12 -19 -12 -62 -35 -62 -18 0 -19 -2 -9 -15 11 -13 10
-14 -4 -9 -19 7 -22 -12 -3 -19 8 -4 4 -12 -13 -26 -14 -11 -29 -16 -35 -11
-15 12 -45 -14 -45 -40 0 -15 4 -20 15 -17 8 4 17 2 20 -3 3 -4 -1 -11 -7 -13
-9 -4 -10 -6 -1 -6 6 -1 29 24 50 54 21 31 55 75 75 98 41 45 47 60 23 50 -10
-3 -15 -1 -13 7 2 7 -3 15 -11 18 -8 2 -11 0 -7 -6z m-74 -166 c0 -2 -8 -10
-17 -17 -16 -13 -17 -12 -4 4 13 16 21 21 21 13z"/>
<path d="M966 2025 c-4 -14 -4 -31 0 -37 4 -5 0 -14 -7 -19 -12 -8 -12 -11 1
-19 22 -14 33 -12 26 6 -3 8 -2 12 4 9 20 -12 21 23 2 54 l-20 32 -6 -26z m24
-25 c0 -5 -5 -10 -11 -10 -5 0 -7 5 -4 10 3 6 8 10 11 10 2 0 4 -4 4 -10z"/>
<path d="M876 2025 c-3 -8 0 -18 7 -22 7 -5 21 -25 31 -45 24 -48 34 -48 33
-2 -1 29 -4 34 -19 31 -16 -5 -35 25 -30 46 4 14 -16 7 -22 -8z"/>
<path d="M7980 2000 c-6 -11 -8 -20 -6 -20 3 0 10 9 16 20 6 11 8 20 6 20 -3
0 -10 -9 -16 -20z"/>
<path d="M4140 1978 l1 -33 19 24 c21 24 19 41 -6 41 -9 0 -14 -11 -14 -32z"/>
<path d="M7985 1970 c-4 -6 -11 -8 -16 -5 -5 4 -14 -7 -21 -22 -7 -15 -15 -30
-18 -33 -3 -3 -15 -19 -27 -37 -21 -30 -22 -32 -5 -53 19 -23 46 -20 56 7 8
20 -3 31 -13 14 -13 -20 -23 3 -15 34 3 14 19 32 35 41 29 15 39 8 17 -14 -9
-9 -7 -16 6 -31 10 -11 15 -24 11 -30 -4 -7 0 -8 10 -5 24 10 38 41 21 51 -24
14 -46 69 -33 82 6 6 8 11 5 11 -4 0 -10 -5 -13 -10z"/>
<path d="M1017 1954 c-9 -10 -9 -44 1 -44 4 0 14 5 22 10 13 8 13 11 -1 25 -8
8 -18 12 -22 9z"/>
<path d="M8062 1943 c8 -10 6 -13 -6 -13 -10 0 -15 -4 -12 -9 4 -5 0 -11 -6
-14 -7 -2 -10 -8 -6 -12 10 -10 26 2 42 33 13 25 13 28 -4 28 -14 0 -16 -3 -8
-13z"/>
<path d="M960 1890 c0 -23 15 -27 23 -6 3 8 -1 17 -9 20 -9 4 -14 -1 -14 -14z"/>
<path d="M1045 1902 c-22 -15 -33 -48 -23 -66 11 -19 15 -14 44 42 8 16 -7 34
-21 24z"/>
<path d="M1071 1847 c-6 -8 -8 -17 -4 -20 11 -12 21 -7 26 13 6 23 -5 26 -22
7z"/>
<path d="M3927 1810 c3 -11 7 -20 9 -20 2 0 4 9 4 20 0 11 -4 20 -9 20 -5 0
-7 -9 -4 -20z"/>
<path d="M7857 1806 c-7 -18 1 -26 25 -26 24 0 23 17 -1 29 -14 8 -20 7 -24
-3z"/>
<path d="M1042 1794 c4 -21 22 -23 26 -1 2 10 -3 17 -13 17 -10 0 -15 -6 -13
-16z"/>
<path d="M1089 1776 c-11 -30 -15 -33 -28 -23 -14 11 -14 10 -2 -6 13 -17 16
-17 26 -3 16 21 27 8 14 -16 -6 -11 -9 -22 -6 -24 5 -6 34 54 39 81 6 37 -29
29 -43 -9z"/>
<path d="M4100 1803 c0 -4 5 -15 10 -23 8 -13 10 -13 10 2 0 9 -4 20 -10 23
-5 3 -10 3 -10 -2z"/>
<path d="M3952 1769 c2 -6 8 -10 13 -10 5 0 11 4 13 10 2 6 -4 11 -13 11 -9 0
-15 -5 -13 -11z"/>
<path d="M7920 1765 c-11 -13 -10 -14 4 -9 9 3 16 10 16 15 0 13 -6 11 -20 -6z"/>
<path d="M1152 1753 c-10 -4 -10 -8 -1 -19 6 -8 15 -11 20 -8 5 3 9 -1 9 -10
0 -25 34 -76 48 -71 6 2 13 0 13 -5 1 -6 2 -13 3 -18 3 -19 54 -73 60 -64 3 6
-13 35 -36 64 -24 29 -56 72 -72 96 -16 23 -29 42 -30 41 0 0 -7 -3 -14 -6z"/>
<path d="M4113 1746 c-16 -19 -13 -74 4 -80 8 -3 11 -10 8 -16 -3 -5 -1 -10 4
-10 6 0 11 6 11 12 0 7 7 2 15 -10 15 -20 14 -24 -10 -49 -28 -31 -32 -48 -11
-56 21 -8 27 3 15 26 -10 18 -9 19 17 14 16 -4 23 -4 17 -1 -7 3 -13 10 -13
15 0 6 5 7 12 3 8 -5 9 -1 5 12 -5 12 2 8 18 -11 21 -25 20 -19 -11 43 -36 71
-51 91 -41 51 4 -16 3 -18 -8 -9 -15 12 -28 53 -14 44 5 -3 9 4 9 15 0 24 -10
26 -27 7z"/>
<path d="M7846 1739 c-16 -20 -16 -49 1 -49 13 0 34 53 25 62 -4 4 -16 -2 -26
-13z"/>
<path d="M7930 1729 c0 -5 5 -7 10 -4 6 3 10 8 10 11 0 2 -4 4 -10 4 -5 0 -10
-5 -10 -11z"/>
<path d="M7796 1715 c-9 -26 -7 -32 5 -12 6 10 9 21 6 23 -2 3 -7 -2 -11 -11z"/>
<path d="M1135 1709 c-4 -6 -5 -12 -2 -15 2 -3 7 2 10 11 7 17 1 20 -8 4z"/>
<path d="M7876 1685 c-10 -7 -15 -18 -11 -24 3 -6 0 -11 -9 -11 -8 0 -16 -4
-18 -9 -1 -4 -14 -12 -28 -16 -20 -6 -23 -5 -12 6 19 20 14 36 -10 34 -24 -2
-35 -19 -18 -30 8 -5 6 -13 -7 -28 -17 -20 -17 -20 0 -14 15 6 17 3 12 -14 -7
-22 12 -52 27 -43 5 3 6 14 3 23 -4 12 2 21 19 29 14 6 33 24 43 39 10 15 23
34 30 41 27 29 11 42 -21 17z"/>
<path d="M1146 1661 c-3 -5 1 -11 9 -15 9 -3 15 0 15 9 0 16 -16 20 -24 6z"/>
<path d="M7732 1624 c-15 -30 -3 -49 15 -24 11 15 12 25 5 32 -7 7 -13 4 -20
-8z"/>
<path d="M1177 1612 c-8 -11 31 -54 43 -47 5 3 7 0 4 -8 -6 -18 19 -39 43 -35
10 2 17 -2 15 -10 -4 -22 30 -27 44 -7 8 10 14 13 14 7 0 -7 5 -12 12 -12 8 0
6 7 -5 18 -14 13 -19 14 -26 4 -6 -10 -13 -8 -33 8 -15 11 -30 20 -36 20 -5 0
-17 16 -28 35 -18 33 -37 44 -47 27z"/>
<path d="M3240 1580 c0 -5 5 -10 11 -10 5 0 7 5 4 10 -3 6 -8 10 -11 10 -2 0
-4 -4 -4 -10z"/>
<path d="M7694 1556 c3 -14 1 -28 -6 -32 -6 -4 -8 -3 -4 4 15 24 -11 17 -32
-9 -13 -16 -19 -29 -13 -29 5 0 13 5 16 10 4 7 12 7 25 0 26 -14 33 -13 26 5
-3 8 -2 15 2 15 14 0 10 49 -5 54 -12 5 -14 1 -9 -18z"/>
<path d="M3200 1563 c1 -5 12 -21 26 -38 24 -28 25 -29 19 -5 -10 33 -46 67
-45 43z"/>
<path d="M7737 1534 c3 -8 -1 -22 -8 -32 -7 -9 -1 -6 14 7 32 29 34 36 8 38
-14 1 -18 -3 -14 -13z"/>
<path d="M3177 1521 c-4 -17 -3 -21 5 -13 5 5 8 16 6 23 -3 8 -7 3 -11 -10z"/>
<path d="M4173 1513 c-12 -15 -21 -29 -19 -30 3 -3 68 17 75 23 5 4 -19 34
-28 34 -3 0 -16 -13 -28 -27z"/>
<path d="M4250 1520 c-4 -32 2 -73 16 -106 14 -34 34 -46 34 -20 0 8 6 16 13
19 9 3 9 8 -2 18 -9 9 -11 9 -7 2 13 -24 -12 -13 -28 12 -9 14 -12 25 -7 25 5
0 11 -6 14 -12 2 -7 7 -10 11 -7 4 4 1 13 -6 20 -7 8 -19 25 -25 39 -7 15 -12
19 -13 10z"/>
<path d="M4105 1510 c3 -5 8 -10 11 -10 2 0 4 5 4 10 0 6 -5 10 -11 10 -5 0
-7 -4 -4 -10z"/>
<path d="M7741 1483 c-7 -8 -11 -16 -8 -19 2 -2 10 2 17 11 17 20 9 27 -9 8z"/>
<path d="M1290 1471 c0 -6 5 -13 10 -16 6 -3 10 1 10 9 0 9 -4 16 -10 16 -5 0
-10 -4 -10 -9z"/>
<path d="M1350 1466 c0 -9 5 -16 10 -16 6 0 10 4 10 9 0 6 -4 13 -10 16 -5 3
-10 -1 -10 -9z"/>
<path d="M1384 1474 c3 -6 -4 -21 -15 -33 -12 -12 -18 -29 -15 -37 6 -17 28
-15 27 1 0 6 7 17 15 26 12 13 12 18 -2 35 -8 10 -13 14 -10 8z"/>
<path d="M7603 1461 c-9 -14 -8 -22 4 -34 15 -15 17 -15 29 1 8 11 9 22 3 34
-12 23 -21 23 -36 -1z"/>
<path d="M7660 1474 c1 -16 38 -59 46 -52 4 4 -5 20 -19 34 -15 15 -27 23 -27
18z"/>
<path d="M3136 1428 c-10 -24 -24 -56 -32 -71 -13 -27 -13 -30 16 -57 16 -15
30 -27 31 -27 2 3 5 197 4 197 -1 0 -10 -19 -19 -42z m-1 -85 c-9 -8 -18 -13
-21 -10 -8 8 19 36 29 30 4 -2 0 -11 -8 -20z"/>
<path d="M4101 1454 c0 -11 3 -14 6 -6 3 7 2 16 -1 19 -3 4 -6 -2 -5 -13z"/>
<path d="M4220 1421 c0 -12 5 -21 10 -21 6 0 10 6 10 14 0 8 -4 18 -10 21 -5
3 -10 -3 -10 -14z"/>
<path d="M7560 1415 c-7 -9 -10 -18 -7 -21 3 -3 10 4 17 15 13 25 8 27 -10 6z"/>
<path d="M1412 1402 c-16 -14 -18 -22 -10 -30 15 -15 -3 -16 -20 -2 -9 7 -9 7
-2 -2 6 -7 23 -13 38 -14 24 -1 28 2 27 27 -1 38 -8 42 -33 21z"/>
<path d="M7656 1398 c3 -4 1 -8 -5 -8 -6 0 -8 -7 -5 -15 5 -13 10 -12 25 6 23
27 23 25 0 25 -11 0 -17 -4 -15 -8z"/>
<path d="M4327 1373 c4 -11 3 -14 -5 -9 -15 9 -16 -6 -1 -21 6 -6 18 -9 25 -6
8 3 14 0 14 -7 0 -6 -10 -10 -22 -8 -15 2 -24 -3 -26 -14 -3 -14 3 -18 26 -18
61 0 65 8 30 56 -32 44 -53 58 -41 27z"/>
<path d="M7538 1368 c0 -7 -2 -20 -2 -28 -1 -8 -7 -14 -14 -12 -15 3 -15 -4
-2 -29 7 -13 7 -19 0 -19 -5 0 -10 -5 -10 -10 0 -6 8 -5 20 2 11 7 16 14 10
16 -10 4 -14 32 -5 32 4 0 19 -7 35 -15 24 -12 28 -13 24 -2 -3 8 -16 20 -30
27 -17 10 -22 19 -18 32 3 10 3 18 0 18 -3 0 -7 -6 -8 -12z"/>
<path d="M1464 1357 c-3 -9 -15 -17 -25 -17 -10 0 -19 -5 -19 -11 0 -6 8 -8
19 -4 14 4 24 -3 39 -30 12 -19 27 -35 34 -35 10 0 10 -2 -1 -9 -9 -6 -10 -11
-2 -15 6 -4 16 -4 21 -1 15 10 12 35 -5 35 -8 0 -15 7 -15 15 0 8 7 15 16 15
8 0 12 -5 9 -10 -3 -6 4 -14 17 -19 13 -6 17 -10 11 -10 -15 -1 -17 -27 -3
-36 6 -3 7 1 4 9 -7 19 9 21 24 3 10 -12 2 -40 -12 -38 -3 1 -5 -2 -4 -6 1 -5
7 -7 14 -5 6 1 15 -6 20 -16 8 -16 12 -17 33 -6 24 12 24 13 -72 111 -77 78
-97 94 -103 80z"/>
<path d="M7599 1368 c-11 -38 2 -58 27 -38 11 10 12 16 3 26 -10 12 -28 19
-30 12z"/>
<path d="M3068 1293 c-12 -13 -14 -23 -7 -30 7 -7 5 -14 -6 -23 -12 -10 -15
-10 -15 3 0 26 -25 9 -28 -19 -1 -15 2 -23 8 -19 6 4 8 11 5 16 -4 5 -1 9 4 9
6 0 11 -6 11 -12 0 -9 3 -9 9 1 5 8 18 12 30 8 12 -3 21 -1 21 4 0 5 -5 9 -11
9 -8 0 -8 4 -2 13 5 6 7 23 4 35 -6 23 -7 24 -23 5z"/>
<path d="M7430 1268 c0 -6 3 -8 7 -5 3 4 12 2 20 -4 10 -9 13 -8 13 3 0 7 -9
14 -20 15 -11 1 -20 -3 -20 -9z"/>
<path d="M4380 1242 c0 -10 4 -22 9 -27 5 -6 11 -19 14 -30 4 -17 5 -17 6 4 0
13 9 30 19 38 9 8 12 12 6 9 -7 -3 -17 1 -24 9 -17 20 -30 19 -30 -3z"/>
<path d="M7539 1253 c-10 -2 -19 -13 -22 -25 -6 -19 -5 -19 19 3 20 19 30 32
22 28 -2 -1 -10 -3 -19 -6z"/>
<path d="M7407 1244 c9 -4 9 -11 1 -30 -8 -18 -17 -23 -35 -20 -13 3 -21 1
-18 -5 4 -5 -1 -9 -9 -9 -9 0 -16 -4 -16 -9 0 -18 61 -9 73 11 14 22 33 23 41
3 7 -20 -4 -47 -18 -42 -12 4 -36 -17 -60 -55 -10 -15 -23 -25 -30 -22 -15 6
-30 -22 -20 -37 3 -5 0 -9 -5 -9 -6 0 -11 4 -11 9 0 5 -19 9 -43 8 -40 -2 -42
-3 -28 -19 10 -10 28 -15 48 -14 25 2 52 23 130 100 54 53 91 96 83 94 -8 -2
-14 2 -13 9 2 7 -4 10 -12 7 -9 -4 -15 0 -15 7 0 11 -3 11 -10 -1 -5 -8 -10
-10 -10 -4 0 5 5 15 12 22 9 9 5 12 -17 11 -17 0 -25 -3 -18 -5z m68 -54 c3
-6 -1 -7 -9 -4 -18 7 -21 14 -7 14 6 0 13 -4 16 -10z"/>
<path d="M3147 1233 c-4 -3 -7 -11 -7 -17 0 -6 5 -5 12 2 6 6 9 14 7 17 -3 3
-9 2 -12 -2z"/>
<path d="M2970 1179 c0 -5 5 -7 10 -4 6 3 10 8 10 11 0 2 -4 4 -10 4 -5 0 -10
-5 -10 -11z"/>
<path d="M3283 1175 c0 -18 19 -15 25 3 2 7 -3 12 -10 12 -8 0 -15 -7 -15 -15z"/>
<path d="M2910 1160 c0 -12 40 -33 48 -25 4 4 -2 13 -12 21 -23 16 -36 18 -36
4z"/>
<path d="M4441 1154 c0 -11 3 -14 6 -6 3 7 2 16 -1 19 -3 4 -6 -2 -5 -13z"/>
<path d="M1646 1147 c5 -14 2 -16 -12 -10 -17 6 -18 5 -5 -11 13 -16 15 -16
24 -1 6 11 5 21 -3 28 -8 9 -10 8 -4 -6z"/>
<path d="M3321 1138 c-15 -25 -14 -38 4 -32 8 4 15 12 15 20 0 7 8 17 18 23
15 9 15 10 -4 8 -12 0 -27 -9 -33 -19z"/>
<path d="M1667 1133 c-14 -14 -6 -33 22 -49 17 -10 28 -20 26 -23 -2 -3 8 -6
21 -6 27 0 31 19 9 41 -13 14 -15 14 -15 0 0 -10 -6 -13 -15 -10 -8 4 -12 10
-9 15 3 6 0 16 -6 24 -14 16 -23 19 -33 8z"/>
<path d="M3004 1129 c-3 -6 -1 -16 4 -21 8 -8 11 -5 9 11 -1 24 -3 25 -13 10z"/>
<path d="M2842 1121 c-10 -6 -10 -10 2 -20 17 -14 36 -7 36 15 0 15 -18 18
-38 5z"/>
<path d="M4441 1114 c0 -11 3 -14 6 -6 3 7 2 16 -1 19 -3 4 -6 -2 -5 -13z"/>
<path d="M7301 1113 c14 -16 42 -17 37 -1 -2 6 -14 12 -26 13 -17 1 -19 -1
-11 -12z"/>
<path d="M7265 1084 c0 -17 4 -20 19 -14 29 10 30 27 4 32 -18 3 -23 0 -23
-18z"/>
<path d="M2783 1076 c-48 -33 -115 -106 -98 -106 8 0 15 4 15 9 0 5 20 3 45
-5 25 -7 45 -10 45 -7 0 3 6 0 14 -6 10 -9 16 -8 26 4 7 9 10 18 7 22 -4 3 -2
12 4 19 6 8 9 21 5 29 -3 8 -1 15 4 15 6 0 10 7 10 16 0 20 -22 13 -26 -8 -1
-9 -12 -26 -23 -37 -12 -12 -20 -25 -17 -29 2 -4 -14 -6 -35 -4 -31 3 -39 8
-35 19 3 8 6 16 6 19 0 2 6 1 13 -1 15 -6 81 48 76 62 -2 7 -17 2 -36 -11z"/>
<path d="M3290 1090 c0 -5 5 -10 11 -10 5 0 7 5 4 10 -3 6 -8 10 -11 10 -2 0
-4 -4 -4 -10z"/>
<path d="M4423 1073 c-15 -10 -23 -11 -23 -4 0 6 -4 11 -10 11 -18 0 -10 -19
11 -25 16 -5 18 -10 8 -21 -9 -11 -8 -14 6 -14 12 0 16 6 12 20 -3 13 0 20 8
20 16 0 29 17 18 23 -5 3 -18 -2 -30 -10z"/>
<path d="M4310 1070 c0 -5 7 -10 16 -10 8 0 12 5 9 10 -3 6 -10 10 -16 10 -5
0 -9 -4 -9 -10z"/>
<path d="M7223 1066 c-9 -11 -8 -15 6 -19 14 -3 17 0 14 14 -6 22 -5 22 -20 5z"/>
<path d="M2244 1058 c-4 -7 -7 -28 -6 -48 2 -26 0 -31 -8 -20 -9 13 -14 7 -11
-12 0 -5 -4 -8 -10 -8 -6 0 -9 -6 -6 -14 3 -8 -1 -20 -9 -26 -8 -7 -14 -19
-14 -28 0 -8 14 4 30 26 29 40 55 57 44 28 -3 -8 3 -15 14 -18 14 -4 24 3 36
23 15 25 15 28 1 23 -8 -3 -15 -12 -15 -20 0 -20 -17 -17 -22 4 -7 27 18 60
34 44 17 -17 28 -15 21 5 -5 13 -2 15 11 10 10 -4 24 -7 32 -7 9 0 13 -4 10
-9 -7 -10 44 -9 60 1 6 4 27 3 48 -3 20 -5 41 -7 46 -4 6 3 10 1 10 -4 0 -6
10 -11 22 -11 21 0 21 0 2 15 -18 15 -18 15 6 13 14 -2 24 -9 22 -16 -2 -10 2
-10 20 -1 23 12 23 12 -7 21 -16 5 -57 10 -90 13 -33 2 -85 9 -115 15 -39 8
-55 9 -58 1 -2 -6 -11 -11 -20 -11 -15 0 -15 2 -2 11 12 8 10 9 -10 5 -14 -3
-29 -6 -33 -6 -5 0 -5 -4 -2 -10 3 -5 1 -10 -5 -10 -7 0 -10 7 -7 15 8 18 -9
30 -19 13z m196 -28 c0 -5 -7 -10 -16 -10 -8 0 -12 5 -9 10 3 6 10 10 16 10 5
0 9 -4 9 -10z"/>
<path d="M3432 1040 c-18 -29 -15 -39 9 -35 29 6 32 10 24 34 -8 26 -17 26
-33 1z"/>
<path d="M4242 1053 c-18 -7 -4 -23 19 -23 12 0 19 5 17 12 -5 14 -18 18 -36
11z"/>
<path d="M1796 1025 c5 -13 4 -16 -4 -11 -21 13 -13 -4 15 -32 15 -15 21 -20
15 -11 -7 9 -10 23 -7 31 3 8 -1 21 -10 28 -13 11 -14 10 -9 -5z"/>
<path d="M7184 1015 c3 -9 6 -21 6 -27 0 -5 12 -8 27 -6 16 2 28 -2 31 -11 3
-9 0 -11 -8 -6 -9 5 -11 4 -6 -4 6 -9 11 -9 22 0 17 14 13 20 -40 49 -32 17
-38 18 -32 5z"/>
<path d="M2645 1010 c3 -5 10 -10 16 -10 5 0 9 5 9 10 0 6 -7 10 -16 10 -8 0
-12 -4 -9 -10z"/>
<path d="M4360 995 c-8 -22 -13 -24 -30 -15 -11 6 -20 15 -20 20 0 11 -32 1
-42 -14 -9 -13 -11 -32 -2 -23 3 3 18 1 32 -4 33 -13 86 7 77 29 -4 10 0 12
11 8 10 -4 14 -1 12 6 -8 23 -28 19 -38 -7z m-35 -25 c3 -5 1 -10 -4 -10 -6 0
-11 5 -11 10 0 6 2 10 4 10 3 0 8 -4 11 -10z"/>
<path d="M2346 985 c4 -9 17 -14 33 -14 23 2 24 2 4 6 -13 2 -23 9 -23 14 0 5
-4 9 -10 9 -5 0 -7 -7 -4 -15z"/>
<path d="M1846 975 c4 -9 13 -14 21 -11 8 3 11 1 8 -4 -3 -5 -2 -17 3 -26 8
-14 10 -14 22 1 14 17 4 35 -21 38 -8 2 -20 6 -26 10 -9 6 -11 3 -7 -8z"/>
<path d="M7169 985 c-1 -6 0 -14 1 -20 1 -5 -2 -7 -5 -3 -12 12 -45 -11 -39
-26 3 -8 1 -17 -5 -21 -6 -3 -11 1 -11 10 0 9 -4 13 -10 10 -5 -3 -10 0 -10 7
-1 7 -6 3 -13 -10 -7 -12 -16 -20 -19 -16 -4 3 -13 0 -21 -7 -19 -18 -9 -51
13 -47 10 2 26 -5 36 -14 18 -16 22 -14 76 30 31 25 54 50 51 55 -3 5 -14 -1
-24 -12 -19 -20 -39 -28 -39 -15 0 3 10 19 21 36 16 22 19 32 10 41 -6 6 -12
7 -12 2z m-73 -82 c-1 -13 6 -18 22 -17 27 1 27 1 3 -20 -18 -16 -20 -16 -40
6 -20 21 -21 23 -5 35 22 16 22 16 20 -4z"/>
<path d="M7107 973 c-12 -12 -7 -22 8 -17 8 4 15 10 15 15 0 11 -14 12 -23 2z"/>
<path d="M2860 945 c0 -8 7 -15 15 -15 8 0 15 7 15 15 0 8 -7 15 -15 15 -8 0
-15 -7 -15 -15z"/>
<path d="M4090 946 c0 -18 20 -25 45 -15 19 7 19 8 -2 8 -13 1 -23 6 -23 11 0
6 -4 10 -10 10 -5 0 -10 -6 -10 -14z"/>
<path d="M2585 940 c3 -5 15 -10 25 -10 10 0 22 5 25 10 4 6 -7 10 -25 10 -18
0 -29 -4 -25 -10z"/>
<path d="M2675 940 c3 -5 8 -10 11 -10 2 0 4 5 4 10 0 6 -5 10 -11 10 -5 0 -7
-4 -4 -10z"/>
<path d="M4195 932 c-21 -7 -27 -34 -11 -49 5 -4 6 -3 2 5 -9 15 6 16 22 0 9
-9 12 -9 12 0 0 7 3 11 8 10 14 -3 96 36 84 40 -7 2 -19 -2 -27 -8 -10 -8 -15
-9 -15 -2 0 6 -7 9 -15 6 -8 -4 -13 -10 -10 -14 3 -4 -6 -7 -19 -6 -18 1 -22
4 -14 14 6 6 9 12 7 11 -2 -1 -13 -4 -24 -7z"/>
<path d="M1926 913 c-9 -22 9 -40 26 -26 13 11 18 7 68 -59 17 -22 24 -25 34
-16 15 14 6 25 -59 74 -57 44 -62 46 -69 27z"/>
<path d="M3207 884 c-17 -15 -24 -30 -20 -44 3 -11 0 -20 -6 -20 -6 0 -11 -16
-11 -35 0 -19 5 -35 10 -35 6 0 10 11 10 25 0 14 4 25 9 25 5 0 7 9 4 20 -6
23 39 65 71 65 11 0 21 6 23 12 8 22 -63 12 -90 -13z"/>
<path d="M3405 900 c-19 -8 -19 -9 3 -9 12 -1 22 4 22 9 0 6 -1 10 -2 9 -2 0
-12 -4 -23 -9z"/>
<path d="M2171 879 c-2 -13 21 -69 29 -69 4 0 8 11 8 25 0 14 -6 25 -13 25 -8
0 -16 6 -18 13 -3 6 -6 9 -6 6z"/>
<path d="M3273 855 c-7 -8 -13 -18 -13 -23 0 -5 -11 -14 -25 -20 -17 -8 -25
-20 -25 -37 0 -14 4 -25 10 -25 6 0 7 -22 3 -57 -11 -99 -9 -183 5 -192 7 -4
10 -15 7 -24 -7 -16 21 -38 47 -36 7 0 3 5 -9 11 -16 8 -23 20 -23 39 0 15 -5
40 -10 55 -7 19 -8 29 -1 34 6 3 10 45 9 101 -1 114 10 149 49 149 16 0 39 3
52 7 17 4 22 3 17 -5 -5 -9 18 -11 86 -10 78 1 87 3 53 10 -21 5 -45 6 -52 4
-8 -3 -13 2 -13 15 0 18 -5 20 -60 17 -33 -2 -60 -6 -60 -10 0 -5 -5 -8 -11
-8 -5 0 -7 5 -4 10 9 15 -18 11 -32 -5z"/>
<path d="M3460 860 c0 -5 10 -10 23 -10 18 0 19 2 7 10 -19 13 -30 13 -30 0z"/>
<path d="M6975 839 c-10 -11 -25 -17 -33 -14 -7 2 -10 0 -7 -5 3 -6 2 -10 -3
-10 -21 0 -19 -39 3 -64 l23 -27 46 32 c33 23 43 36 35 43 -7 8 -13 6 -20 -6
-6 -10 -15 -18 -22 -18 -7 0 -6 4 3 10 9 6 10 10 3 10 -7 0 -17 -9 -23 -20
-12 -22 -35 -26 -45 -9 -4 6 2 13 14 16 22 6 29 23 9 23 -6 0 -3 6 7 14 13 9
25 11 36 5 14 -7 17 -4 15 16 -1 30 -14 31 -41 4z"/>
<path d="M3523 843 c9 -2 23 -2 30 0 6 3 -1 5 -18 5 -16 0 -22 -2 -12 -5z"/>
<path d="M7060 823 c0 -21 2 -24 15 -13 8 7 15 16 15 20 0 4 -7 10 -15 14 -11
4 -15 -2 -15 -21z"/>
<path d="M3558 823 c6 -2 18 -2 25 0 6 3 1 5 -13 5 -14 0 -19 -2 -12 -5z"/>
<path d="M2082 798 c3 -7 13 -15 24 -17 16 -3 17 -1 5 13 -16 19 -34 21 -29 4z"/>
<path d="M6895 800 c-3 -5 -1 -10 4 -10 6 0 11 5 11 10 0 6 -2 10 -4 10 -3 0
-8 -4 -11 -10z"/>
<path d="M2138 768 c6 -6 8 -17 5 -24 -6 -15 8 -17 45 -8 12 4 22 14 22 24 0
14 -9 18 -41 18 -30 1 -39 -2 -31 -10z"/>
<path d="M6873 773 c-7 -3 -13 -11 -13 -19 0 -8 -9 -15 -20 -15 -28 -2 -33 -3
-47 -12 -23 -14 -14 -29 12 -23 23 6 25 4 25 -28 0 -19 -6 -37 -12 -39 -9 -4
-10 -6 -1 -6 6 -1 18 5 25 12 8 6 27 20 43 29 37 21 43 38 16 45 -16 4 -18 9
-11 22 10 20 0 40 -17 34z m14 -91 c-16 -16 -37 -9 -37 12 0 9 9 12 26 8 23
-4 24 -6 11 -20z"/>
<path d="M6755 690 c-3 -5 -1 -10 4 -10 6 0 11 5 11 10 0 6 -2 10 -4 10 -3 0
-8 -4 -11 -10z"/>
<path d="M6668 638 c-13 -13 -27 -23 -32 -23 -5 0 -11 -6 -14 -14 -3 -8 0 -11
6 -7 7 4 10 -3 9 -19 -1 -14 -5 -25 -10 -25 -4 0 -16 0 -27 0 -25 0 -26 25 -2
39 9 6 12 11 6 11 -5 0 -20 -9 -31 -19 -12 -11 -24 -17 -28 -13 -4 4 -5 -5 -1
-20 5 -22 3 -26 -9 -22 -8 4 -15 1 -15 -6 0 -6 8 -10 18 -8 9 2 16 11 16 21
-1 9 2 17 6 17 11 0 60 -26 57 -31 -1 -2 6 6 17 19 12 15 25 21 36 17 27 -9
33 10 10 30 -25 23 -25 35 -1 35 14 0 19 6 18 20 -2 25 -2 25 -29 -2z"/>
<path d="M6766 644 c-4 -10 -1 -14 6 -12 15 5 23 28 10 28 -5 0 -13 -7 -16
-16z"/>
<path d="M6720 630 c-11 -7 -12 -12 -3 -21 13 -13 33 -4 33 17 0 16 -9 18 -30
4z"/>
<path d="M3171 567 c0 -16 -6 -37 -12 -49 -13 -24 -3 -37 14 -17 9 9 11 27 6
54 -5 31 -6 34 -8 12z"/>
<path d="M6476 524 c-20 -20 -20 -21 5 -27 16 -4 18 -3 8 9 -9 11 -8 14 5 14
9 0 16 5 16 10 0 15 -16 12 -34 -6z"/>
<path d="M2560 505 c-7 -9 -8 -15 -2 -15 5 0 12 7 16 15 3 8 4 15 2 15 -2 0
-9 -7 -16 -15z"/>
<path d="M6408 488 c-7 -7 -20 -14 -27 -16 -8 -2 -26 -10 -40 -18 l-26 -14 25
2 c14 1 31 -1 38 -6 7 -4 16 -5 19 -2 4 3 1 6 -5 6 -7 0 -12 5 -12 11 0 6 7 9
15 6 8 -4 17 -2 20 4 4 5 12 6 18 2 8 -5 8 -2 0 9 -7 8 -10 18 -6 21 12 13 -5
7 -19 -5z"/>
<path d="M6528 483 c7 -3 16 -2 19 1 4 3 -2 6 -13 5 -11 0 -14 -3 -6 -6z"/>
<path d="M3175 451 c-26 -13 -28 -16 -10 -19 11 -2 23 -9 27 -15 4 -6 10 1 14
16 8 35 6 37 -31 18z"/>
<path d="M3300 426 c0 -2 12 -12 28 -21 l27 -18 -19 21 c-17 20 -36 29 -36 18z"/>
<path d="M6270 416 c-7 -9 -16 -13 -21 -10 -5 3 -9 0 -9 -6 0 -6 -4 -8 -10 -5
-5 3 -10 1 -10 -4 0 -6 -3 -10 -7 -10 -27 4 -35 -1 -23 -16 10 -12 10 -15 -4
-15 -9 0 -16 -7 -16 -15 0 -8 3 -15 6 -15 10 0 44 42 44 53 0 6 3 7 7 4 3 -4
13 -2 20 5 11 9 17 9 25 -3 8 -11 9 -11 4 3 -3 10 1 18 9 20 9 2 11 8 6 16 -6
10 -10 10 -21 -2z"/>
<path d="M3220 401 c0 -6 5 -13 10 -16 6 -3 10 -1 10 6 0 8 4 8 15 -1 9 -7 15
-8 15 -2 0 10 -23 22 -41 22 -5 0 -9 -4 -9 -9z"/>
<path d="M3288 368 c5 -31 5 -31 13 -9 9 23 5 41 -10 41 -4 0 -5 -14 -3 -32z"/>
<path d="M2860 370 c0 -5 7 -10 16 -10 8 0 12 5 9 10 -3 6 -10 10 -16 10 -5 0
-9 -4 -9 -10z"/>
<path d="M3144 371 c3 -5 15 -7 26 -4 28 7 25 13 -6 13 -14 0 -23 -4 -20 -9z"/>
<path d="M6130 350 c0 -5 -10 -10 -22 -10 -13 -1 -34 -7 -47 -14 -35 -19 -8
-30 29 -11 16 8 30 13 30 9 0 -4 7 -1 15 6 17 14 20 30 5 30 -5 0 -10 -4 -10
-10z"/>
<path d="M6097 301 c-10 -12 -7 -13 18 -7 41 10 53 24 20 23 -15 -1 -32 -8
-38 -16z"/>
<path d="M3320 290 c0 -5 5 -10 11 -10 5 0 7 5 4 10 -3 6 -8 10 -11 10 -2 0
-4 -4 -4 -10z"/>
<path d="M5983 293 c-15 -5 -17 -23 -4 -23 5 0 11 7 15 15 3 8 4 15 3 14 -1 0
-8 -3 -14 -6z"/>
<path d="M6000 270 c0 -5 -9 -10 -20 -10 -11 0 -20 -4 -20 -10 0 -5 -4 -10
-10 -10 -5 0 -9 3 -7 8 3 9 -6 12 -39 12 -15 0 -23 -4 -19 -10 4 -6 14 -10 23
-8 10 1 23 -1 30 -5 7 -5 26 -1 45 9 17 9 46 20 62 24 30 8 30 8 -7 9 -21 1
-38 -3 -38 -9z"/>
<path d="M3285 250 c4 -11 2 -20 -4 -20 -6 0 -11 -4 -11 -10 0 -5 9 -10 21
-10 15 0 19 4 15 16 -3 9 -6 22 -6 30 0 8 -5 14 -11 14 -6 0 -8 -9 -4 -20z"/>
<path d="M5856 235 c-6 -17 9 -29 24 -20 14 9 12 22 -4 28 -8 3 -17 -1 -20 -8z"/>
<path d="M5788 223 c-10 -2 -18 -9 -18 -14 0 -5 -11 -9 -24 -9 -14 0 -28 -4
-31 -10 -3 -5 -21 -10 -38 -10 -18 0 -39 -5 -47 -10 -11 -7 2 -9 42 -8 31 1
55 5 52 9 -2 4 3 9 11 13 8 3 17 1 20 -3 7 -12 41 -2 56 15 9 11 9 14 0 14 -7
0 -9 5 -6 10 3 6 5 9 3 9 -2 -1 -11 -3 -20 -6z"/>
<path d="M3325 200 c-3 -5 -2 -10 4 -10 5 0 13 5 16 10 3 6 2 10 -4 10 -5 0
-13 -4 -16 -10z"/>
<path d="M5580 145 c0 -8 5 -15 10 -15 6 0 10 7 10 15 0 8 -4 15 -10 15 -5 0
-10 -7 -10 -15z"/>
<path d="M5550 135 c0 -8 2 -15 4 -15 2 0 6 7 10 15 3 8 1 15 -4 15 -6 0 -10
-7 -10 -15z"/>
<path d="M5510 125 c-10 -12 -10 -15 3 -15 19 0 31 16 18 24 -5 3 -14 -1 -21
-9z"/>
<path d="M5405 109 c-79 -12 -90 -17 -34 -18 57 -1 109 9 109 20 0 5 -3 8 -7
8 -5 -1 -35 -5 -68 -10z"/>
<path d="M5148 53 c7 -3 16 -2 19 1 4 3 -2 6 -13 5 -11 0 -14 -3 -6 -6z"/>
<path d="M4998 33 c12 -2 30 -2 40 0 9 3 -1 5 -23 4 -22 0 -30 -2 -17 -4z"/>
</g>
</svg>
