<svg width="25" height="22" viewBox="0 0 25 22" fill="none" xmlns="http://www.w3.org/2000/svg">
<path d="M5.84783 1.68196L9.28829 1C9.5991 2.87498 11.1017 4.19583 12.4998 4.19583C13.8978 4.19583 15.6081 3.18748 15.8211 1L19.1525 1.68196C19.2104 1.69365 19.2654 1.71807 19.3133 1.75376L23.8308 5.11488C24.0119 5.24966 24.0542 5.50794 23.9257 5.69545L21.0509 9.89685C20.9857 9.99286 20.8841 10.0565 20.771 10.072C20.6577 10.0893 20.5428 10.0562 20.4547 9.98137L19.4826 9.16796V20.5799C19.4826 20.8119 19.2987 21 19.0719 21H5.93005C5.70325 21 5.51937 20.8119 5.51937 20.5799V9.07811L4.56205 9.96578C4.47261 10.0495 4.35169 10.0883 4.23138 10.072C4.11126 10.0558 4.00438 9.98629 3.93901 9.88188L1.06423 5.26033C0.94251 5.06442 0.998859 4.8045 1.19036 4.67997L5.70787 1.73899C5.75078 1.7113 5.7983 1.69201 5.84783 1.68196Z" stroke="#12214D" stroke-width="0.997934" stroke-linejoin="round"/>
</svg>
