<svg width="16" height="13" viewBox="0 0 16 13" fill="none" xmlns="http://www.w3.org/2000/svg">
<path d="M8.8 7.87926L10.2971 6.36035C10.6131 6.03976 11.1304 6.04026 11.4458 6.36147C11.7535 6.67487 11.7535 7.17698 11.4458 7.49039L8.71356 10.2732C8.32161 10.6724 7.67839 10.6724 7.28644 10.2732L4.5542 7.49039C4.24649 7.17698 4.24649 6.67487 4.5542 6.36147C4.86956 6.04026 5.38694 6.03976 5.70293 6.36035L7.2 7.87926V0.8C7.2 0.358172 7.55817 0 8 0C8.44183 0 8.8 0.358172 8.8 0.8V7.87926Z" fill="#295F98"/>
<rect y="12" width="16" height="1" rx="0.5" fill="#295F98"/>
</svg>
