<svg width="18" height="18" viewBox="0 0 18 18" fill="none" xmlns="http://www.w3.org/2000/svg">
<rect width="18" height="18" rx="9" fill="#EDF3FB"/>
<path d="M12.56 10.5022C12.0133 10.5022 11.4844 10.4133 10.9911 10.2533C10.8356 10.2 10.6622 10.24 10.5422 10.36L9.84444 11.2356C8.58667 10.6356 7.40889 9.50222 6.78222 8.2L7.64889 7.46222C7.76889 7.33778 7.80444 7.16444 7.75556 7.00889C7.59111 6.51556 7.50667 5.98667 7.50667 5.44C7.50667 5.2 7.30667 5 7.06667 5H5.52889C5.28889 5 5 5.10667 5 5.44C5 9.56889 8.43556 13 12.56 13C12.8756 13 13 12.72 13 12.4756V10.9422C13 10.7022 12.8 10.5022 12.56 10.5022Z" fill="#12214D"/>
</svg>
