<svg width="11" height="11" viewBox="0 0 11 11" fill="none" xmlns="http://www.w3.org/2000/svg">
<path d="M10.0546 1.96139C10.0546 2.75397 9.37433 3.3965 8.53511 3.3965C7.69588 3.3965 7.01562 2.75397 7.01562 1.96139C7.01562 1.16889 7.69588 0.526367 8.53511 0.526367C9.37433 0.526367 10.0546 1.16889 10.0546 1.96139Z" fill="white"/>
<path d="M8.78835 3.39634C7.81065 3.39634 7.01562 2.64542 7.01562 1.72206C7.01562 0.798772 7.81065 0.0478516 8.78835 0.0478516C9.76605 0.0478516 10.5611 0.798772 10.5611 1.72206C10.5611 2.64542 9.76605 3.39634 8.78835 3.39634ZM8.78835 0.675688C8.17721 0.675688 7.68041 1.14534 7.68041 1.72206C7.68041 2.29885 8.17721 2.7685 8.78835 2.7685C9.39949 2.7685 9.8963 2.29885 9.8963 1.72206C9.8963 1.14534 9.39949 0.675688 8.78835 0.675688Z" fill="white"/>
<path d="M10.0546 8.65874C10.0546 9.45124 9.37433 10.0938 8.53511 10.0938C7.69588 10.0938 7.01562 9.45124 7.01562 8.65874C7.01562 7.86616 7.69588 7.22363 8.53511 7.22363C9.37433 7.22363 10.0546 7.86616 10.0546 8.65874Z" fill="white"/>
<path d="M8.78835 10.5721C7.81065 10.5721 7.01562 9.8212 7.01562 8.89791C7.01562 7.97455 7.81065 7.22363 8.78835 7.22363C9.76605 7.22363 10.5611 7.97455 10.5611 8.89791C10.5611 9.8212 9.76605 10.5721 8.78835 10.5721ZM8.78835 7.85147C8.17721 7.85147 7.68041 8.32112 7.68041 8.89791C7.68041 9.47463 8.17721 9.94428 8.78835 9.94428C9.39949 9.94428 9.8963 9.47463 9.8963 8.89791C9.8963 8.32112 9.39949 7.85147 8.78835 7.85147Z" fill="white"/>
<path d="M3.46606 5.30909C3.46606 6.10169 2.89913 6.74415 2.19979 6.74415C1.50053 6.74415 0.933594 6.10169 0.933594 5.30909C0.933594 4.51648 1.50053 3.87402 2.19979 3.87402C2.89913 3.87402 3.46606 4.51648 3.46606 5.30909Z" fill="white"/>
<path d="M2.20237 7.22332C1.22478 7.22332 0.429688 6.3652 0.429688 5.3099C0.429688 4.25461 1.22478 3.39648 2.20237 3.39648C3.18005 3.39648 3.97514 4.25461 3.97514 5.3099C3.97514 6.3652 3.18005 7.22332 2.20237 7.22332ZM2.20237 4.11403C1.59125 4.11403 1.09446 4.6507 1.09446 5.3099C1.09446 5.96911 1.59125 6.50578 2.20237 6.50578C2.81358 6.50578 3.31037 5.96911 3.31037 5.3099C3.31037 4.6507 2.81358 4.11403 2.20237 4.11403Z" fill="white"/>
<path d="M3.41045 5.3104C3.25414 5.3104 3.10235 5.22723 3.01971 5.07848C2.89711 4.8585 2.9726 4.57789 3.1877 4.452L7.35451 2.02263C7.56962 1.89633 7.84401 1.97352 7.9671 2.19434C8.0897 2.41433 8.01421 2.69494 7.79911 2.82082L3.63221 5.25019C3.56216 5.29106 3.48585 5.3104 3.41045 5.3104Z" fill="white"/>
<path d="M7.57642 8.65903C7.50093 8.65903 7.42463 8.63969 7.35457 8.59882L3.18764 6.16938C2.97253 6.044 2.89713 5.76338 3.01973 5.54289C3.14184 5.32249 3.41664 5.24487 3.63224 5.37118L7.79917 7.80061C8.01428 7.926 8.08968 8.20661 7.96708 8.4271C7.88403 8.57586 7.73224 8.65903 7.57642 8.65903Z" fill="white"/>
</svg>
