<svg width="26" height="18" viewBox="0 0 26 18" xmlns="http://www.w3.org/2000/svg">
<path d="M23.4246 10.741L19.5403 10.4819L16.973 6.4884L15.6896 4.48879V3.93494C15.69 3.33385 15.1685 2.84631 14.5248 2.84594C14.3806 2.84575 14.2376 2.87076 14.1033 2.91929L10.4121 4.24891L10.691 3.37479C10.9112 2.63996 10.5539 1.86105 9.8325 1.5028L6.93617 0.0498206C6.72551 -0.0557633 6.46308 0.0116622 6.33989 0.20301L2.09152 6.55582L2.00186 6.50729C1.78723 6.39208 1.51328 6.46135 1.3901 6.66178C1.38732 6.66604 1.38494 6.6703 1.38236 6.67474L0.0523295 9.01296C-0.0623252 9.21487 0.0176157 9.46512 0.231651 9.57571L16.4073 17.9478C16.4737 17.982 16.5483 18 16.6243 18H23.3104C24.7951 17.9987 25.9986 16.8751 26 15.4884V13.3234C25.9952 11.9667 24.8735 10.842 23.4246 10.741ZM18.6034 10.6514L18.0914 10.8109L14.0803 5.94084L15.1114 5.21787L18.6034 10.6514ZM6.88857 0.97618L9.40839 2.23911C9.75771 2.41156 9.93227 2.78685 9.82892 3.14287L9.45858 4.30837L6.88539 2.86743L5.99434 2.36803L6.88857 0.97618ZM4.23445 4.97132L4.46396 4.63642L5.9388 5.66077C6.68941 6.18702 7.07265 7.05373 6.93836 7.92137L6.88242 9.13114L2.87605 6.97482L4.23445 4.97132ZM23.3104 17.1629H16.7395L1.0499 9.04186L1.95584 7.45125L16.8104 15.4326C16.8786 15.4693 16.9558 15.4886 17.0345 15.4884H25.1034C25.1034 16.4131 24.3006 17.1629 23.3104 17.1629ZM25.1034 14.6511H17.1541L14.0795 12.9981L15.1132 12.014C15.2839 11.8467 15.2772 11.5816 15.0979 11.4221C14.9223 11.2658 14.6454 11.2684 14.473 11.4279L13.2771 12.5665L11.5735 11.6498L13.2821 10.3735C13.4753 10.229 13.5066 9.96544 13.3519 9.78484C13.1972 9.60442 12.9149 9.57515 12.7217 9.71963L10.7388 11.2011L9.27926 10.4174L11.4938 8.69399C11.6842 8.54599 11.71 8.28203 11.5517 8.1042C11.3932 7.92638 11.1104 7.90229 10.9199 8.05011L8.45089 9.97192L7.7578 9.59942L7.8304 7.9925C7.99643 6.83479 7.47692 5.68411 6.47359 4.98688L4.94618 3.92641L5.52322 3.08045L9.49131 5.30364C9.54467 5.33235 9.60378 5.35013 9.66488 5.35606C9.67559 5.35606 9.68491 5.35939 9.69582 5.36013C9.70653 5.36106 9.71328 5.3631 9.72181 5.3631C9.77715 5.36328 9.8323 5.35383 9.88407 5.33513L14.425 3.69969C14.5081 3.67005 14.6012 3.68024 14.6748 3.72692C14.7486 3.77415 14.7924 3.85251 14.7918 3.93623V4.39673L13.1779 5.52684C12.9799 5.66577 12.9401 5.92825 13.0888 6.11293C13.0898 6.11422 13.0908 6.11552 13.0918 6.11663L17.5747 11.5586C17.6905 11.7003 17.8903 11.7574 18.0714 11.7005L19.3314 11.3082L23.3598 11.577C24.3401 11.6448 25.0996 12.4054 25.1034 13.3234V14.6511Z" fill="#12214D"/>
</svg>
