<svg width="18" height="18" viewBox="0 0 18 18" fill="none" xmlns="http://www.w3.org/2000/svg">
<rect width="18" height="18" rx="9" fill="#419FD9"/>
<path fill-rule="evenodd" clip-rule="evenodd" d="M11.0097 13.4574C11.6388 13.7326 11.8747 13.156 11.8747 13.156L13.5391 4.79461C13.526 4.23107 12.7658 4.57182 12.7658 4.57182L3.44779 8.22827C3.44779 8.22827 3.0022 8.38553 3.04152 8.66075C3.08084 8.93597 3.43469 9.06702 3.43469 9.06702L5.78058 9.85335C5.78058 9.85335 6.48828 12.173 6.63244 12.6186C6.76349 13.0511 6.88145 13.0642 6.88145 13.0642C7.0125 13.1166 7.13045 13.0249 7.13045 13.0249L8.65069 11.6488L11.0097 13.4574ZM11.4157 6.27646C11.4157 6.27646 11.7433 6.07987 11.7302 6.27646C11.7302 6.27646 11.7827 6.30267 11.6123 6.48615C11.455 6.64341 7.74615 9.97222 7.24814 10.4178C7.20882 10.444 7.18261 10.4833 7.18261 10.5358L7.03845 11.7677C7.01224 11.8987 6.84186 11.9118 6.80255 11.7939L6.18659 9.77564C6.16038 9.697 6.18659 9.60527 6.26522 9.55284L11.4157 6.27646Z" fill="white"/>
</svg>
