<svg width="10" height="8" viewBox="0 0 10 8" fill="none" xmlns="http://www.w3.org/2000/svg">
<path d="M8.99215 1.99678C8.99215 2.08696 8.99215 2.17713 8.99215 2.25443C8.99215 4.92109 6.92408 8 3.15445 8C1.98953 8 0.91623 7.66506 0 7.09823C0.157068 7.11111 0.327225 7.12399 0.484293 7.12399C1.43979 7.12399 2.32984 6.80193 3.03665 6.26087C2.13351 6.24799 1.37435 5.65539 1.12565 4.85668C1.25654 4.88245 1.37435 4.89533 1.51832 4.89533C1.70157 4.89533 1.88482 4.86957 2.05497 4.81804C1.11257 4.63768 0.405759 3.82609 0.405759 2.84702C0.405759 2.83414 0.405759 2.83414 0.405759 2.82126C0.680628 2.97585 0.994764 3.06602 1.33508 3.0789C0.78534 2.7182 0.418848 2.09984 0.418848 1.3913C0.418848 1.01771 0.52356 0.669887 0.693717 0.373591C1.70157 1.59742 3.2199 2.39614 4.92147 2.48631C4.8822 2.34461 4.86911 2.17713 4.86911 2.02254C4.86911 0.901771 5.78534 0 6.92408 0C7.51309 0 8.04974 0.244767 8.41623 0.63124C8.88743 0.541063 9.31937 0.373591 9.72513 0.141707C9.56806 0.618357 9.24084 1.00483 8.82199 1.26248C9.24084 1.21095 9.63351 1.10789 10 0.940419C9.73822 1.35266 9.39791 1.71337 8.99215 1.99678Z" fill="#12214D"/>
</svg>
