<svg width="18" height="18" viewBox="0 0 18 18" fill="none" xmlns="http://www.w3.org/2000/svg">
<rect width="18" height="18" rx="9" fill="#675DA9"/>
<path d="M13.4087 4.5692C13.111 4.2955 11.9058 3.41918 9.21919 3.40718C9.21919 3.40718 6.05243 3.21511 4.50867 4.63163C3.64915 5.49114 3.34664 6.7468 3.31543 8.30737C3.28422 9.86554 3.2434 12.7874 6.05964 13.5797H6.06204L6.05964 14.7873C6.05964 14.7873 6.04283 15.2771 6.36455 15.3756C6.75349 15.4956 6.98397 15.1235 7.35611 14.7225C7.56018 14.5016 7.84109 14.1799 8.05477 13.9326C9.98027 14.0935 11.4616 13.7238 11.6297 13.6685C12.0186 13.5413 14.2202 13.2604 14.578 10.3385C14.9477 7.33261 14.3979 5.42872 13.4087 4.5692ZM13.7352 10.1272C13.4327 12.5665 11.6489 12.7202 11.32 12.8258C11.1807 12.8714 9.87943 13.1956 8.24203 13.0875C8.24203 13.0875 7.02239 14.5593 6.64305 14.941C6.58303 15.001 6.5134 15.025 6.46778 15.013C6.40296 14.9962 6.38375 14.9194 6.38615 14.8065C6.38615 14.6433 6.39576 12.797 6.39576 12.797C6.39336 12.797 6.39336 12.797 6.39576 12.797C4.01169 12.1368 4.15094 9.64946 4.17735 8.34819C4.20376 7.04691 4.44865 5.97852 5.17611 5.26066C6.47979 4.07942 9.17117 4.25469 9.17117 4.25469C11.4424 4.26429 12.53 4.94854 12.7821 5.17663C13.62 5.89689 14.0474 7.61352 13.7352 10.1272Z" fill="white"/>
<path d="M10.3247 8.3943C10.2454 8.3943 10.1782 8.33187 10.1734 8.25024C10.147 7.73405 9.90451 7.48196 9.40993 7.45555C9.3259 7.45075 9.26107 7.37872 9.26588 7.29469C9.27068 7.21066 9.3427 7.14584 9.42673 7.15064C10.0798 7.18665 10.4447 7.56119 10.4783 8.23344C10.4831 8.31747 10.4183 8.3895 10.3343 8.3919C10.3295 8.3943 10.3271 8.3943 10.3247 8.3943Z" fill="white"/>
<path d="M11.1029 8.65335H11.1005C11.0164 8.65095 10.9492 8.58133 10.9516 8.49729C10.9636 7.9787 10.8148 7.55855 10.4979 7.21282C10.1833 6.8671 9.74878 6.67983 9.17497 6.63901C9.09094 6.63181 9.02852 6.55979 9.03572 6.47575C9.04292 6.39172 9.11495 6.3293 9.19898 6.3365C9.84722 6.38452 10.3586 6.6102 10.7235 7.00875C11.0909 7.4097 11.2685 7.91148 11.2565 8.5045C11.2541 8.58853 11.1845 8.65335 11.1029 8.65335Z" fill="white"/>
<path d="M11.8988 8.96422C11.8147 8.96422 11.7475 8.89699 11.7475 8.81296C11.7403 7.88382 11.4738 7.17557 10.9312 6.64497C10.3958 6.12158 9.71637 5.85508 8.91688 5.84788C8.83285 5.84788 8.76562 5.77825 8.76562 5.69422C8.76562 5.61019 8.83525 5.54297 8.91688 5.54297C9.798 5.55017 10.5471 5.84548 11.1401 6.42649C11.7355 7.0075 12.0404 7.8094 12.05 8.80816C12.0524 8.89459 11.9852 8.96422 11.8988 8.96422C11.9012 8.96422 11.9012 8.96422 11.8988 8.96422Z" fill="white"/>
<path d="M9.44503 10.2742C9.44503 10.2742 9.65871 10.2935 9.77395 10.1518L9.99723 9.8709C10.1053 9.73165 10.367 9.64282 10.6215 9.78447C10.7631 9.8637 11.02 10.0222 11.1785 10.1398C11.3489 10.2646 11.6947 10.5527 11.6971 10.5551C11.8627 10.6944 11.9011 10.8985 11.7883 11.117C11.7883 11.117 11.7883 11.1194 11.7883 11.1218C11.673 11.3258 11.517 11.5179 11.3225 11.6956C11.3201 11.6956 11.3201 11.698 11.3177 11.698C11.1569 11.8324 10.9984 11.9092 10.8447 11.9261C10.8255 11.9309 10.8039 11.9309 10.7751 11.9309C10.7079 11.9309 10.6407 11.9212 10.5734 11.8996L10.5686 11.8924C10.3286 11.8252 9.93001 11.6572 9.26736 11.2898C8.83521 11.0521 8.47747 10.8096 8.17256 10.5672C8.0117 10.4399 7.84844 10.2983 7.68038 10.1302C7.67558 10.1254 7.66838 10.1182 7.66358 10.1134C7.65878 10.1086 7.65157 10.1014 7.64677 10.0966C7.64197 10.0918 7.63477 10.0846 7.62996 10.0798C7.62516 10.075 7.61796 10.0678 7.61316 10.063C7.4475 9.89491 7.30345 9.73165 7.1762 9.57079C6.93371 9.26828 6.69122 8.90815 6.45353 8.47599C6.0862 7.81095 5.91814 7.4124 5.85091 7.17471L5.84371 7.16991C5.8221 7.10269 5.8125 7.03546 5.8125 6.96824C5.8125 6.93943 5.8125 6.91782 5.8173 6.89861C5.83651 6.74256 5.91334 6.5865 6.04539 6.42564C6.04539 6.42324 6.04779 6.42324 6.04779 6.42084C6.22545 6.22397 6.41752 6.07031 6.6216 5.95507C6.6216 5.95507 6.624 5.95507 6.6264 5.95507C6.84248 5.84223 7.04655 5.88064 7.1882 6.0463C7.1882 6.0463 7.47871 6.39443 7.60355 6.56489C7.7212 6.72575 7.87966 6.98024 7.95888 7.12189C8.10054 7.37639 8.0117 7.63808 7.87245 7.74612L7.59155 7.9694C7.4499 8.08465 7.46911 8.29832 7.46911 8.29832C7.46911 8.29832 7.88446 9.8781 9.44503 10.2742Z" fill="white"/>
</svg>
