<svg width="18" height="18" viewBox="0 0 18 18" fill="none" xmlns="http://www.w3.org/2000/svg">
<rect width="18" height="18" rx="9" fill="#0DC143"/>
<path d="M12.5559 5.45946C11.6294 4.51351 10.3488 4 9.04087 4C6.26158 4 4.02725 6.24324 4.0545 8.97297C4.0545 9.83784 4.29973 10.6757 4.70845 11.4324L4 14L6.64305 13.3243C7.37875 13.7297 8.19619 13.9189 9.01362 13.9189C11.7657 13.9189 14 11.6757 14 8.94595C14 7.62162 13.4823 6.37838 12.5559 5.45946ZM9.04087 13.0811C8.30518 13.0811 7.56948 12.8919 6.94278 12.5135L6.77929 12.4324L5.19891 12.8378L5.60763 11.2973L5.49864 11.1351C4.29973 9.21622 4.87193 6.67568 6.83379 5.48649C8.79564 4.2973 11.3297 4.86486 12.5286 6.81081C13.7275 8.75676 13.1553 11.2703 11.1935 12.4595C10.5668 12.8649 9.80381 13.0811 9.04087 13.0811ZM11.4387 10.0811L11.139 9.94595C11.139 9.94595 10.703 9.75676 10.4305 9.62162C10.4033 9.62162 10.376 9.59459 10.3488 9.59459C10.267 9.59459 10.2125 9.62162 10.158 9.64865C10.158 9.64865 10.1308 9.67568 9.74932 10.1081C9.72207 10.1622 9.66757 10.1892 9.61308 10.1892H9.58583C9.55858 10.1892 9.50409 10.1622 9.47684 10.1351L9.3406 10.0811C9.04087 9.94595 8.76839 9.78378 8.55041 9.56757C8.49591 9.51351 8.41417 9.45946 8.35967 9.40541C8.16894 9.21622 7.9782 9 7.84196 8.75676L7.81471 8.7027C7.78747 8.67568 7.78747 8.64865 7.76022 8.59459C7.76022 8.54054 7.76022 8.48649 7.78747 8.45946C7.78747 8.45946 7.89646 8.32432 7.9782 8.24324C8.0327 8.18919 8.05995 8.10811 8.11444 8.05405C8.16894 7.97297 8.19619 7.86486 8.16894 7.78378C8.14169 7.64865 7.81471 6.91892 7.73297 6.75676C7.67847 6.67568 7.62398 6.64865 7.54223 6.62162H7.46049C7.40599 6.62162 7.32425 6.62162 7.24251 6.62162C7.18801 6.62162 7.13352 6.64865 7.07902 6.64865L7.05177 6.67568C6.99728 6.7027 6.94278 6.75676 6.88828 6.78378C6.83379 6.83784 6.80654 6.89189 6.75204 6.94595C6.56131 7.18919 6.45232 7.48649 6.45232 7.78378C6.45232 8 6.50681 8.21622 6.58856 8.40541L6.6158 8.48649C6.86104 9 7.18801 9.45946 7.62398 9.86486L7.73297 9.97297C7.81471 10.0541 7.89646 10.1081 7.95095 10.1892C8.52316 10.6757 9.17711 11.027 9.91281 11.2162C9.99455 11.2432 10.1035 11.2432 10.1853 11.2703C10.267 11.2703 10.376 11.2703 10.4578 11.2703C10.594 11.2703 10.7575 11.2162 10.8665 11.1622C10.9482 11.1081 11.0027 11.1081 11.0572 11.0541L11.1117 11C11.1662 10.9459 11.2207 10.9189 11.2752 10.8649C11.3297 10.8108 11.3842 10.7568 11.4114 10.7027C11.4659 10.5946 11.4932 10.4595 11.5204 10.3243C11.5204 10.2703 11.5204 10.1892 11.5204 10.1351C11.5204 10.1351 11.4932 10.1081 11.4387 10.0811Z" fill="white"/>
</svg>
