<svg width="11" height="11" viewBox="0 0 11 11" fill="none" xmlns="http://www.w3.org/2000/svg">
<path d="M9.41144 1.60541C8.39237 0.564865 6.98365 0 5.54496 0C2.48774 0 0.0299728 2.46757 0.0599455 5.47027C0.0599455 6.42162 0.3297 7.34324 0.779291 8.17568L0 11L2.90736 10.2568C3.71662 10.7027 4.6158 10.9108 5.51499 10.9108C8.54223 10.9108 11 8.44324 11 5.44054C11 3.98378 10.4305 2.61622 9.41144 1.60541ZM5.54496 9.98919C4.73569 9.98919 3.92643 9.78108 3.23706 9.36487L3.05722 9.27568L1.3188 9.72162L1.76839 8.02703L1.6485 7.84865C0.3297 5.73784 0.959128 2.94324 3.11717 1.63514C5.2752 0.327027 8.06267 0.951351 9.38147 3.09189C10.7003 5.23243 10.0708 7.9973 7.91281 9.30541C7.22343 9.75135 6.3842 9.98919 5.54496 9.98919ZM8.18256 6.68919L7.85286 6.54054C7.85286 6.54054 7.3733 6.33243 7.07357 6.18378C7.0436 6.18378 7.01362 6.15405 6.98365 6.15405C6.89373 6.15405 6.83379 6.18378 6.77384 6.21351C6.77384 6.21351 6.74387 6.24324 6.32425 6.71892C6.29428 6.77838 6.23433 6.80811 6.17439 6.80811H6.14441C6.11444 6.80811 6.0545 6.77838 6.02452 6.74865L5.87466 6.68919C5.54496 6.54054 5.24523 6.36216 5.00545 6.12432C4.9455 6.06487 4.85559 6.00541 4.79564 5.94595C4.58583 5.73784 4.37602 5.5 4.22616 5.23243L4.19619 5.17297C4.16621 5.14324 4.16621 5.11351 4.13624 5.05405C4.13624 4.99459 4.13624 4.93514 4.16621 4.90541C4.16621 4.90541 4.2861 4.75676 4.37602 4.66757C4.43597 4.60811 4.46594 4.51892 4.52589 4.45946C4.58583 4.37027 4.6158 4.25135 4.58583 4.16216C4.55586 4.01351 4.19619 3.21081 4.10627 3.03243C4.04632 2.94324 3.98638 2.91351 3.89646 2.88378H3.80654C3.74659 2.88378 3.65668 2.88378 3.56676 2.88378C3.50681 2.88378 3.44687 2.91351 3.38692 2.91351L3.35695 2.94324C3.297 2.97297 3.23706 3.03243 3.17711 3.06216C3.11717 3.12162 3.08719 3.18108 3.02725 3.24054C2.81744 3.50811 2.69755 3.83514 2.69755 4.16216C2.69755 4.4 2.75749 4.63784 2.84741 4.84595L2.87738 4.93514C3.14714 5.5 3.50681 6.00541 3.98638 6.45135L4.10627 6.57027C4.19619 6.65946 4.2861 6.71892 4.34605 6.80811C4.97548 7.34324 5.69482 7.72973 6.50409 7.93784C6.59401 7.96757 6.7139 7.96757 6.80381 7.9973C6.89373 7.9973 7.01362 7.9973 7.10354 7.9973C7.25341 7.9973 7.43324 7.93784 7.55313 7.87838C7.64305 7.81892 7.703 7.81892 7.76294 7.75946L7.82289 7.7C7.88283 7.64054 7.94278 7.61081 8.00272 7.55135C8.06267 7.49189 8.12262 7.43243 8.15259 7.37297C8.21253 7.25405 8.24251 7.10541 8.27248 6.95676C8.27248 6.8973 8.27248 6.80811 8.27248 6.74865C8.27248 6.74865 8.24251 6.71892 8.18256 6.68919Z" fill="#12214D"/>
</svg>
