<svg width="25" height="20" viewBox="0 0 25 20" fill="none" xmlns="http://www.w3.org/2000/svg">
<path d="M22.3958 20H2.60417C1.14583 20 0 18.8353 0 17.3529V4.64706C0 3.16471 1.14583 2 2.60417 2H22.3958C23.8542 2 25 3.16471 25 4.64706V17.3529C25 18.8353 23.8542 20 22.3958 20ZM2.60417 3.05882C1.77083 3.05882 1.04167 3.8 1.04167 4.64706V17.3529C1.04167 18.2 1.77083 18.9412 2.60417 18.9412H22.3958C23.2292 18.9412 23.9583 18.2 23.9583 17.3529V4.64706C23.9583 3.8 23.2292 3.05882 22.3958 3.05882H2.60417Z" fill="#12214D"/>
<path d="M16.4375 4C16.1 4 15.875 3.8 15.875 3.5V1.5C15.875 1.2 15.65 1 15.3125 1H9.6875C9.35 1 9.125 1.2 9.125 1.5V3.5C9.125 3.8 8.9 4 8.5625 4C8.225 4 8 3.8 8 3.5V1.5C8 0.7 8.7875 0 9.6875 0H15.3125C16.2125 0 17 0.7 17 1.5V3.5C17 3.8 16.775 4 16.4375 4Z" fill="#12214D"/>
<path d="M12.5465 12C12.4422 12 12.4422 12 12.3378 12L0.340717 8.02978C0.132071 7.93052 -0.0765743 7.63275 0.0277484 7.33499C0.132071 7.13648 0.445039 6.93797 0.758007 7.03722L12.5465 11.0074L24.3349 7.03722C24.6479 6.93797 24.8566 7.03722 24.9609 7.33499C25.0652 7.63275 24.9609 7.83127 24.6479 7.93052L12.6508 11.9007C12.6508 12 12.6508 12 12.5465 12Z" fill="#12214D"/>
</svg>
