<svg width="45" height="41" viewBox="0 0 45 41" fill="none" xmlns="http://www.w3.org/2000/svg">
<path d="M11.8586 16.7783L11.778 17.2718L11.7804 17.2722L11.8586 16.7783ZM25.9313 13.4103L25.6022 13.7867L25.8586 14.0109L26.1612 13.8543L25.9313 13.4103ZM27.2343 18.9055L27.6625 18.6473L27.5585 18.4748L27.364 18.4226L27.2343 18.9055ZM32.099 26.971L31.6708 27.2293L31.9411 27.6774L32.3765 27.387L32.099 26.971ZM35.2263 27.7687L34.7584 27.9451L34.7955 28.0436L34.8692 28.1187L35.2263 27.7687ZM35.4869 28.4778L35.6701 28.943L35.749 28.9119L35.8133 28.8565L35.4869 28.4778ZM30.5354 30.4277L30.6964 30.9011L30.7076 30.8973L30.7186 30.8929L30.5354 30.4277ZM29.0586 27.5915L29.5021 27.3606L29.4959 27.3486L29.489 27.337L29.0586 27.5915ZM25.7576 22.0076L26.188 21.7532L26.0609 21.5382L25.8127 21.5107L25.7576 22.0076ZM17.5269 14.208L17.0355 14.1161L17.5269 14.208ZM29.8903 1.44899C30.1372 1.32551 30.2374 1.02517 30.1139 0.77818C29.9904 0.531186 29.6901 0.431062 29.4431 0.554546L29.8903 1.44899ZM21.9354 1.3563L21.7328 0.899156L21.9354 1.3563ZM24.802 7.29467L25.0347 7.73725L24.802 7.29467ZM21.7616 21.5645L21.8167 21.0675L21.7616 21.5645ZM22.5434 26.1734L22.9637 26.4443L23.0689 26.2811L23.0364 26.0897L22.5434 26.1734ZM18.2 32.9094L17.7798 32.6385L17.4382 33.1683L18.0318 33.3803L18.2 32.9094ZM19.3293 26.1734L19.7437 26.4531L19.8778 26.2545L19.8069 26.0255L19.3293 26.1734ZM1 39.5C0.723858 39.5 0.5 39.7239 0.5 40C0.5 40.2761 0.723858 40.5 1 40.5V39.5ZM15.5071 38.2274L15.5703 38.7233L15.6852 38.7087L15.782 38.645L15.5071 38.2274ZM24.802 32.3776L24.641 31.9042L24.5854 31.9232L24.5357 31.9544L24.802 32.3776ZM19.8597 35.4881L19.3773 35.3566L19.8597 35.4881ZM40.5253 24.1348L40.3263 23.6761L40.2565 23.7064L40.1988 23.7561L40.5253 24.1348ZM33.1965 7.39695C33.253 7.12665 33.0797 6.86173 32.8094 6.80524C32.5391 6.74875 32.2741 6.92208 32.2176 7.19238L33.1965 7.39695ZM27.6687 31.4027L27.8297 31.876L27.8297 31.876L27.6687 31.4027ZM14.9132 34.6753L14.6752 35.115L14.9132 34.6753ZM9.87368 15.4188L9.3821 15.3274L9.87368 15.4188ZM10.6957 16.5885L10.6152 17.082L10.6957 16.5885ZM14.9238 5.24839L14.8386 5.74108L14.9238 5.24839ZM11.6103 11.444L11.5283 11.9373L11.6103 11.444ZM10.4631 12.2478L9.97154 12.1564L10.4631 12.2478ZM18.0698 5.79243L17.9846 6.28512L18.0698 5.79243ZM18.8823 6.96166L18.3908 6.86973L18.8823 6.96166ZM16.9752 17.0822L11.9368 16.2845L11.7804 17.2722L16.8188 18.0699L16.9752 17.0822ZM14.8386 5.74108L17.9846 6.28512L18.155 5.29974L15.009 4.7557L14.8386 5.74108ZM12.3508 16.866L13.2669 11.7254L12.2824 11.5499L11.3663 16.6906L12.3508 16.866ZM13.2669 11.7254L14.2611 6.14605L13.2766 5.97061L12.2824 11.5499L13.2669 11.7254ZM12.8567 11.1444L11.6923 10.9508L11.5283 11.9373L12.6926 12.1309L12.8567 11.1444ZM9.97154 12.1564L9.3821 15.3274L10.3653 15.5102L10.9547 12.3391L9.97154 12.1564ZM10.6152 17.082L11.778 17.2718L11.9391 16.2849L10.7763 16.095L10.6152 17.082ZM18.5879 9.03552C18.7224 9.03552 18.8198 8.98178 18.843 8.96913C18.8812 8.9483 18.9116 8.92611 18.9296 8.91237C18.9665 8.88424 19.0031 8.85144 19.0311 8.82583C19.1208 8.74374 19.1336 8.72832 19.2445 8.62747C19.4107 8.47634 19.6264 8.29532 19.8824 8.14186C20.3889 7.8382 21.0083 7.6633 21.7154 8.0096L22.1553 7.11152C21.0381 6.56441 20.0475 6.87699 19.3682 7.28416C19.0313 7.48612 18.7601 7.71635 18.5718 7.88762C18.5054 7.94797 18.3741 8.07153 18.3559 8.08813C18.33 8.11187 18.3217 8.11834 18.3233 8.11713C18.3237 8.11686 18.3388 8.10506 18.3641 8.09124C18.3745 8.0856 18.4614 8.03552 18.5879 8.03552V9.03552ZM21.7154 8.0096C22.4173 8.35332 22.7589 9.09044 22.9109 9.8544C22.9848 10.2261 23.0075 10.5761 23.0113 10.8344C23.0131 10.9629 23.0103 11.0668 23.0071 11.1373C23.0055 11.1725 23.0039 11.1992 23.0027 11.2163C23.0021 11.2248 23.0016 11.2309 23.0013 11.2345C23.0012 11.2362 23.0011 11.2374 23.001 11.2378C23.001 11.2381 23.001 11.2381 23.001 11.2381C23.001 11.238 23.001 11.2379 23.0011 11.2378C23.0011 11.2377 23.0011 11.2376 23.0011 11.2376C23.0011 11.2374 23.0011 11.2373 23.499 11.2831C23.9969 11.329 23.9969 11.3288 23.9969 11.3286C23.9969 11.3286 23.9969 11.3284 23.997 11.3282C23.997 11.3279 23.997 11.3276 23.997 11.3272C23.9971 11.3264 23.9972 11.3254 23.9973 11.3243C23.9975 11.322 23.9977 11.3191 23.998 11.3155C23.9986 11.3083 23.9994 11.2984 24.0003 11.286C24.002 11.2612 24.0041 11.2262 24.0061 11.1823C24.0101 11.0946 24.0134 10.9706 24.0112 10.8198C24.0068 10.5198 23.9806 10.1066 23.8917 9.65934C23.7178 8.78538 23.2777 7.66122 22.1553 7.11152L21.7154 8.0096ZM23.1698 11.6595L25.6022 13.7867L26.2605 13.0339L23.8281 10.9067L23.1698 11.6595ZM26.1612 13.8543L32.3256 10.6636L31.866 9.77549L25.7015 12.9663L26.1612 13.8543ZM23.0081 11.1882L21.7919 17.4811L22.7737 17.6709L23.9899 11.378L23.0081 11.1882ZM22.1532 18.0589L27.1047 19.3884L27.364 18.4226L22.4125 17.0931L22.1532 18.0589ZM26.8062 19.1637L31.6708 27.2293L32.5271 26.7128L27.6625 18.6473L26.8062 19.1637ZM32.3765 27.387C32.7005 27.1708 33.2022 26.9654 33.658 26.9895C33.8749 27.001 34.0742 27.0635 34.2501 27.1956C34.4269 27.3283 34.6113 27.555 34.7584 27.9451L35.6941 27.5924C35.4937 27.0607 35.2076 26.664 34.8505 26.3959C34.4926 26.1271 34.0947 26.0112 33.7107 25.9909C32.9648 25.9515 32.2504 26.269 31.8215 26.5551L32.3765 27.387ZM34.8692 28.1187C34.8454 28.0944 34.8311 28.0741 34.8259 28.0663C34.8197 28.0571 34.8166 28.0515 34.8166 28.0514C34.8163 28.051 34.8174 28.053 34.8199 28.0581C34.8223 28.063 34.8253 28.0698 34.8291 28.0786C34.8452 28.1158 34.8655 28.1695 34.8883 28.2355C34.9334 28.3661 34.9782 28.5157 35.0054 28.6126L35.9683 28.343C35.9376 28.2331 35.8869 28.0636 35.8335 27.9091C35.8071 27.8325 35.7775 27.7522 35.7472 27.6821C35.7321 27.6473 35.7141 27.6084 35.6935 27.5707C35.6774 27.5414 35.6413 27.4779 35.5834 27.4188L34.8692 28.1187ZM35.3037 28.0126L30.3521 29.9625L30.7186 30.8929L35.6701 28.943L35.3037 28.0126ZM30.9788 30.1968L29.5021 27.3606L28.6151 27.8224L30.0919 30.6586L30.9788 30.1968ZM29.489 27.337L26.188 21.7532L25.3272 22.2621L28.6282 27.8459L29.489 27.337ZM18.0551 20.7136C17.7866 20.523 17.4121 20.1343 17.2067 19.6232C17.0096 19.1325 16.9622 18.5194 17.3386 17.8105L16.4553 17.3416C15.9283 18.3344 15.9822 19.2576 16.2788 19.9959C16.5672 20.7138 17.0787 21.2469 17.4763 21.529L18.0551 20.7136ZM16.897 18.076H22.2828V17.076H16.897V18.076ZM18.3908 6.86973L17.0355 14.1161L18.0184 14.2999L19.3738 7.05359L18.3908 6.86973ZM17.0355 14.1161L16.4055 17.4841L17.3884 17.6679L18.0184 14.2999L17.0355 14.1161ZM23.0231 11.1297C22.7328 12.0304 21.2479 14.0434 17.5721 13.71L17.4818 14.7059C21.6245 15.0816 23.5415 12.7812 23.9749 11.4365L23.0231 11.1297ZM20.7344 5.98495C20.9949 5.87861 23.847 4.46289 26.5155 3.13331L26.0695 2.23826C24.7261 2.90763 23.3493 3.59218 22.2788 4.12142C21.7434 4.38608 21.2853 4.6116 20.9466 4.77685C20.7771 4.85953 20.6383 4.9267 20.535 4.97599C20.4833 5.00066 20.4415 5.02039 20.4096 5.03514C20.3937 5.04251 20.381 5.04829 20.3713 5.05263C20.3665 5.05478 20.3628 5.05641 20.36 5.05759C20.3572 5.05882 20.3562 5.05924 20.3565 5.05909L20.7344 5.98495ZM26.5155 3.13331C27.7592 2.5136 28.974 1.90707 29.8903 1.44899L29.4431 0.554546C28.5272 1.01244 27.3128 1.61877 26.0695 2.23826L26.5155 3.13331ZM22.1379 1.81344C22.6685 1.57834 23.4522 1.41999 24.1735 1.54262C24.8682 1.66073 25.4922 2.03192 25.8283 2.87157L26.7567 2.5C26.2698 1.28338 25.3179 0.722826 24.3411 0.556762C23.3908 0.39521 22.4075 0.600253 21.7328 0.899156L22.1379 1.81344ZM26.0502 3.12318C25.9714 3.07952 25.9291 3.02602 25.9252 3.02129C25.9131 3.00665 25.9078 2.99767 25.9091 2.99982C25.9113 3.00335 25.9214 3.0207 25.9374 3.05567C25.9686 3.12378 26.0098 3.23089 26.0498 3.36979C26.1299 3.64789 26.1975 4.02663 26.1826 4.44045C26.1537 5.24369 25.8194 6.19505 24.5694 6.85208L25.0347 7.73725C26.6513 6.88753 27.1423 5.57877 27.1819 4.47641C27.2013 3.93743 27.1141 3.45201 27.0107 3.09306C26.959 2.91344 26.9013 2.75881 26.8466 2.63927C26.8196 2.58041 26.7899 2.52246 26.7581 2.47137C26.7424 2.44622 26.7216 2.4151 26.6956 2.38377C26.6779 2.36234 26.6236 2.29759 26.5347 2.24838L26.0502 3.12318ZM24.5694 6.85208C23.5884 7.3677 22.8309 7.21379 22.2556 6.84827C21.6454 6.46054 21.2105 5.80984 21.0058 5.32691L20.0851 5.71713C20.3437 6.32733 20.8904 7.16565 21.7193 7.69231C22.5832 8.24118 23.7223 8.42703 25.0347 7.73725L24.5694 6.85208ZM21.7328 0.899156C20.1524 1.59937 19.0563 3.61941 20.0965 5.74204L20.9944 5.30199C20.2278 3.73752 21.0253 2.30636 22.1379 1.81344L21.7328 0.899156ZM25.8127 21.5107L21.8167 21.0675L21.7065 22.0614L25.7025 22.5046L25.8127 21.5107ZM21.8167 21.0675L17.8208 20.6244L17.7105 21.6183L21.7065 22.0614L21.8167 21.0675ZM21.2687 21.6481L22.0505 26.257L23.0364 26.0897L22.2546 21.4809L21.2687 21.6481ZM22.1232 25.9024L17.7798 32.6385L18.6202 33.1804L22.9637 26.4443L22.1232 25.9024ZM18.0318 33.3803C18.2824 33.4698 18.6648 33.654 18.974 33.9007C19.2994 34.1603 19.4374 34.401 19.4374 34.5934H20.4374C20.4374 33.935 19.9963 33.4371 19.5977 33.1191C19.183 32.7882 18.6967 32.5559 18.3682 32.4385L18.0318 33.3803ZM18.438 36.015L15.1513 34.2356L14.6752 35.115L17.962 36.8944L18.438 36.015ZM14.9749 33.5161L19.7437 26.4531L18.9149 25.8936L14.1461 32.9565L14.9749 33.5161ZM19.8069 26.0255L18.2433 20.9735L17.288 21.2691L18.8516 26.3212L19.8069 26.0255ZM1 40.5C1.09484 40.5 1.32985 40.477 1.62627 40.4452C1.94112 40.4115 2.36781 40.3628 2.87882 40.3027C3.90121 40.1825 5.26623 40.0162 6.75994 39.8315C9.74763 39.4621 13.2535 39.0188 15.5703 38.7233L15.4438 37.7314C13.1277 38.0268 9.62321 38.4698 6.63723 38.839C5.14411 39.0237 3.78145 39.1897 2.76206 39.3095C2.25218 39.3695 1.82946 39.4177 1.51972 39.4509C1.36466 39.4675 1.23961 39.4802 1.14683 39.4886C1.10036 39.4929 1.0637 39.4959 1.03632 39.4978C1.00559 39.5 0.996511 39.5 1 39.5V40.5ZM15.782 38.645L18.4749 36.8723L17.9251 36.0371L15.2322 37.8097L15.782 38.645ZM20.126 35.9112L25.0683 32.8008L24.5357 31.9544L19.5934 35.0649L20.126 35.9112ZM19.4374 34.5934C19.4374 34.9435 19.4259 35.1781 19.3773 35.3566L20.3421 35.6195C20.4306 35.2947 20.4374 34.9329 20.4374 34.5934H19.4374ZM19.3773 35.3566C19.3347 35.5129 19.2676 35.6128 19.1294 35.6993C18.9658 35.8016 18.6745 35.9009 18.1466 35.9576L18.2534 36.9518C18.841 36.8887 19.308 36.767 19.6597 36.5471C20.0367 36.3113 20.2417 35.9878 20.3421 35.6195L19.3773 35.3566ZM35.8133 28.8565L40.8517 24.5135L40.1988 23.7561L35.1604 28.0991L35.8133 28.8565ZM40.7242 24.5935L44.1989 23.0868L43.8011 22.1693L40.3263 23.6761L40.7242 24.5935ZM24.963 32.851L27.8297 31.876L27.5077 30.9293L24.641 31.9042L24.963 32.851ZM27.8297 31.876L30.6964 30.9011L30.3744 29.9543L27.5077 30.9293L27.8297 31.876ZM32.2176 7.19238L27.1793 31.3004L28.1581 31.505L33.1965 7.39695L32.2176 7.19238ZM15.1513 34.2356C14.8915 34.0949 14.8096 33.7609 14.9749 33.5161L14.1461 32.9565C13.6502 33.691 13.8958 34.6931 14.6752 35.115L15.1513 34.2356ZM9.3821 15.3274C9.22835 16.1546 9.78483 16.9464 10.6152 17.082L10.7763 16.095C10.4995 16.0498 10.314 15.7859 10.3653 15.5102L9.3821 15.3274ZM15.009 4.7557C14.1956 4.61505 13.4215 5.15798 13.2766 5.97061L14.2611 6.14605C14.3094 5.87517 14.5675 5.69419 14.8386 5.74108L15.009 4.7557ZM11.6923 10.9508C10.8861 10.8168 10.1209 11.3528 9.97154 12.1564L10.9547 12.3391C11.0045 12.0713 11.2595 11.8926 11.5283 11.9373L11.6923 10.9508ZM17.9846 6.28512C18.2593 6.33263 18.4421 6.59567 18.3908 6.86973L19.3738 7.05359C19.5276 6.2314 18.9792 5.44228 18.155 5.29974L17.9846 6.28512Z" fill="#295F98"/>
</svg>
