<svg width="28" height="34" viewBox="0 0 28 34" fill="none" xmlns="http://www.w3.org/2000/svg">
<path d="M23.2481 9.92578H13.8444C13.4838 9.92578 13.1914 10.2181 13.1914 10.5788C13.1914 10.9395 13.4838 11.2318 13.8444 11.2318H23.2481C23.6087 11.2318 23.9011 10.9395 23.9011 10.5788C23.9011 10.2181 23.6087 9.92578 23.2481 9.92578Z" fill="#295F98"/>
<path d="M20.9624 13.2519C20.8409 13.1304 20.6724 13.0605 20.5007 13.0605C20.3289 13.0605 20.1605 13.1304 20.039 13.2519C19.9175 13.3733 19.8477 13.5418 19.8477 13.7136C19.8477 13.8853 19.9175 14.0538 20.039 14.1753C20.1605 14.2967 20.3289 14.3666 20.5007 14.3666C20.6724 14.3666 20.8409 14.2967 20.9624 14.1753C21.0838 14.0538 21.1537 13.8853 21.1537 13.7136C21.1537 13.5418 21.0838 13.3733 20.9624 13.2519Z" fill="#295F98"/>
<path d="M14.3061 2.99993C14.1847 2.87847 14.0162 2.80859 13.8444 2.80859C13.6727 2.80859 13.5042 2.87847 13.3827 2.99993C13.2613 3.12139 13.1914 3.28987 13.1914 3.46162C13.1914 3.63336 13.2613 3.80184 13.3827 3.9233C13.5042 4.04477 13.6727 4.11464 13.8444 4.11464C14.0162 4.11464 14.1847 4.04477 14.3061 3.9233C14.4276 3.80184 14.4975 3.63336 14.4975 3.46162C14.4975 3.28987 14.4276 3.12139 14.3061 2.99993Z" fill="#295F98"/>
<path d="M17.7545 13.0605H13.8444C13.4838 13.0605 13.1914 13.3529 13.1914 13.7136C13.1914 14.0742 13.4838 14.3666 13.8444 14.3666H17.7545C18.1152 14.3666 18.4076 14.0742 18.4076 13.7136C18.4076 13.3529 18.1152 13.0605 17.7545 13.0605Z" fill="#295F98"/>
<path d="M23.2481 16.9785H13.8444C13.4838 16.9785 13.1914 17.2709 13.1914 17.6315C13.1914 17.9922 13.4838 18.2846 13.8444 18.2846H23.2481C23.6087 18.2846 23.9011 17.9922 23.9011 17.6315C23.9011 17.2709 23.6087 16.9785 23.2481 16.9785Z" fill="#295F98"/>
<path d="M20.9624 20.3046C20.8409 20.1832 20.6724 20.1133 20.5007 20.1133C20.3289 20.1133 20.1605 20.1832 20.039 20.3046C19.9175 20.4261 19.8477 20.5946 19.8477 20.7663C19.8477 20.938 19.9175 21.1065 20.039 21.228C20.1605 21.3495 20.3289 21.4193 20.5007 21.4193C20.6724 21.4193 20.8409 21.3495 20.9624 21.228C21.0838 21.1065 21.1537 20.938 21.1537 20.7663C21.1537 20.5946 21.0838 20.4261 20.9624 20.3046Z" fill="#295F98"/>
<path d="M17.7545 20.1133H13.8444C13.4838 20.1133 13.1914 20.4056 13.1914 20.7663C13.1914 21.127 13.4838 21.4193 13.8444 21.4193H17.7545C18.1152 21.4193 18.4076 21.127 18.4076 20.7663C18.4076 20.4056 18.1152 20.1133 17.7545 20.1133Z" fill="#295F98"/>
<path d="M23.2481 24.0303H13.8444C13.4838 24.0303 13.1914 24.3226 13.1914 24.6833C13.1914 25.044 13.4838 25.3363 13.8444 25.3363H23.2481C23.6087 25.3363 23.9011 25.044 23.9011 24.6833C23.9011 24.3226 23.6087 24.0303 23.2481 24.0303Z" fill="#295F98"/>
<path d="M20.9624 27.3564C20.8409 27.2349 20.6724 27.165 20.5007 27.165C20.3289 27.165 20.1605 27.2349 20.039 27.3564C19.9175 27.4778 19.8477 27.6463 19.8477 27.8181C19.8477 27.9898 19.9175 28.1583 20.039 28.2797C20.1605 28.4012 20.3289 28.4711 20.5007 28.4711C20.6724 28.4711 20.8409 28.4012 20.9624 28.2797C21.0838 28.1583 21.1537 27.9898 21.1537 27.8181C21.1537 27.6463 21.0838 27.4778 20.9624 27.3564Z" fill="#295F98"/>
<path d="M17.7545 27.165H13.8444C13.4838 27.165 13.1914 27.4574 13.1914 27.8181C13.1914 28.1787 13.4838 28.4711 13.8444 28.4711H17.7545C18.1152 28.4711 18.4076 28.1787 18.4076 27.8181C18.4076 27.4574 18.1152 27.165 17.7545 27.165Z" fill="#295F98"/>
<path d="M24.5042 2.54685H19.5164C18.7954 1.85981 17.8208 1.43665 16.7486 1.43665H16.1765C15.7392 0.570872 14.8407 0 13.844 0C12.8473 0 11.9489 0.570872 11.5115 1.43665H10.9381C9.86587 1.43665 8.8913 1.85981 8.17029 2.54685H3.18401C1.42836 2.54685 0 3.97521 0 5.73086V30.2508C0 32.0065 1.42836 33.4348 3.18401 33.4348H24.5041C26.2597 33.4348 27.6881 32.0065 27.6881 30.2508V5.73086C27.6882 3.97521 26.2598 2.54685 24.5042 2.54685ZM10.9381 2.7427H11.9559C12.2497 2.7427 12.5072 2.54659 12.5854 2.26351C12.7411 1.69975 13.2587 1.30605 13.8441 1.30605C14.4295 1.30605 14.947 1.69975 15.1027 2.26351C15.1809 2.54659 15.4385 2.7427 15.7322 2.7427H16.7486C18.166 2.7427 19.3327 3.83651 19.4491 5.22425H8.23762C8.35405 3.83651 9.52081 2.7427 10.9381 2.7427ZM26.3821 30.2509C26.3821 31.2864 25.5397 32.1288 24.5042 32.1288H3.18401C2.14851 32.1288 1.30605 31.2864 1.30605 30.2509V5.73086C1.30605 4.69536 2.14851 3.8529 3.18401 3.8529H7.25541C7.04148 4.34345 6.92204 4.88428 6.92204 5.4528V5.87727C6.92204 6.23793 7.2144 6.53029 7.57506 6.53029H20.1117C20.4724 6.53029 20.7647 6.23793 20.7647 5.87727V5.4528C20.7647 4.88435 20.6453 4.34345 20.4314 3.8529H24.5042C25.5397 3.8529 26.3821 4.69536 26.3821 5.73086V30.2509Z" fill="#295F98"/>
<path d="M9.6871 9.76743C9.4321 9.51243 9.0186 9.51243 8.7636 9.76737L5.97114 12.5599L5.11092 11.6996C4.85591 11.4447 4.44242 11.4447 4.18735 11.6996C3.93234 11.9546 3.93234 12.3681 4.18735 12.6232L5.50939 13.9452C5.63693 14.0727 5.80404 14.1365 5.97114 14.1365C6.13825 14.1365 6.30543 14.0727 6.4329 13.9452L9.6871 10.691C9.94211 10.436 9.94211 10.0225 9.6871 9.76743Z" fill="#295F98"/>
<path d="M8.09222 24.0312H4.95771C4.59705 24.0312 4.30469 24.3236 4.30469 24.6843V27.8188C4.30469 28.1794 4.59705 28.4718 4.95771 28.4718H8.09222C8.45288 28.4718 8.74524 28.1794 8.74524 27.8188V24.6843C8.74524 24.3236 8.45288 24.0312 8.09222 24.0312ZM7.4392 27.1658H5.61073V25.3373H7.4392V27.1658Z" fill="#295F98"/>
<path d="M8.09222 16.9766H4.95771C4.59705 16.9766 4.30469 17.2689 4.30469 17.6296V20.7641C4.30469 21.1248 4.59705 21.4171 4.95771 21.4171H8.09222C8.45288 21.4171 8.74524 21.1248 8.74524 20.7641V17.6296C8.74524 17.2689 8.45288 16.9766 8.09222 16.9766ZM7.4392 20.1111H5.61073V18.2826H7.4392V20.1111Z" fill="#295F98"/>
</svg>
