<svg width="27" height="27" viewBox="0 0 27 27" fill="none" xmlns="http://www.w3.org/2000/svg">
<path d="M25.3203 6.70833H1.84115C0.916514 6.70833 0.164062 5.95588 0.164062 5.03125V1.67708C0.164062 0.752451 0.916514 0 1.84115 0H25.3203C26.2449 0 26.9974 0.752451 26.9974 1.67708V5.03125C26.9974 5.95588 26.2449 6.70833 25.3203 6.70833ZM1.84115 1.11806C1.53368 1.11806 1.28212 1.3685 1.28212 1.67708V5.03125C1.28212 5.33983 1.53368 5.59028 1.84115 5.59028H25.3203C25.6278 5.59028 25.8793 5.33983 25.8793 5.03125V1.67708C25.8793 1.3685 25.6278 1.11806 25.3203 1.11806H1.84115Z" fill="#295F98"/>
<path d="M11.1413 10.5413H0.68679C0.398244 10.5413 0.164062 10.3267 0.164062 10.0622C0.164062 9.79767 0.398244 9.58301 0.68679 9.58301H11.1413C11.4299 9.58301 11.6641 9.79767 11.6641 10.0622C11.6641 10.3267 11.4299 10.5413 11.1413 10.5413Z" fill="#295F98"/>
<path d="M11.1413 13.4163H0.68679C0.398244 13.4163 0.164062 13.2017 0.164062 12.9372C0.164062 12.6727 0.398244 12.458 0.68679 12.458H11.1413C11.4299 12.458 11.6641 12.6727 11.6641 12.9372C11.6641 13.2017 11.4299 13.4163 11.1413 13.4163Z" fill="#295F98"/>
<path d="M11.1413 16.2913H0.68679C0.398244 16.2913 0.164062 16.0767 0.164062 15.8122C0.164062 15.5477 0.398244 15.333 0.68679 15.333H11.1413C11.4299 15.333 11.6641 15.5477 11.6641 15.8122C11.6641 16.0767 11.4299 16.2913 11.1413 16.2913Z" fill="#295F98"/>
<path d="M11.1413 20.1243H0.68679C0.398244 20.1243 0.164062 19.9097 0.164062 19.6452C0.164062 19.3807 0.398244 19.166 0.68679 19.166H11.1413C11.4299 19.166 11.6641 19.3807 11.6641 19.6452C11.6641 19.9097 11.4299 20.1243 11.1413 20.1243Z" fill="#295F98"/>
<path d="M11.1413 22.9993H0.68679C0.398244 22.9993 0.164062 22.7847 0.164062 22.5202C0.164062 22.2557 0.398244 22.041 0.68679 22.041H11.1413C11.4299 22.041 11.6641 22.2557 11.6641 22.5202C11.6641 22.7847 11.4299 22.9993 11.1413 22.9993Z" fill="#295F98"/>
<path d="M25.4318 16.2913H17.0682C16.2036 16.2913 15.5 15.6464 15.5 14.8538V11.0205C15.5 10.228 16.2036 9.58301 17.0682 9.58301H25.4318C26.2964 9.58301 27 10.228 27 11.0205V14.8538C27 15.6464 26.2964 16.2913 25.4318 16.2913ZM17.0682 10.5413C16.7807 10.5413 16.5455 10.756 16.5455 11.0205V14.8538C16.5455 15.1183 16.7807 15.333 17.0682 15.333H25.4318C25.7193 15.333 25.9545 15.1183 25.9545 14.8538V11.0205C25.9545 10.756 25.7193 10.5413 25.4318 10.5413H17.0682Z" fill="#295F98"/>
<path d="M25.4318 26.8327H17.0682C16.2036 26.8327 15.5 26.0956 15.5 25.1898V20.8089C15.5 19.9031 16.2036 19.166 17.0682 19.166H25.4318C26.2964 19.166 27 19.9031 27 20.8089V25.1898C27 26.0956 26.2964 26.8327 25.4318 26.8327ZM17.0682 20.2613C16.7807 20.2613 16.5455 20.5066 16.5455 20.8089V25.1898C16.5455 25.4921 16.7807 25.7374 17.0682 25.7374H25.4318C25.7193 25.7374 25.9545 25.4921 25.9545 25.1898V20.8089C25.9545 20.5066 25.7193 20.2613 25.4318 20.2613H17.0682Z" fill="#295F98"/>
<path d="M11.1413 25.8743H0.68679C0.398244 25.8743 0.164062 25.6597 0.164062 25.3952C0.164062 25.1307 0.398244 24.916 0.68679 24.916H11.1413C11.4299 24.916 11.6641 25.1307 11.6641 25.3952C11.6641 25.6597 11.4299 25.8743 11.1413 25.8743Z" fill="#295F98"/>
</svg>
